{"glyphs":{"0":{"ha":711,"x_min":42,"x_max":672,"o":"m 356 -54 q 210 -23 269 -54 q 113 66 150 8 q 58 206 75 124 q 42 389 42 288 q 53 603 42 506 q 100 772 65 701 q 196 881 135 842 q 354 919 257 919 q 515 885 453 919 q 612 790 576 851 q 660 645 647 729 q 672 461 672 561 q 655 242 672 338 q 599 80 638 146 q 501 -20 561 14 q 356 -54 442 -54 m 242 425 q 245 297 242 356 q 260 197 249 239 q 293 132 271 156 q 354 108 315 108 q 423 132 399 108 q 459 199 447 156 q 473 304 471 243 q 475 439 475 365 q 471 573 475 513 q 454 676 467 633 q 418 742 442 719 q 356 765 394 765 q 294 738 317 765 q 260 665 271 711 q 245 556 249 618 q 242 425 242 494 z "},"1":{"ha":501,"x_min":18,"x_max":411,"o":"m 39 681 q 73 721 54 696 q 115 774 92 746 q 162 830 138 803 q 211 878 186 857 q 257 901 232 896 q 303 906 282 906 q 379 890 347 906 q 411 836 411 875 q 410 780 411 829 q 408 662 410 731 q 406 515 407 593 q 406 374 406 438 q 406 297 406 342 q 405 210 406 253 q 404 136 404 168 q 404 96 404 104 q 382 4 404 28 q 307 -19 360 -19 q 269 -15 286 -19 q 238 1 251 -11 q 218 38 225 14 q 211 100 211 61 q 212 151 211 110 q 213 239 213 192 q 215 329 214 286 q 215 386 215 372 q 216 449 215 422 q 217 503 217 476 q 218 563 218 531 q 215 640 218 594 q 186 606 199 625 q 158 574 174 588 q 119 547 136 554 q 88 539 103 539 q 65 551 76 539 q 42 579 53 563 q 25 613 32 596 q 18 642 18 631 q 39 681 18 658 z "},"2":{"ha":692,"x_min":47,"x_max":658,"o":"m 57 101 q 104 163 69 128 q 183 242 139 199 q 276 333 228 285 q 365 435 325 382 q 432 545 406 489 q 458 660 458 601 q 449 714 458 693 q 424 747 439 735 q 390 763 408 758 q 356 767 372 767 q 298 744 319 767 q 266 694 276 722 q 253 641 256 667 q 250 608 250 615 q 239 590 250 597 q 213 580 228 583 q 184 575 199 576 q 163 574 169 574 q 127 579 146 574 q 93 596 108 585 q 68 623 78 607 q 58 658 58 639 q 76 732 58 688 q 129 818 93 776 q 222 890 165 860 q 354 921 278 921 q 476 902 419 921 q 572 849 532 883 q 635 764 613 814 q 658 651 658 714 q 638 538 658 593 q 583 434 617 483 q 506 340 549 385 q 420 257 464 296 q 336 185 376 218 q 267 125 296 151 q 308 126 300 125 q 322 126 315 126 q 370 128 333 126 q 450 133 407 131 q 531 138 493 136 q 582 140 568 140 q 624 131 610 140 q 642 107 638 121 q 647 80 647 93 q 646 58 646 67 q 644 32 646 46 q 634 7 642 18 q 610 -12 626 -4 q 567 -19 594 -19 q 520 -18 554 -19 q 447 -15 486 -17 q 371 -12 407 -14 q 319 -11 335 -11 q 281 -12 306 -11 q 230 -14 257 -12 q 178 -16 203 -15 q 140 -17 153 -17 q 92 -10 110 -17 q 64 5 74 -4 q 51 24 54 14 q 47 44 47 35 q 50 74 47 56 q 57 101 53 93 z "},"3":{"ha":710,"x_min":51,"x_max":665,"o":"m 478 450 q 507 441 478 449 q 572 411 536 433 q 636 348 607 389 q 665 236 665 307 q 640 128 665 176 q 571 47 614 81 q 472 -3 528 14 q 354 -21 415 -21 q 207 10 265 -21 q 114 82 149 40 q 65 168 79 124 q 51 242 51 213 q 61 277 51 261 q 86 304 71 293 q 120 321 101 315 q 156 326 139 326 q 177 325 163 326 q 206 320 192 324 q 232 310 221 317 q 243 292 243 303 q 247 259 243 285 q 263 206 251 233 q 297 156 275 178 q 356 133 319 133 q 392 139 372 133 q 428 157 411 144 q 456 192 444 169 q 467 247 467 214 q 460 291 467 268 q 442 332 454 314 q 415 362 431 350 q 381 374 400 374 q 326 394 343 374 q 308 446 308 415 q 327 500 308 485 q 372 518 346 515 q 404 534 389 521 q 431 567 419 547 q 451 612 443 588 q 458 660 458 636 q 449 714 458 693 q 424 747 439 735 q 390 763 408 758 q 356 767 372 767 q 298 744 319 767 q 266 694 276 722 q 253 641 256 667 q 250 608 250 615 q 239 590 250 597 q 213 580 228 583 q 184 575 199 576 q 163 574 169 574 q 127 579 146 574 q 93 596 108 585 q 68 623 78 607 q 58 658 58 639 q 76 732 58 688 q 129 818 93 776 q 222 890 165 860 q 354 921 278 921 q 476 903 419 921 q 572 851 532 885 q 635 772 613 818 q 658 671 658 726 q 630 562 658 604 q 568 495 601 519 q 506 462 535 471 q 478 450 478 453 z "},"4":{"ha":686,"x_min":19,"x_max":669,"o":"m 400 238 q 275 236 333 235 q 150 238 217 238 q 109 240 132 238 q 67 249 86 242 q 33 272 47 257 q 19 311 19 286 q 42 383 19 350 q 217 636 131 515 q 403 881 303 757 q 444 909 418 900 q 493 918 469 918 q 526 915 508 918 q 560 903 544 911 q 587 883 576 896 q 597 851 597 871 q 591 633 597 736 q 585 414 585 529 l 585 388 q 618 387 603 388 q 645 381 633 386 q 663 363 657 375 q 669 328 669 351 q 668 285 669 301 q 658 259 667 268 q 633 247 650 250 q 588 243 617 243 l 588 201 l 589 118 l 589 76 q 560 -1 589 18 q 479 -19 532 -19 q 416 10 436 -19 q 396 79 396 39 q 400 238 396 158 m 236 383 l 281 383 l 363 385 l 407 385 q 408 422 408 404 q 408 460 408 440 l 408 511 l 406 613 l 406 664 q 319 525 360 593 q 236 383 278 457 z "},"5":{"ha":692,"x_min":51,"x_max":665,"o":"m 343 444 q 279 440 306 444 q 230 430 253 435 q 184 420 207 425 q 132 415 161 415 q 106 419 118 415 q 83 431 93 424 q 67 447 72 439 q 63 464 61 456 q 71 552 67 506 q 79 647 75 599 q 88 741 83 694 q 94 829 92 788 q 100 861 96 846 q 115 888 104 876 q 148 907 126 900 q 204 914 169 914 q 233 914 211 914 q 283 913 256 914 q 341 913 311 913 q 392 913 371 913 q 443 913 421 913 q 484 914 465 914 q 521 915 503 914 q 561 915 539 915 q 600 897 586 915 q 614 846 614 878 q 601 789 614 810 q 560 768 588 768 l 260 768 q 248 663 253 711 q 236 556 243 614 q 285 574 249 561 q 379 588 321 588 q 492 567 440 588 q 583 510 544 547 q 644 417 622 472 q 665 293 665 363 q 640 159 665 218 q 571 60 614 100 q 472 0 528 21 q 354 -21 415 -21 q 207 10 265 -21 q 114 82 149 40 q 65 168 79 124 q 51 242 51 213 q 61 277 51 261 q 86 304 71 293 q 120 321 101 315 q 156 326 139 326 q 176 325 163 326 q 204 320 190 324 q 228 310 218 317 q 239 292 239 303 q 244 246 239 274 q 261 192 249 218 q 297 147 274 165 q 356 128 319 128 q 392 137 372 128 q 428 165 411 146 q 456 213 444 183 q 467 285 467 243 q 460 341 467 313 q 440 392 454 369 q 401 430 425 415 q 343 444 378 444 z "},"6":{"ha":688,"x_min":50,"x_max":665,"o":"m 321 582 q 353 586 336 585 q 385 588 369 588 q 494 567 443 588 q 584 510 546 547 q 644 417 622 472 q 665 293 665 363 q 640 159 665 218 q 571 60 614 100 q 472 0 528 21 q 354 -21 415 -21 q 227 3 283 -21 q 131 70 171 28 q 71 172 92 113 q 50 300 50 231 q 85 490 50 396 q 165 661 119 583 q 253 794 210 739 q 314 867 297 849 q 340 891 325 878 q 372 913 354 904 q 410 926 389 922 q 453 919 431 929 q 472 906 461 915 q 487 881 482 896 q 488 849 492 867 q 465 811 485 831 q 400 725 442 788 q 321 582 358 663 m 329 451 q 298 451 313 451 q 269 449 283 451 q 252 374 258 411 q 246 301 246 338 q 275 172 246 215 q 356 128 304 128 q 392 137 372 128 q 428 165 411 146 q 456 213 444 183 q 467 285 467 243 q 460 342 467 313 q 438 395 454 371 q 396 435 422 419 q 329 451 369 451 z "},"7":{"ha":581,"x_min":19,"x_max":563,"o":"m 83 908 q 271 906 183 908 q 458 903 358 903 q 535 890 508 903 q 563 840 563 876 q 558 817 563 829 q 490 607 522 704 q 427 419 457 510 q 367 238 397 328 q 306 53 338 149 q 214 -18 282 -18 q 179 -15 197 -18 q 147 -3 161 -11 q 124 19 133 6 q 115 56 115 33 q 119 79 115 67 q 128 107 122 92 q 186 269 157 192 q 245 425 215 347 q 308 583 275 503 q 376 750 340 663 q 301 751 336 751 q 233 749 267 750 q 166 746 200 747 q 92 744 132 744 q 53 751 68 744 q 31 767 39 757 q 22 791 24 778 q 19 818 19 804 q 20 848 19 832 q 27 877 21 864 q 47 899 33 890 q 83 908 60 908 z "},"8":{"ha":717,"x_min":32,"x_max":683,"o":"m 356 -29 q 118 39 204 -29 q 32 233 32 107 q 71 381 32 324 q 182 461 110 439 q 83 536 119 482 q 47 663 47 590 q 70 767 47 719 q 133 848 93 814 q 231 901 174 882 q 356 919 288 919 q 478 901 424 919 q 573 849 533 882 q 634 767 613 815 q 656 661 656 719 q 622 535 656 588 q 528 461 589 482 q 638 389 593 442 q 683 246 683 336 q 594 42 683 114 q 356 -29 506 -29 m 238 660 q 268 558 238 599 q 353 518 299 518 q 395 530 375 518 q 431 562 415 542 q 455 609 446 582 q 464 665 464 636 q 435 749 464 718 q 350 781 406 781 q 266 749 294 781 q 238 660 238 718 m 353 390 q 257 347 290 390 q 224 242 224 303 q 256 140 224 181 q 358 100 288 100 q 458 140 428 100 q 489 242 489 179 q 457 347 489 303 q 353 390 425 390 z "},"9":{"ha":703,"x_min":40,"x_max":656,"o":"m 385 313 q 353 308 369 310 q 321 307 336 307 q 211 327 263 307 q 122 385 160 347 q 62 477 83 422 q 40 601 40 532 q 66 735 40 676 q 135 834 92 794 q 234 894 178 874 q 351 915 290 915 q 478 891 422 915 q 574 824 535 867 q 635 723 614 782 q 656 594 656 664 q 621 405 656 499 q 541 233 586 311 q 452 101 496 156 q 392 28 408 46 q 367 3 382 17 q 334 -19 351 -10 q 296 -31 317 -28 q 253 -25 275 -35 q 234 -11 244 -21 q 219 13 224 -1 q 217 46 214 28 q 240 83 221 64 q 306 169 264 107 q 385 313 347 232 m 376 443 q 408 443 393 443 q 436 446 422 443 q 453 520 447 483 q 460 593 460 557 q 431 723 460 679 q 350 767 401 767 q 314 758 333 767 q 278 730 294 749 q 250 681 261 711 q 239 610 239 651 q 245 553 239 582 q 267 499 251 524 q 310 459 283 475 q 376 443 336 443 z "},"\u0000":{"ha":0,"x_min":0,"x_max":0,"o":""},"\r":{"ha":347,"x_min":0,"x_max":0,"o":""}," ":{"ha":368,"x_min":0,"x_max":0,"o":""},"O":{"ha":714,"x_min":28,"x_max":686,"o":"m 361 -43 q 208 -13 272 -43 q 105 72 144 17 q 47 208 65 128 q 28 389 28 288 q 40 594 28 497 q 88 763 53 690 q 188 877 124 835 q 354 919 251 919 q 522 885 457 919 q 623 790 586 851 q 673 645 660 729 q 686 461 686 561 q 669 243 686 338 q 613 85 651 149 q 513 -10 575 22 q 361 -43 451 -43 m 236 393 q 240 285 236 333 q 256 201 243 236 q 294 148 269 167 q 363 129 319 129 q 429 151 406 129 q 465 214 453 174 q 478 311 476 254 q 481 439 481 368 q 476 547 481 493 q 459 642 472 600 q 421 709 446 683 q 356 735 396 735 q 292 705 315 735 q 256 626 268 675 q 240 517 243 578 q 236 393 236 456 z "},"H":{"ha":710,"x_min":-14,"x_max":668,"o":"m 31 882 q 95 885 63 883 q 158 886 128 886 q 247 876 211 886 q 282 835 282 867 q 283 792 282 826 q 285 708 285 757 q 287 601 286 658 q 285 489 288 543 q 337 489 317 489 q 375 489 357 489 q 413 490 393 489 q 465 492 433 490 q 465 601 465 539 q 465 719 465 663 q 463 815 464 775 q 463 860 463 856 q 475 881 463 872 q 505 894 488 889 q 541 901 522 899 q 572 903 560 903 q 603 901 586 903 q 634 893 619 899 q 658 877 649 888 q 668 851 668 867 q 665 451 668 651 q 663 50 663 251 q 632 -11 663 3 q 558 -25 601 -25 q 532 -22 549 -25 q 499 -12 515 -19 q 472 10 483 -4 q 460 49 460 25 q 459 101 460 67 q 458 178 458 136 q 457 263 457 219 q 458 344 457 307 l 283 342 q 283 245 283 292 q 284 159 283 199 q 285 88 285 119 q 285 39 285 57 q 167 -25 285 -25 q 142 -24 157 -25 q 115 -16 128 -22 q 92 4 101 -10 q 83 43 83 18 l 83 247 l 85 654 l 85 713 l 33 713 q -6 735 3 713 q -14 793 -14 758 q -1 863 -14 844 q 31 882 11 881 z "},"A":{"ha":674,"x_min":0,"x_max":683,"o":"m 121 -32 q 35 -17 71 -32 q 0 17 0 -3 q 8 64 0 26 q 28 158 15 101 q 58 285 42 214 q 94 430 75 356 q 131 578 113 504 q 167 714 150 651 l 100 717 q 40 740 58 719 q 22 806 22 761 q 26 850 22 829 q 38 886 31 871 q 56 910 46 901 q 79 917 67 918 l 439 892 q 456 882 449 892 q 468 856 463 872 q 478 818 474 839 q 488 775 483 797 q 513 655 497 729 q 546 495 528 581 q 583 323 564 410 q 615 165 601 236 l 649 161 q 676 127 668 158 q 683 58 683 96 q 676 17 683 32 q 656 -6 669 1 q 625 -15 643 -14 q 585 -17 607 -17 q 539 -14 561 -17 q 493 -4 517 -11 q 459 18 472 1 q 437 58 446 35 q 422 110 428 82 q 410 168 417 139 q 344 169 378 168 q 263 169 311 169 q 250 169 257 169 q 238 169 244 169 q 221 168 231 169 q 215 133 218 153 q 209 91 213 113 q 202 50 206 69 q 194 18 199 31 q 172 -22 186 -11 q 121 -32 157 -32 m 389 314 q 373 407 381 363 q 358 494 365 451 q 342 580 350 536 q 326 672 335 624 q 303 563 314 611 q 282 472 292 514 q 264 392 272 431 q 249 314 256 354 l 389 314 z "},"I":{"ha":414,"x_min":-6,"x_max":407,"o":"m 360 907 q 379 899 371 907 q 392 877 388 890 q 399 848 397 864 q 401 818 401 832 q 388 760 401 789 q 346 732 375 732 l 311 732 q 311 643 311 688 q 310 554 311 599 l 307 353 q 306 251 306 301 q 306 150 306 201 l 351 150 q 394 122 381 150 q 407 64 407 93 q 405 34 407 50 q 398 5 403 18 q 385 -17 393 -8 q 365 -25 376 -25 l 60 -17 q 15 49 24 -17 q 63 153 0 153 l 106 153 q 106 248 106 201 q 107 343 106 294 l 110 551 q 111 640 111 596 q 111 729 111 685 l 57 729 q 10 833 -6 729 q 54 899 18 899 l 360 907 z "},"E":{"ha":531,"x_min":-29,"x_max":531,"o":"m 135 -22 q 99 -14 117 -22 q 67 8 81 -6 q 44 40 53 22 q 36 75 36 57 l 36 713 q -13 726 3 707 q -29 810 -29 746 q 1 865 -29 847 q 100 889 31 883 l 442 917 q 478 890 461 918 q 500 824 496 861 q 447 753 507 760 l 232 731 l 232 531 l 401 531 q 458 468 458 531 q 448 406 458 428 q 418 383 438 383 l 232 383 l 232 150 l 360 150 q 444 224 356 224 q 531 160 531 224 q 528 136 531 150 q 524 108 526 122 q 519 80 521 93 q 515 58 517 67 q 497 13 511 29 q 462 -10 482 -3 q 417 -19 442 -17 q 371 -21 393 -21 q 297 -22 335 -22 q 217 -22 258 -22 l 135 -22 z "},"F":{"ha":499,"x_min":-26,"x_max":485,"o":"m 136 906 q 190 910 151 907 q 272 915 228 913 q 357 920 315 918 q 421 924 399 922 q 463 899 446 926 q 483 832 481 872 q 475 776 485 801 q 438 747 465 750 l 243 736 l 238 454 l 396 458 q 449 382 449 451 q 436 323 449 346 q 401 300 424 300 l 239 300 l 240 67 q 221 6 240 28 q 139 -15 201 -15 q 72 5 100 -15 q 44 69 44 25 l 46 721 q -6 734 8 717 q -24 792 -21 751 q -15 865 -26 839 q 21 894 -3 892 l 136 906 z "},"P":{"ha":650,"x_min":-33,"x_max":636,"o":"m 58 50 q 60 390 58 221 q 61 731 61 558 l 61 743 l 21 739 q -22 767 -10 736 q -26 849 -33 797 q 18 914 -18 914 l 261 917 q 288 919 275 919 q 317 919 301 919 q 375 917 342 919 q 444 903 408 914 q 514 874 479 893 q 576 820 549 854 q 619 736 603 786 q 636 615 636 686 q 622 478 636 543 q 572 364 607 413 q 477 286 536 315 q 331 257 418 257 q 299 258 319 257 q 260 263 279 260 l 260 196 l 264 94 l 264 47 q 257 10 264 24 q 238 -11 250 -4 q 212 -20 226 -18 q 182 -22 197 -22 q 90 -5 122 -22 q 58 50 58 13 m 258 374 q 272 372 265 372 q 285 372 278 372 q 406 431 369 372 q 443 586 443 489 q 407 722 443 678 q 319 763 371 765 l 256 760 q 256 677 256 722 q 256 588 256 632 q 258 501 257 543 q 258 428 258 460 l 258 374 z "},"D":{"ha":717,"x_min":-18,"x_max":681,"o":"m 324 -33 q 224 -22 269 -33 q 146 11 179 -10 q 94 60 113 32 q 75 122 75 89 l 65 753 q 3 768 25 754 q -15 819 -18 782 q 11 902 -10 874 q 82 926 32 931 l 285 918 q 463 890 388 914 q 586 816 538 867 q 658 685 635 765 q 681 486 681 604 q 591 97 681 228 q 324 -33 501 -33 m 267 201 q 328 122 267 122 q 391 149 363 122 q 440 222 419 175 q 472 333 461 268 q 483 474 483 397 q 431 688 483 625 q 276 750 378 750 l 265 750 l 267 201 z "},"C":{"ha":610,"x_min":14,"x_max":606,"o":"m 329 -46 q 95 79 176 -46 q 14 440 14 204 q 97 802 14 678 q 335 926 179 926 q 494 879 432 926 q 568 749 556 832 l 597 553 q 501 490 606 490 q 450 498 467 490 q 429 525 433 506 l 394 704 q 339 754 385 754 q 247 669 278 754 q 215 421 215 585 q 245 194 215 265 q 338 124 275 124 q 409 151 379 124 q 439 218 439 178 q 525 281 439 281 q 582 262 565 281 q 599 199 599 243 q 578 101 599 146 q 522 24 558 57 q 437 -27 486 -8 q 329 -46 388 -46 z "},"B":{"ha":661,"x_min":-25,"x_max":638,"o":"m 50 742 q -10 751 6 738 q -25 808 -25 765 q -12 884 -25 856 q 25 914 1 913 l 254 922 q 617 692 617 935 q 603 601 617 643 q 565 529 589 560 q 506 481 540 499 q 432 461 472 463 l 432 457 q 581 392 524 453 q 638 229 638 331 q 550 35 638 106 q 310 -35 463 -35 q 121 6 192 -35 q 50 114 50 46 l 50 742 m 247 754 q 247 680 247 711 q 245 624 246 649 q 244 578 244 599 q 244 535 244 557 q 265 533 256 533 q 285 532 275 532 q 340 543 314 532 q 384 574 365 554 q 414 619 403 593 q 425 675 425 644 q 319 761 425 761 q 288 759 304 761 q 247 754 271 757 m 244 371 q 242 318 243 346 q 242 266 242 290 q 242 224 242 242 q 242 199 242 206 q 326 122 242 122 q 443 244 443 122 q 397 344 443 317 q 244 371 350 371 z "},"L":{"ha":515,"x_min":-44,"x_max":501,"o":"m 157 -28 q 114 -15 131 -28 q 88 16 97 -3 q 76 58 79 35 q 74 101 74 81 l 74 742 l 17 744 q -31 849 -44 749 q 14 914 -22 915 l 186 907 q 215 905 200 907 q 244 897 231 903 q 266 881 257 892 q 275 856 275 871 q 273 499 275 676 q 274 143 271 322 l 443 143 q 478 117 463 143 q 498 60 494 92 q 488 3 501 29 q 436 -24 475 -24 q 323 -24 364 -24 q 256 -24 282 -24 q 209 -26 229 -25 q 157 -28 189 -26 z "},"K":{"ha":688,"x_min":42,"x_max":658,"o":"m 144 -22 q 67 -3 92 -22 q 42 69 42 17 l 42 860 q 53 881 42 872 q 80 894 64 889 q 113 901 96 899 q 144 903 131 903 q 175 901 158 903 q 207 893 192 899 q 233 877 222 888 q 243 851 243 867 q 242 807 243 843 q 241 722 242 771 q 240 615 240 672 q 239 508 239 558 q 335 631 290 563 q 410 767 381 700 l 456 871 q 483 899 464 890 q 540 907 503 907 q 577 902 558 907 q 609 887 596 897 q 628 863 622 876 q 625 829 633 849 l 574 713 q 497 570 544 646 q 385 436 449 494 q 469 273 426 354 q 553 140 511 192 l 618 133 q 651 119 644 131 q 658 83 657 107 q 655 51 658 69 q 642 17 651 33 q 617 -11 633 0 q 575 -21 600 -22 q 510 -19 542 -18 q 457 -10 479 -21 q 423 21 442 -3 q 385 77 404 44 q 346 147 365 110 q 310 221 326 185 q 278 287 293 257 q 256 335 264 317 l 239 318 q 240 237 239 279 q 241 156 240 194 q 242 89 242 118 q 243 47 243 60 q 235 10 243 24 q 215 -11 228 -4 q 183 -20 201 -18 q 144 -22 165 -22 z "},"R":{"ha":669,"x_min":-33,"x_max":658,"o":"m 44 731 l 44 742 l 21 739 q -22 767 -10 736 q -26 849 -33 797 q 18 914 -18 914 l 190 915 q 264 919 222 919 q 387 909 324 919 q 501 868 450 899 q 585 783 553 838 q 618 638 618 728 q 567 456 618 533 q 436 343 515 379 q 494 231 465 285 q 553 140 524 176 l 618 133 q 651 119 644 131 q 658 83 657 107 q 655 51 658 69 q 642 17 651 33 q 617 -11 633 0 q 575 -21 600 -22 q 510 -19 542 -18 q 457 -10 479 -21 q 409 41 435 1 q 357 131 383 81 q 308 233 331 182 q 268 319 285 285 l 240 318 q 241 241 240 283 q 242 159 242 199 q 243 89 243 119 q 243 47 243 58 q 236 10 243 24 q 217 -11 229 -4 q 191 -20 206 -18 q 161 -22 176 -22 q 42 50 42 -22 l 42 219 l 44 561 l 44 731 m 242 758 q 241 685 242 725 q 240 603 240 644 q 238 523 239 563 q 238 450 238 483 l 297 450 q 356 463 333 450 q 392 496 379 475 q 411 545 406 517 q 417 604 417 574 q 385 721 417 676 q 294 765 354 765 q 242 758 269 765 z "},"N":{"ha":786,"x_min":-39,"x_max":724,"o":"m 90 714 l 15 713 q -27 746 -15 713 q -32 831 -39 779 q 13 896 -24 894 l 182 904 q 192 906 188 906 q 201 906 197 906 l 204 906 l 206 906 q 256 896 231 906 q 297 867 282 886 q 320 829 310 851 q 341 783 331 807 q 360 736 351 760 q 378 694 369 713 q 415 612 397 649 q 451 540 433 575 q 490 470 469 506 q 532 390 510 435 q 528 438 529 414 q 528 485 528 461 q 526 585 528 539 q 524 674 525 631 q 522 764 524 718 q 521 864 521 810 q 535 887 521 878 q 567 901 549 896 q 604 907 586 906 q 632 908 622 908 q 662 906 646 908 q 692 898 678 904 q 715 881 706 892 q 724 851 724 869 q 715 444 724 647 q 707 38 707 242 q 699 3 707 15 q 677 -15 690 -10 q 647 -22 664 -21 q 613 -22 629 -22 q 561 -8 585 -22 q 521 29 538 7 q 469 110 492 67 q 425 197 446 154 q 387 272 404 238 q 351 340 369 306 q 316 411 333 375 q 278 492 299 447 q 287 268 285 372 q 289 44 289 164 q 260 -10 289 4 q 199 -24 232 -24 q 168 -22 186 -24 q 133 -14 150 -19 q 103 2 115 -8 q 90 29 90 13 l 90 714 z "},"M":{"ha":972,"x_min":-51,"x_max":935,"o":"m 49 44 q 51 141 49 68 q 57 310 53 214 q 66 515 61 407 q 76 718 71 624 l 3 717 q -40 750 -28 717 q -44 835 -51 783 q 0 900 -36 899 l 156 908 q 169 910 163 910 q 181 910 175 910 l 189 910 l 193 910 q 197 909 196 910 q 201 908 199 908 q 265 894 233 906 q 315 860 296 883 q 345 802 329 843 q 378 708 361 761 q 414 594 396 654 q 448 477 432 533 q 477 374 464 421 q 500 299 490 326 q 519 366 506 318 q 549 476 532 414 q 585 605 567 538 q 622 730 604 672 q 656 828 640 788 q 679 875 671 868 q 721 899 696 889 q 768 908 746 908 q 804 905 782 908 q 848 894 826 901 q 885 874 869 886 q 901 842 901 861 q 905 751 903 814 q 911 609 907 689 q 919 441 915 529 q 927 274 924 353 q 933 135 931 196 q 935 49 935 74 q 905 -19 935 -6 q 828 -32 875 -32 q 781 -25 799 -32 q 754 -4 764 -18 q 741 30 744 10 q 735 76 738 50 q 733 138 732 107 q 732 199 733 168 q 733 403 731 303 q 729 615 735 503 q 708 541 722 593 q 676 424 693 489 q 638 288 658 358 q 599 156 618 217 q 562 54 579 96 q 532 6 544 13 q 511 -2 522 0 q 489 -4 500 -4 q 469 -3 479 -4 q 451 6 458 -1 q 419 56 438 18 q 380 145 400 93 q 340 258 360 197 q 301 376 319 319 q 268 481 283 433 q 243 554 253 528 l 243 506 q 244 392 243 444 q 247 289 246 340 q 249 185 247 238 q 250 72 250 133 q 244 10 250 33 q 225 -25 239 -12 q 187 -41 211 -37 q 126 -44 163 -44 q 67 -20 85 -44 q 49 44 49 4 z "},"T":{"ha":575,"x_min":22,"x_max":554,"o":"m 69 725 q 49 733 57 725 q 34 753 40 740 q 25 784 28 767 q 22 818 22 801 q 31 876 22 850 q 60 901 40 901 q 111 901 76 901 q 190 902 146 901 q 281 903 233 903 q 373 905 329 904 q 451 906 417 906 q 503 907 486 907 q 541 880 528 908 q 554 817 554 851 q 540 754 554 782 q 499 726 526 726 q 457 728 479 726 q 390 726 435 729 q 388 389 388 556 q 388 51 388 222 q 360 -9 388 4 q 290 -22 333 -22 q 218 -3 246 -22 q 190 51 190 15 q 193 388 190 215 q 193 725 196 560 l 69 725 z "},"S":{"ha":647,"x_min":21,"x_max":626,"o":"m 207 175 q 250 129 215 149 q 329 110 285 110 q 398 136 374 110 q 422 199 422 163 q 393 253 422 229 q 321 303 364 278 q 226 357 278 328 q 132 425 175 386 q 60 516 89 464 q 31 639 31 568 q 53 751 31 700 q 116 840 76 803 q 210 899 156 878 q 329 919 265 919 q 457 893 403 919 q 546 828 511 867 q 595 747 581 790 q 604 668 610 703 l 586 554 q 573 531 585 542 q 544 514 561 521 q 508 506 528 507 q 472 508 489 504 q 429 531 449 515 q 413 565 410 546 l 426 668 q 422 701 429 685 q 402 729 415 717 q 372 750 389 742 q 333 758 354 758 q 258 723 289 758 q 228 635 228 688 q 258 556 228 588 q 331 498 288 524 q 427 448 375 472 q 523 392 479 424 q 597 317 567 360 q 626 210 626 274 q 601 105 626 151 q 534 26 576 58 q 436 -25 492 -7 q 319 -43 381 -43 q 235 -33 278 -43 q 158 -7 193 -24 q 98 32 122 10 q 65 79 74 54 l 26 204 q 22 235 22 218 q 26 267 21 251 q 42 297 31 283 q 74 319 54 311 q 133 322 106 332 q 167 297 161 313 l 207 175 z "},"Z":{"ha":631,"x_min":38,"x_max":606,"o":"m 107 -28 q 53 1 69 -29 q 38 75 38 32 q 42 178 38 124 q 68 267 46 232 q 144 369 100 315 q 235 480 189 424 q 322 591 281 536 q 389 694 363 646 l 392 736 q 301 735 347 736 q 215 734 256 735 q 140 733 174 733 q 88 732 107 732 q 62 746 72 732 q 46 781 51 760 q 40 828 40 803 q 43 874 39 853 q 56 909 47 894 q 78 924 65 924 q 130 923 94 924 q 209 921 165 922 q 300 917 253 919 q 390 914 347 915 q 465 910 432 913 q 510 908 497 908 q 567 887 546 907 q 589 832 589 867 q 588 801 589 825 q 585 749 588 778 q 579 692 583 719 q 568 651 575 665 q 487 523 533 588 q 394 399 440 458 q 306 288 347 339 q 240 201 265 238 l 239 139 q 392 153 317 139 q 547 167 468 167 q 583 138 567 167 q 602 76 599 110 q 592 13 606 42 q 540 -15 579 -15 q 282 -21 394 -15 q 107 -28 169 -26 z "},"G":{"ha":668,"x_min":26,"x_max":629,"o":"m 590 597 q 494 535 599 535 q 443 542 460 535 q 422 569 426 550 l 378 767 q 311 735 340 767 q 263 651 282 704 q 233 530 243 599 q 222 386 222 461 q 227 292 222 339 q 248 206 232 244 q 292 144 264 168 q 367 121 321 121 q 417 140 399 121 q 444 186 435 158 q 457 245 454 214 q 460 303 460 276 l 385 289 q 365 302 372 289 q 353 333 357 315 q 348 368 349 350 q 347 396 347 386 q 352 422 347 408 q 374 438 357 435 l 519 453 q 533 453 526 454 q 546 453 539 453 q 559 453 553 453 q 572 451 565 453 q 603 435 592 449 q 620 403 614 421 q 628 365 626 385 q 629 329 629 344 q 620 188 629 256 q 582 69 611 121 q 498 -12 553 18 q 351 -43 443 -43 q 201 -4 263 -43 q 100 96 139 35 q 44 235 61 157 q 26 389 26 313 q 31 503 26 443 q 47 624 35 564 q 82 737 60 683 q 142 832 104 790 q 233 898 179 874 q 360 922 286 922 q 415 913 385 922 q 474 888 444 904 q 526 847 503 871 q 561 793 550 824 l 590 597 z "},"Q":{"ha":736,"x_min":28,"x_max":686,"o":"m 631 -14 q 658 -44 650 -21 q 656 -100 667 -68 q 608 -170 640 -149 q 550 -178 576 -192 l 251 -29 q 80 113 132 4 q 28 389 28 221 q 40 594 28 497 q 88 763 53 690 q 188 877 124 835 q 354 919 251 919 q 522 885 457 919 q 623 790 586 851 q 673 645 660 729 q 686 461 686 561 q 655 183 686 294 q 550 14 624 72 l 631 -14 m 236 393 q 240 285 236 333 q 256 201 243 236 q 294 148 269 167 q 363 129 319 129 q 429 151 406 129 q 465 214 453 174 q 478 311 476 254 q 481 439 481 368 q 476 547 481 493 q 459 642 472 600 q 421 709 446 683 q 356 735 396 735 q 292 705 315 735 q 256 626 268 675 q 240 517 243 578 q 236 393 236 456 z "},"J":{"ha":507,"x_min":15,"x_max":454,"o":"m 46 165 q 92 197 65 194 q 136 190 119 200 l 204 151 q 233 150 218 144 q 249 185 249 156 q 252 442 250 306 q 256 732 254 578 l 139 731 q 92 835 76 731 q 136 900 100 899 l 338 908 q 348 909 343 908 q 357 910 353 910 q 388 906 371 910 q 419 895 404 903 q 444 876 433 888 q 454 849 454 864 l 454 819 q 453 652 454 726 q 451 506 453 578 q 449 359 450 435 q 449 186 449 283 q 432 72 449 121 q 387 -12 415 22 q 320 -62 358 -46 q 240 -76 282 -78 q 180 -64 208 -75 q 135 -42 151 -53 l 43 14 q 21 43 26 24 q 17 85 15 63 q 28 129 19 107 q 46 165 36 151 z "},"V":{"ha":710,"x_min":-12,"x_max":694,"o":"m 243 10 q 226 68 238 24 q 201 175 215 113 q 169 313 186 238 q 137 463 153 388 q 106 610 121 539 q 82 735 92 681 l 44 735 q -8 818 -12 735 q 6 876 -7 858 q 43 894 19 893 l 135 900 q 152 902 143 901 q 172 903 161 903 q 228 898 199 903 q 269 864 258 893 q 280 815 274 853 q 294 722 286 776 q 311 599 301 667 q 331 458 321 531 q 353 315 342 386 q 375 181 364 243 q 402 306 388 238 q 431 446 417 375 q 460 585 446 517 q 485 710 474 654 q 503 806 496 767 q 511 858 510 846 q 519 883 513 874 q 537 896 526 892 q 561 901 547 900 q 590 903 575 903 q 617 900 600 903 q 652 891 635 897 q 682 874 669 885 q 694 847 694 863 q 683 765 694 826 q 652 623 671 704 q 611 449 633 542 q 567 272 589 357 q 528 117 546 186 q 501 14 511 47 q 485 -4 499 4 q 453 -18 472 -12 q 409 -26 433 -24 q 360 -29 385 -29 q 285 -19 319 -29 q 243 10 250 -10 z "},"U":{"ha":697,"x_min":-17,"x_max":657,"o":"m 349 -17 q 273 -4 319 -17 q 183 42 226 8 q 109 133 140 75 q 78 279 78 190 l 78 718 l 38 719 q -5 753 7 721 q -10 838 -17 786 q 47 903 -1 903 l 175 903 q 245 881 215 903 q 275 801 275 858 l 275 322 q 297 214 275 254 q 357 174 319 174 q 423 200 393 174 q 458 294 453 226 q 465 560 469 425 q 461 842 461 694 q 488 884 461 865 q 561 903 514 903 q 593 901 576 903 q 624 892 610 899 q 648 873 639 885 q 657 842 657 861 q 657 605 657 724 q 656 367 657 486 q 638 211 654 275 q 594 104 621 147 q 533 38 567 61 q 465 1 499 14 q 401 -14 432 -11 q 349 -17 369 -17 z "},"Y":{"ha":693,"x_min":8,"x_max":651,"o":"m 285 307 q 194 321 235 307 q 127 368 154 335 q 85 457 100 401 q 71 597 71 513 q 72 649 71 613 q 72 735 72 686 l 65 735 q 13 818 8 735 q 27 876 14 858 q 64 894 40 893 l 149 900 q 171 901 156 901 l 193 903 q 244 888 224 906 q 274 843 265 869 q 279 808 279 831 q 278 770 279 797 q 274 710 276 743 q 270 643 272 678 q 268 583 268 608 q 282 511 268 536 q 347 486 296 486 q 413 511 388 486 q 446 589 439 536 q 450 657 450 618 q 448 733 450 696 q 443 799 446 769 q 440 838 440 828 q 453 871 440 858 q 483 891 465 883 q 522 901 501 899 q 558 903 543 903 q 590 901 574 903 q 620 892 607 899 q 642 875 633 886 q 651 846 651 864 q 649 786 651 836 q 644 670 647 736 q 640 537 642 604 q 638 426 638 469 q 640 323 638 372 q 643 231 643 274 q 614 105 643 157 q 538 19 585 53 q 433 -30 492 -14 q 318 -46 375 -46 q 224 -28 267 -46 q 156 18 181 -10 l 79 106 q 71 156 63 125 q 100 213 79 188 q 148 250 121 239 q 194 239 175 261 l 265 157 q 307 119 285 133 q 353 106 329 106 q 454 286 454 106 l 454 385 q 425 349 444 364 q 382 325 406 335 q 333 311 358 315 q 285 307 307 307 z "},"W":{"ha":894,"x_min":-18,"x_max":872,"o":"m 121 40 q 104 138 113 82 q 90 257 96 194 q 78 386 83 319 q 68 515 72 453 q 60 633 64 578 q 56 728 57 688 l 33 728 q -7 751 4 728 q -15 818 -18 775 q -1 876 -14 858 q 36 894 13 893 l 160 897 q 192 893 179 897 q 217 869 206 889 q 231 830 226 856 q 236 788 235 804 q 250 511 247 644 q 253 235 253 378 q 270 296 258 251 q 297 399 282 340 q 328 522 311 458 q 362 641 346 586 q 392 734 378 696 q 415 778 406 772 q 457 789 432 789 q 499 778 483 789 q 528 731 511 769 q 561 638 544 693 q 595 520 578 583 q 626 399 613 457 q 651 297 640 342 q 665 235 661 251 q 672 366 669 294 q 677 512 675 438 q 682 657 679 586 q 689 788 685 728 q 700 845 692 824 q 721 878 708 867 q 750 893 733 889 q 786 897 767 897 q 853 879 835 897 q 872 821 872 861 q 867 738 872 797 q 855 601 863 678 q 839 440 847 525 q 823 278 831 354 q 810 147 815 203 q 803 72 804 90 q 774 -8 800 25 q 713 -40 747 -40 q 648 -33 669 -40 q 611 -11 626 -25 q 578 45 596 3 q 539 150 560 88 q 495 290 518 213 q 449 454 472 368 q 406 289 424 367 q 372 149 388 211 q 342 44 356 86 q 313 -11 328 3 q 270 -33 297 -25 q 224 -40 243 -40 q 194 -37 210 -40 q 164 -26 178 -35 q 138 -2 150 -18 q 121 40 126 14 z "},"X":{"ha":782,"x_min":-3,"x_max":775,"o":"m 44 76 q 74 129 50 90 q 130 219 97 168 q 200 326 163 269 q 271 433 238 383 q 243 479 263 446 q 200 554 224 513 q 151 642 176 596 q 106 725 125 688 l 58 721 q 13 746 28 718 q 0 817 -3 774 q 17 875 1 857 q 57 894 33 893 l 161 900 l 169 900 l 178 900 q 213 890 197 900 q 253 839 229 881 q 276 801 258 829 q 315 735 293 772 q 360 655 336 697 q 401 574 383 613 q 447 661 424 617 q 492 743 471 706 q 527 808 513 781 q 547 844 542 835 q 588 894 567 881 q 647 908 608 908 q 732 875 707 908 q 728 788 757 842 q 689 723 715 767 q 630 628 663 679 q 563 526 597 578 q 504 435 529 474 q 532 391 513 424 q 576 317 551 358 q 626 233 600 276 q 671 154 651 189 l 721 156 q 760 129 746 157 q 775 65 775 101 q 775 44 775 57 q 772 17 775 31 q 761 -6 768 4 q 739 -17 754 -15 l 617 -24 l 606 -24 q 560 -5 581 -21 q 525 36 539 11 q 508 67 524 40 q 471 133 493 94 q 424 217 449 172 q 379 300 400 261 q 326 203 354 254 q 274 110 299 153 q 231 36 249 67 q 208 0 213 6 q 183 -15 201 -10 q 146 -19 164 -19 q 72 -4 104 -19 q 40 60 40 11 q 44 76 40 68 z "},".":{"ha":358,"x_min":90,"x_max":294,"o":"m 294 101 q 267 25 294 56 q 188 -6 240 -6 q 120 19 150 -6 q 90 90 90 44 q 115 163 90 129 q 188 196 139 196 q 263 172 231 196 q 294 101 294 149 z "},",":{"ha":357,"x_min":69,"x_max":286,"o":"m 151 8 q 92 33 115 7 q 69 94 69 58 q 76 126 69 108 q 95 158 82 143 q 128 183 108 172 q 176 193 149 193 q 256 165 226 193 q 286 92 286 136 q 274 39 286 69 q 241 -19 261 8 q 194 -65 221 -46 q 139 -83 168 -83 q 115 -74 121 -83 q 108 -54 108 -64 q 125 -18 108 -31 q 151 8 142 -6 z "},":":{"ha":388,"x_min":90,"x_max":294,"o":"m 294 796 q 267 719 294 750 q 188 689 240 689 q 120 714 150 689 q 90 785 90 739 q 115 857 90 824 q 188 890 139 890 q 263 867 231 890 q 294 796 294 843 m 294 101 q 267 25 294 56 q 188 -6 240 -6 q 120 19 150 -6 q 90 90 90 44 q 115 163 90 129 q 188 196 139 196 q 263 172 231 196 q 294 101 294 149 z "},";":{"ha":363,"x_min":69,"x_max":294,"o":"m 294 796 q 267 719 294 750 q 188 689 240 689 q 120 714 150 689 q 90 785 90 739 q 115 857 90 824 q 188 890 139 890 q 263 867 231 890 q 294 796 294 843 m 151 8 q 92 33 115 7 q 69 94 69 58 q 76 126 69 108 q 95 158 82 143 q 128 183 108 172 q 176 193 149 193 q 256 165 226 193 q 286 92 286 136 q 274 39 286 69 q 241 -19 261 8 q 194 -65 221 -46 q 139 -83 168 -83 q 115 -74 121 -83 q 108 -54 108 -64 q 125 -18 108 -31 q 151 8 142 -6 z "},"-":{"ha":711,"x_min":100,"x_max":624,"o":"m 575 485 q 605 476 594 485 q 619 458 615 468 q 624 436 624 447 q 624 418 624 425 q 609 369 624 390 q 572 346 594 349 q 547 348 560 347 q 513 349 533 349 q 460 349 492 349 q 379 349 428 349 q 333 348 361 349 q 274 347 304 347 q 216 347 244 347 q 168 346 188 346 q 129 351 143 346 q 109 363 115 356 q 101 382 103 371 q 100 406 100 393 q 108 459 100 438 q 153 481 115 481 l 397 481 q 431 481 410 481 q 478 483 453 482 q 528 484 503 483 q 575 485 554 485 z "},"+":{"ha":831,"x_min":151,"x_max":678,"o":"m 208 393 q 164 412 176 393 q 151 457 151 431 q 163 506 151 483 q 201 529 175 529 q 253 529 232 529 q 288 529 274 529 q 314 530 303 529 q 338 531 325 531 q 339 600 340 567 q 338 668 338 633 q 345 699 338 688 q 365 717 353 710 q 390 726 376 724 q 418 728 404 728 q 472 717 446 728 q 499 674 499 706 q 498 603 499 638 q 496 532 497 568 q 516 532 507 532 q 537 533 525 532 q 566 533 549 533 q 610 533 583 533 q 666 513 654 533 q 678 463 678 492 q 667 415 678 433 q 629 396 656 396 l 499 396 q 500 333 501 364 q 499 269 499 301 q 490 236 499 249 q 469 217 482 224 q 442 209 457 211 q 415 207 428 207 q 360 217 386 207 q 335 256 335 226 q 335 325 335 290 q 338 394 336 360 q 289 393 315 393 q 208 393 263 393 z "},"*":{"ha":558,"x_min":63,"x_max":493,"o":"m 81 643 q 69 669 75 656 q 63 696 64 683 q 69 719 63 708 q 90 735 75 729 q 103 738 94 736 q 120 740 111 739 q 138 743 129 742 q 149 746 146 744 q 136 749 144 747 q 118 752 128 750 q 100 756 108 754 q 89 758 92 757 q 69 776 75 765 q 65 800 64 788 q 71 825 65 813 q 82 847 76 838 q 106 879 90 863 q 142 896 122 896 q 160 890 150 896 q 183 874 171 883 q 206 857 194 864 q 203 890 203 871 q 203 921 203 908 q 210 946 203 936 q 229 961 218 956 q 253 969 240 967 q 276 971 265 971 q 300 969 288 971 q 324 962 313 967 q 344 949 336 957 q 351 926 351 940 q 351 891 351 911 q 350 856 351 871 l 363 864 l 386 882 l 399 890 q 415 896 410 896 q 451 879 435 896 q 475 847 467 863 q 487 825 482 838 q 492 800 492 813 q 488 776 493 788 q 469 758 483 765 q 457 756 467 757 q 437 752 447 754 q 417 749 426 750 q 404 746 407 747 q 416 743 407 744 q 435 740 425 742 q 454 738 446 739 q 465 735 463 736 q 488 712 482 725 q 492 685 493 699 q 485 660 490 672 q 475 639 479 647 q 451 606 464 619 q 422 593 438 593 q 403 599 413 593 q 384 614 393 606 q 368 631 375 622 q 357 643 361 639 q 355 613 357 632 q 353 585 353 593 q 333 547 351 556 q 272 538 314 538 q 227 546 247 538 q 207 578 207 554 l 207 644 q 181 620 196 636 q 153 597 167 604 q 136 593 144 593 q 81 643 108 593 z "},"^":{"ha":631,"x_min":67,"x_max":554,"o":"m 139 518 q 119 521 131 518 q 95 529 107 524 q 75 543 83 535 q 67 564 67 551 q 75 590 67 571 q 97 636 83 610 q 126 694 110 663 q 161 756 143 725 q 254 919 201 829 q 278 950 265 940 q 314 960 290 960 q 344 949 329 960 q 367 922 358 938 q 460 756 411 842 q 549 589 508 671 q 554 567 554 575 q 547 547 554 556 q 531 533 540 539 q 510 524 521 526 q 493 521 500 521 q 475 522 486 521 q 453 527 464 524 q 432 536 442 531 q 418 550 422 542 q 359 662 382 615 q 311 753 336 708 q 256 646 279 694 q 203 547 233 597 q 173 525 193 532 q 139 518 153 518 z "},"˜":{"ha":533,"x_min":65,"x_max":479,"o":"m 429 1160 q 465 1139 451 1160 q 479 1082 479 1118 q 471 1029 479 1054 q 448 985 463 1004 q 413 956 433 967 q 368 944 393 944 q 315 955 338 944 q 275 978 293 965 q 241 1001 257 990 q 207 1011 225 1011 q 176 997 183 1011 q 169 972 169 983 q 157 953 169 961 q 125 944 144 944 q 83 967 101 944 q 65 1033 65 989 q 74 1081 65 1058 q 100 1122 83 1104 q 138 1150 117 1139 q 185 1161 160 1161 q 238 1149 214 1161 q 282 1124 261 1138 q 320 1099 303 1111 q 353 1088 338 1088 q 367 1094 363 1088 q 376 1108 372 1100 q 382 1126 379 1117 q 390 1143 385 1136 q 429 1160 403 1160 z "},"/":{"ha":611,"x_min":60,"x_max":564,"o":"m 256 54 q 226 -12 240 14 q 198 -53 211 -37 q 172 -74 185 -68 q 146 -79 158 -79 q 88 -58 117 -79 q 60 -6 60 -37 q 69 42 60 10 q 94 115 79 74 q 127 202 108 156 q 164 294 146 249 q 198 378 182 339 q 224 444 214 418 q 258 537 236 478 q 301 656 279 596 q 342 766 324 717 q 364 828 360 815 q 394 892 379 868 q 422 930 408 917 q 449 947 436 943 q 474 951 463 951 q 536 938 508 951 q 564 889 564 925 q 561 865 564 878 q 554 842 558 853 q 540 804 551 836 q 510 726 528 772 q 472 627 492 681 q 433 524 451 574 q 399 436 414 475 q 378 381 383 397 q 349 303 368 356 q 309 198 329 251 q 274 102 289 144 q 256 54 258 60 z "},"<":{"ha":700,"x_min":103,"x_max":601,"o":"m 307 258 q 260 285 293 267 q 192 328 226 303 q 130 381 157 353 q 103 439 103 410 q 128 495 103 468 q 189 546 154 522 q 257 586 224 569 q 304 611 290 603 q 412 670 356 639 q 518 729 468 701 q 547 739 535 739 q 567 731 558 739 q 583 708 576 722 q 594 678 590 694 q 599 647 599 663 q 588 605 599 622 q 563 579 576 588 q 435 501 496 538 q 314 433 374 465 q 378 396 347 413 q 440 363 410 379 q 502 330 471 347 q 567 292 533 313 q 591 265 581 282 q 601 225 601 249 q 585 167 601 194 q 547 139 568 139 q 504 154 538 139 q 431 190 471 169 q 356 231 392 211 q 307 258 321 250 z "},">":{"ha":736,"x_min":103,"x_max":601,"o":"m 397 258 q 348 231 383 250 q 273 190 313 211 q 200 154 233 169 q 157 139 167 139 q 119 167 136 139 q 103 225 103 194 q 113 265 103 249 q 138 292 124 282 q 202 330 171 313 q 264 363 233 347 q 326 396 294 379 q 390 433 357 413 q 269 501 331 465 q 142 579 208 538 q 117 605 128 588 q 106 647 106 622 q 110 678 106 663 q 121 708 114 694 q 138 731 128 722 q 157 739 147 739 q 186 729 169 739 q 292 670 236 701 q 400 611 349 639 q 448 586 415 603 q 515 546 481 569 q 576 495 550 522 q 601 439 601 468 q 574 381 601 410 q 513 328 547 353 q 444 285 478 303 q 397 258 411 267 z "},"=":{"ha":828,"x_min":117,"x_max":697,"o":"m 621 614 q 661 603 646 614 q 685 579 676 593 q 695 551 693 565 q 697 526 697 536 q 685 490 697 504 q 631 475 672 475 q 593 475 625 475 q 524 476 561 475 q 452 476 486 476 q 410 476 418 476 q 363 476 394 476 q 298 474 332 475 q 235 473 264 474 q 194 472 206 472 q 131 488 144 472 q 117 529 117 503 q 119 558 117 543 q 130 583 122 572 q 150 602 138 594 q 183 610 163 610 q 203 610 186 610 q 246 610 221 610 q 300 609 271 610 q 354 608 329 608 q 397 608 379 608 q 419 608 415 608 q 460 609 431 608 q 522 611 489 610 q 584 613 556 613 q 621 614 613 614 m 622 418 q 662 410 647 418 q 685 390 676 401 q 695 365 693 378 q 697 342 697 351 q 694 319 697 331 q 684 299 692 308 q 663 285 676 290 q 628 279 650 279 q 592 279 624 279 q 522 278 561 279 q 449 278 483 278 q 401 278 414 278 q 360 278 389 278 q 299 277 331 278 q 240 276 267 276 q 207 276 214 276 q 160 282 178 276 q 132 297 142 288 q 119 316 122 306 q 117 336 117 326 q 119 360 117 347 q 130 385 122 374 q 150 406 138 397 q 183 414 163 414 q 203 414 186 414 q 246 414 221 414 q 300 413 271 414 q 354 413 329 413 q 397 413 379 413 q 419 413 415 413 q 460 413 431 413 q 524 415 490 414 q 585 417 557 417 q 622 418 614 418 z "},"!":{"ha":408,"x_min":100,"x_max":311,"o":"m 111 856 q 134 906 111 888 q 197 925 157 925 q 229 922 210 925 q 267 913 249 919 q 298 893 285 906 q 311 861 311 881 q 304 712 311 786 q 290 563 297 638 q 275 415 282 489 q 268 265 268 340 q 246 219 268 235 q 192 204 224 204 q 126 263 126 204 q 119 558 126 413 q 111 856 111 704 m 292 78 q 285 44 292 63 q 267 12 279 26 q 236 -12 254 -3 q 193 -22 218 -22 q 128 1 157 -22 q 100 67 100 24 q 122 130 100 103 q 192 157 144 157 q 262 135 232 157 q 292 78 292 114 z "},"?":{"ha":650,"x_min":42,"x_max":610,"o":"m 194 629 q 178 598 194 611 q 139 583 161 585 q 110 588 126 583 q 78 602 93 592 q 54 628 64 613 q 43 667 44 644 q 66 769 42 724 q 131 848 90 815 q 221 899 171 881 q 319 917 271 917 q 522 858 443 917 q 607 686 601 799 q 588 585 610 626 q 533 513 567 544 q 461 456 500 482 q 391 401 422 431 q 341 335 360 372 q 329 244 322 299 q 324 224 331 232 q 308 211 318 215 q 287 205 299 207 q 265 203 275 203 q 215 212 240 203 q 186 251 189 221 q 199 357 182 313 q 243 435 215 401 q 304 497 271 469 q 366 552 338 525 q 413 610 394 579 q 431 682 432 642 q 419 734 429 714 q 392 765 408 754 q 359 781 376 776 q 325 785 342 785 q 269 769 293 785 q 228 731 244 754 q 203 680 211 707 q 194 629 194 653 m 357 89 q 351 58 357 75 q 332 26 344 40 q 301 1 319 11 q 258 -8 282 -8 q 196 15 222 -8 q 169 79 169 38 q 190 139 169 113 q 257 165 211 165 q 326 145 296 165 q 357 89 357 125 z "},"'":{"ha":285,"x_min":46,"x_max":228,"o":"m 46 894 q 67 940 46 921 q 133 958 89 958 q 164 956 147 958 q 194 947 181 953 q 218 928 208 940 q 228 897 228 917 q 224 864 228 886 q 217 816 221 842 q 209 765 213 790 q 206 722 206 739 q 184 668 206 681 q 135 656 163 656 q 75 675 90 656 q 60 719 60 694 q 58 756 60 731 q 53 810 56 782 q 48 862 50 838 q 46 894 46 886 z "},"\"":{"ha":461,"x_min":46,"x_max":436,"o":"m 46 894 q 67 940 46 921 q 133 958 89 958 q 164 956 147 958 q 194 947 181 953 q 218 928 208 940 q 228 897 228 917 q 224 864 228 886 q 217 816 221 842 q 209 765 213 790 q 206 722 206 739 q 184 668 206 681 q 135 656 163 656 q 75 675 90 656 q 60 719 60 694 q 58 756 60 731 q 53 810 56 782 q 48 862 50 838 q 46 894 46 886 m 254 894 q 276 940 254 921 q 342 958 297 958 q 372 956 356 958 q 403 947 389 953 q 426 928 417 940 q 436 897 436 917 q 433 864 436 886 q 425 816 429 842 q 417 765 421 790 q 414 722 414 739 q 392 668 414 681 q 343 656 371 656 q 283 675 299 656 q 268 719 268 694 q 266 756 268 731 q 261 810 264 782 q 256 862 258 838 q 254 894 254 886 z "},"#":{"ha":972,"x_min":28,"x_max":899,"o":"m 186 226 q 140 226 167 226 q 90 231 114 225 q 48 250 65 236 q 29 292 31 264 q 38 337 28 318 q 78 356 47 356 q 95 356 86 356 q 113 357 104 357 l 179 357 l 214 357 q 228 425 221 392 q 240 494 235 458 q 190 492 222 494 q 124 494 157 490 q 67 513 92 499 q 42 558 43 526 q 59 606 39 590 q 110 624 79 622 q 187 624 149 625 q 264 622 225 624 q 275 690 268 646 q 294 778 282 733 q 326 856 307 822 q 376 889 346 889 q 430 874 406 890 q 457 825 454 857 q 455 774 458 801 q 446 720 451 747 q 433 667 440 693 q 422 617 426 640 q 515 615 468 615 q 608 614 563 614 q 615 657 611 631 q 625 713 619 683 q 638 773 631 743 q 658 827 646 803 q 686 867 669 851 q 725 882 703 882 q 778 863 754 883 q 804 814 803 843 q 801 774 806 800 q 791 719 797 747 q 778 664 785 690 q 769 622 772 638 q 804 619 783 621 q 846 611 825 617 q 881 594 867 606 q 897 564 896 583 q 874 510 899 531 q 817 490 849 490 q 738 490 778 489 q 722 422 729 456 q 708 354 715 389 q 750 351 724 354 q 803 341 776 349 q 849 321 829 333 q 871 288 869 308 q 851 236 874 249 q 794 222 829 224 l 769 222 l 718 222 l 693 222 q 684 155 689 192 q 667 85 679 118 q 631 30 654 53 q 567 7 608 7 q 506 64 508 4 q 512 146 503 104 q 529 226 521 188 q 439 227 485 229 q 349 226 393 225 q 338 160 343 199 q 320 86 332 121 q 287 26 308 51 q 226 0 265 1 q 180 13 199 0 q 158 54 161 25 q 167 140 156 94 q 186 226 179 186 m 371 354 q 464 351 418 351 q 556 353 510 351 q 572 423 565 389 q 586 493 579 457 l 492 496 q 444 497 468 497 q 397 497 421 497 q 383 426 390 461 q 371 354 376 390 z "},"@":{"ha":1046,"x_min":54,"x_max":1011,"o":"m 54 403 q 87 595 54 501 q 183 761 119 689 q 340 877 246 833 q 557 921 435 921 q 744 889 660 921 q 887 802 828 857 q 978 675 946 747 q 1011 522 1011 603 q 990 374 1011 439 q 931 265 968 310 q 842 196 893 219 q 735 172 792 172 q 659 204 690 172 q 617 276 628 236 q 592 229 607 251 q 560 189 578 207 q 522 160 543 171 q 481 150 501 150 q 413 167 446 150 q 353 215 379 183 q 313 293 328 246 q 297 400 297 340 q 317 514 297 457 q 372 615 338 571 q 454 688 407 660 q 556 715 501 715 q 713 671 660 715 q 767 550 767 626 q 763 510 767 535 q 755 456 760 485 q 747 399 750 428 q 743 346 743 369 q 748 317 743 325 q 772 310 753 310 q 803 327 788 310 q 832 374 819 344 q 853 441 844 403 q 861 522 861 479 q 838 631 861 582 q 774 716 814 681 q 680 771 733 751 q 567 790 626 790 q 430 763 494 790 q 317 683 365 735 q 241 560 269 632 q 213 399 213 488 q 247 227 213 290 q 330 131 281 164 q 434 89 379 99 q 529 79 489 79 l 708 124 q 767 122 746 133 q 792 88 788 110 q 777 18 801 39 q 719 -10 753 -3 l 535 -47 q 435 -40 489 -47 q 328 -15 382 -33 q 226 35 275 3 q 138 117 176 67 q 77 237 100 167 q 54 403 54 307 m 588 614 q 537 592 561 614 q 494 535 513 569 q 466 462 476 501 q 456 389 456 422 q 472 319 456 344 q 503 294 489 294 q 540 326 521 294 q 576 401 560 357 q 603 496 593 446 q 614 583 614 546 q 588 614 614 614 z "},"$":{"ha":657,"x_min":36,"x_max":613,"o":"m 215 163 q 257 120 224 139 q 331 101 290 101 q 397 126 374 101 q 419 185 419 150 q 392 237 419 214 q 323 284 364 260 q 234 335 282 308 q 145 400 186 363 q 76 487 104 438 q 49 603 49 536 q 107 774 49 700 q 261 893 165 849 l 261 925 q 284 969 261 953 q 343 986 307 986 q 369 984 354 986 q 396 976 383 982 q 417 958 408 969 q 426 931 426 947 q 426 906 426 925 q 424 856 425 886 q 503 813 469 840 q 558 754 538 786 q 588 690 579 722 q 592 631 596 657 l 575 522 q 562 500 574 510 q 534 484 550 490 q 500 476 518 478 q 467 479 482 475 q 425 499 443 485 q 410 533 407 514 l 424 631 q 401 688 428 661 q 335 715 374 715 q 265 681 294 715 q 235 599 235 647 q 263 524 235 554 q 333 469 290 493 q 424 422 375 444 q 515 369 472 399 q 585 297 557 339 q 613 196 613 256 q 598 117 613 153 q 557 51 583 81 q 496 1 531 22 q 419 -32 461 -19 q 420 -63 419 -51 q 421 -79 421 -75 q 397 -137 421 -117 q 332 -158 374 -158 q 247 -75 247 -158 q 248 -61 247 -71 q 249 -36 249 -51 q 140 7 188 -22 q 82 72 93 36 l 44 190 q 44 251 36 217 q 89 300 51 285 q 147 303 121 311 q 178 279 172 294 l 215 163 z "},"€":{"ha":728,"x_min":28,"x_max":667,"o":"m 407 394 q 438 388 426 394 q 454 373 449 382 q 462 354 460 364 q 464 338 464 344 q 454 306 464 321 q 411 290 444 290 q 399 290 410 290 q 371 290 388 290 q 335 289 354 289 q 297 289 315 289 q 335 158 307 200 q 408 117 363 117 q 478 143 449 117 q 507 208 507 169 q 589 268 507 268 q 644 251 628 268 q 660 189 660 233 q 640 96 660 139 q 586 22 621 53 q 504 -28 551 -10 q 401 -46 457 -46 q 201 40 276 -46 q 100 288 126 125 q 75 289 88 288 q 52 295 63 290 q 35 309 42 300 q 28 333 28 318 q 30 351 28 342 q 38 370 32 361 q 53 385 43 379 q 78 392 63 392 l 97 392 l 97 422 l 97 435 l 86 435 q 38 447 49 435 q 28 478 28 458 q 38 519 28 499 q 78 539 47 539 l 104 539 q 200 808 124 713 q 406 904 276 904 q 560 859 500 904 q 631 733 619 814 l 658 531 q 567 471 667 471 q 517 478 533 471 q 497 504 500 485 l 464 690 q 410 739 456 739 q 338 687 365 739 q 297 539 310 635 q 331 540 314 539 q 364 540 349 540 q 391 541 379 540 q 407 542 403 542 q 438 534 426 542 q 454 516 449 526 q 462 494 460 506 q 464 476 464 483 q 455 449 464 460 q 414 438 446 438 l 292 438 l 292 404 q 290 392 292 396 q 324 392 306 392 q 360 393 343 393 q 390 394 376 393 q 407 394 403 394 z "},"%":{"ha":1294,"x_min":74,"x_max":1221,"o":"m 314 413 q 138 485 203 413 q 74 682 74 557 q 84 776 74 726 q 122 866 94 825 q 199 934 150 907 q 325 961 249 961 q 441 939 394 961 q 516 880 488 917 q 557 796 544 843 q 569 697 569 749 q 549 572 569 625 q 494 483 529 518 q 413 430 458 447 q 314 413 367 413 m 511 58 q 472 -3 490 21 q 439 -39 454 -26 q 410 -56 424 -51 q 383 -58 396 -60 q 329 -30 354 -54 q 308 26 304 -6 q 326 72 311 42 q 363 142 340 103 q 411 227 385 182 q 463 315 438 272 q 512 394 489 357 q 547 457 535 432 q 576 512 558 478 q 616 585 594 546 q 659 666 638 625 q 699 742 681 707 q 732 803 718 778 q 750 838 746 829 q 789 897 771 875 q 823 930 807 919 q 852 942 839 940 q 876 943 865 944 q 937 921 911 938 q 957 869 963 904 q 950 846 954 858 q 940 824 946 833 q 920 787 938 818 q 878 710 903 756 q 824 613 853 665 q 767 511 794 560 q 719 425 740 463 q 690 372 699 388 q 666 328 682 357 q 631 266 650 300 q 591 197 611 232 q 553 132 571 161 q 524 83 536 103 q 511 58 513 63 m 231 678 q 235 620 231 651 q 249 562 239 589 q 276 517 258 535 q 319 499 293 499 q 365 517 346 499 q 394 565 383 536 q 411 626 406 593 q 417 686 417 658 q 413 738 417 707 q 399 798 410 769 q 371 847 389 826 q 325 867 353 867 q 255 812 279 867 q 231 678 231 757 m 961 -42 q 780 28 839 -42 q 721 214 721 99 q 733 315 721 264 q 774 410 744 367 q 854 480 804 453 q 979 507 904 507 q 1098 481 1051 507 q 1172 415 1144 456 q 1210 324 1199 374 q 1221 226 1221 275 q 1202 106 1221 157 q 1149 23 1183 56 q 1067 -26 1114 -10 q 961 -42 1019 -42 m 875 225 q 877 171 875 201 q 889 113 879 140 q 917 66 899 85 q 968 47 935 47 q 1023 67 1003 47 q 1053 116 1043 88 q 1067 176 1064 144 q 1069 229 1069 207 q 1066 290 1069 257 q 1053 350 1063 322 q 1025 397 1043 378 q 978 415 1007 415 q 900 363 925 415 q 875 225 875 311 z "},"&":{"ha":869,"x_min":94,"x_max":831,"o":"m 581 458 q 605 490 582 482 q 651 499 628 499 q 677 497 664 499 q 701 492 690 496 q 719 480 713 488 q 725 460 726 472 l 714 313 q 705 252 711 282 q 688 194 699 222 q 695 188 692 192 q 703 182 699 185 l 817 83 q 824 44 831 71 q 801 -6 818 18 q 760 -41 783 -29 q 715 -36 736 -53 l 599 61 q 498 -10 554 17 q 378 -36 442 -36 q 278 -19 328 -36 q 187 31 228 -1 q 120 110 146 64 q 94 211 94 156 q 135 342 94 289 q 239 443 176 394 q 183 551 206 492 q 160 694 160 610 q 183 787 160 743 q 245 863 207 831 q 334 915 283 896 q 439 935 385 935 q 509 928 474 935 q 576 908 544 921 q 630 873 607 894 q 663 822 653 851 l 697 714 q 683 673 704 690 q 631 651 661 656 q 571 658 600 646 q 533 704 542 669 l 519 767 q 493 797 515 786 q 440 808 471 808 q 389 797 410 808 q 356 767 368 785 q 340 729 344 750 q 335 690 335 708 q 356 578 335 632 q 410 474 376 524 q 488 378 444 424 q 574 293 531 333 q 578 335 578 314 l 581 458 m 321 335 q 284 280 294 306 q 274 217 274 254 q 309 136 274 161 q 397 111 344 111 q 453 121 428 111 q 499 147 478 131 q 402 239 447 192 q 321 335 357 286 z "},"(":{"ha":506,"x_min":81,"x_max":489,"o":"m 81 393 q 88 560 81 472 q 116 726 94 647 q 177 865 138 804 q 281 954 217 926 l 410 1010 q 433 1009 421 1014 q 456 992 444 1004 q 476 960 468 979 q 488 918 485 942 q 474 886 489 896 q 440 865 458 876 l 369 822 q 303 742 326 796 q 269 624 281 688 q 256 494 258 560 q 254 381 254 429 q 258 298 254 343 q 272 209 261 253 q 300 128 282 165 q 347 68 318 92 l 464 -22 q 476 -61 476 -33 q 463 -110 476 -89 q 428 -140 450 -129 q 378 -133 406 -151 l 249 -50 q 176 26 207 -22 q 123 133 144 74 q 91 260 101 193 q 81 393 81 328 z "},")":{"ha":496,"x_min":43,"x_max":453,"o":"m 453 393 q 442 260 453 328 q 411 133 432 193 q 358 25 390 74 q 285 -50 326 -24 l 156 -133 q 106 -140 128 -151 q 71 -110 83 -129 q 57 -61 57 -89 q 69 -22 57 -33 l 186 68 q 233 128 215 92 q 262 209 251 165 q 276 298 272 253 q 279 381 279 343 q 277 494 279 429 q 264 624 275 560 q 230 742 253 688 q 164 822 207 796 l 93 865 q 59 886 75 876 q 46 918 43 896 q 57 960 49 942 q 76 992 65 979 q 101 1009 88 1004 q 124 1010 114 1014 l 253 954 q 356 865 317 926 q 417 726 396 804 q 446 560 439 647 q 453 393 453 472 z "},"{":{"ha":388,"x_min":0,"x_max":364,"o":"m 286 1042 q 318 1034 301 1049 q 346 999 335 1019 q 360 958 357 978 q 351 933 364 939 l 279 903 q 255 861 257 893 q 258 786 253 829 q 272 694 264 743 q 281 601 281 644 q 269 523 281 553 q 244 476 258 493 q 219 449 231 458 q 208 431 208 439 q 221 409 208 422 q 248 376 233 396 q 274 331 263 357 q 286 269 286 304 q 273 190 286 232 q 251 108 260 147 q 244 38 242 69 q 281 -11 247 6 l 339 -40 q 346 -63 347 -44 q 335 -102 344 -82 q 310 -136 326 -122 q 274 -144 294 -150 l 224 -131 q 134 -86 165 -114 q 91 -24 103 -58 q 82 49 79 10 q 92 128 85 89 q 108 203 100 167 q 117 271 117 240 q 99 335 117 315 q 58 367 81 356 q 18 389 36 379 q 0 421 0 399 q 18 456 0 443 q 58 484 36 468 q 99 526 81 500 q 117 599 117 551 q 108 698 117 639 q 101 817 99 757 q 127 931 103 878 q 218 1013 151 983 l 286 1042 z "},"}":{"ha":403,"x_min":10,"x_max":374,"o":"m 156 1013 q 247 931 222 983 q 273 817 271 878 q 266 698 275 757 q 257 599 257 639 q 275 526 257 551 q 315 484 293 500 q 356 456 338 468 q 374 421 374 443 q 356 389 374 399 q 315 367 338 379 q 275 335 293 356 q 257 271 257 315 q 265 203 257 240 q 281 128 274 167 q 292 49 289 89 q 283 -24 294 10 q 240 -86 271 -58 q 150 -131 208 -114 l 100 -144 q 63 -136 79 -150 q 38 -102 47 -122 q 28 -63 29 -82 q 35 -40 26 -44 l 93 -11 q 129 38 126 6 q 123 108 132 69 q 101 190 114 147 q 88 269 88 232 q 100 331 88 304 q 127 376 113 357 q 153 409 142 396 q 165 431 165 422 q 154 449 165 439 q 129 476 143 458 q 104 523 115 493 q 93 601 93 553 q 101 694 93 644 q 115 786 110 743 q 119 861 121 829 q 94 903 117 893 l 22 933 q 13 958 10 939 q 28 999 17 978 q 56 1034 39 1019 q 88 1042 74 1049 l 156 1013 z "},"|":{"ha":464,"x_min":140,"x_max":322,"o":"m 158 1000 q 181 1044 158 1028 q 239 1061 203 1061 q 265 1059 250 1061 q 292 1051 279 1057 q 314 1033 306 1044 q 322 1006 322 1022 l 318 901 q 315 802 317 867 q 310 659 313 738 q 306 495 308 581 q 303 335 304 410 q 303 201 303 260 q 304 118 303 143 l 317 -79 q 295 -137 319 -117 q 229 -158 271 -158 q 163 -137 186 -158 q 143 -75 140 -115 l 154 118 q 155 173 154 125 q 156 293 156 221 q 156 452 156 365 q 157 622 157 539 q 158 776 157 706 q 158 885 158 846 l 158 1000 z "},"[":{"ha":460,"x_min":85,"x_max":439,"o":"m 117 -135 q 96 -122 103 -135 q 87 -92 89 -110 q 85 -58 85 -75 q 85 -31 85 -40 q 91 438 85 207 q 97 906 97 668 q 110 991 97 967 q 171 1015 124 1015 l 374 1017 q 408 1008 394 1017 q 428 989 421 1000 q 437 965 435 978 q 439 946 439 953 q 437 926 439 938 q 429 905 435 915 q 413 888 424 894 q 388 881 403 881 l 274 886 q 259 882 269 886 q 249 871 249 878 q 247 667 249 774 q 243 450 244 560 q 242 233 242 340 q 247 26 243 125 q 253 14 247 18 q 267 8 260 10 q 283 5 275 6 q 292 4 290 4 l 376 4 q 420 -21 410 4 q 431 -82 431 -46 q 410 -128 431 -118 q 349 -137 390 -139 l 264 -135 l 117 -135 z "},"]":{"ha":444,"x_min":42,"x_max":396,"o":"m 364 -135 l 217 -135 l 132 -137 q 70 -128 90 -139 q 50 -82 50 -118 q 60 -21 50 -46 q 104 4 71 4 l 189 4 q 199 5 192 4 q 213 8 206 6 q 227 14 221 10 q 233 26 233 18 q 238 233 238 125 q 238 450 239 340 q 234 667 236 560 q 232 871 232 774 q 222 882 232 878 q 207 886 211 886 l 93 881 q 67 888 78 881 q 51 905 57 894 q 44 926 46 915 q 42 946 42 938 q 44 965 42 953 q 53 989 46 978 q 73 1008 60 1000 q 107 1017 86 1017 l 310 1015 q 348 1010 333 1015 q 370 991 363 1004 q 381 957 378 978 q 383 906 383 936 q 390 438 383 668 q 396 -31 396 207 q 396 -58 396 -40 q 394 -92 396 -75 q 385 -122 392 -110 q 364 -135 378 -135 z "},"\\":{"ha":576,"x_min":39,"x_max":543,"o":"m 347 54 q 338 79 346 58 q 319 131 331 100 q 293 198 307 161 q 266 269 279 235 q 242 334 253 304 q 225 381 231 364 q 204 436 219 397 q 170 524 189 475 q 131 627 151 574 q 93 726 111 681 q 63 804 75 772 q 49 842 51 836 q 42 865 44 853 q 39 889 39 878 q 67 938 39 925 q 129 951 94 951 q 153 947 140 951 q 181 930 167 943 q 209 892 194 917 q 239 828 224 868 q 261 766 243 815 q 301 656 279 717 q 345 537 324 596 q 379 444 367 478 q 405 378 389 418 q 439 294 421 339 q 476 202 457 249 q 509 115 494 156 q 533 42 524 74 q 543 -6 543 10 q 515 -58 543 -37 q 457 -79 486 -79 q 431 -74 444 -79 q 405 -53 418 -68 q 377 -12 392 -37 q 347 54 363 14 z "},"‘":{"ha":274,"x_min":31,"x_max":247,"o":"m 165 911 q 224 887 201 913 q 247 825 247 861 q 241 794 247 811 q 222 762 235 776 q 188 737 208 747 q 140 726 168 726 q 60 755 90 726 q 31 828 31 783 q 43 881 31 851 q 76 938 56 911 q 122 984 96 965 q 178 1003 149 1003 q 202 993 196 1003 q 208 974 208 983 q 192 938 208 950 q 165 911 175 925 z "},"’":{"ha":292,"x_min":31,"x_max":247,"o":"m 113 818 q 53 842 76 817 q 31 904 31 868 q 37 935 31 918 q 56 967 43 953 q 90 992 69 982 q 138 1003 110 1003 q 217 974 188 1003 q 247 901 247 946 q 235 849 247 879 q 202 791 222 818 q 156 745 182 764 q 100 726 129 726 q 76 736 82 726 q 69 756 69 746 q 86 792 69 779 q 113 818 103 804 z "},"“":{"ha":506,"x_min":31,"x_max":478,"o":"m 396 911 q 455 887 432 913 q 478 825 478 861 q 472 794 478 811 q 452 762 465 776 q 419 737 439 747 q 371 726 399 726 q 291 755 321 726 q 261 828 261 783 q 274 881 261 851 q 306 938 286 911 q 353 984 326 965 q 408 1003 379 1003 q 433 993 426 1003 q 439 974 439 983 q 422 938 439 950 q 396 911 406 925 m 165 911 q 224 887 201 913 q 247 825 247 861 q 241 794 247 811 q 222 762 235 776 q 188 737 208 747 q 140 726 168 726 q 60 755 90 726 q 31 828 31 783 q 43 881 31 851 q 76 938 56 911 q 122 984 96 965 q 178 1003 149 1003 q 202 993 196 1003 q 208 974 208 983 q 192 938 208 950 q 165 911 175 925 z "},"”":{"ha":499,"x_min":31,"x_max":478,"o":"m 113 818 q 53 842 76 817 q 31 904 31 868 q 37 935 31 918 q 56 967 43 953 q 90 992 69 982 q 138 1003 110 1003 q 217 974 188 1003 q 247 901 247 946 q 235 849 247 879 q 202 791 222 818 q 156 745 182 764 q 100 726 129 726 q 76 736 82 726 q 69 756 69 746 q 86 792 69 779 q 113 818 103 804 m 343 818 q 284 842 307 817 q 261 904 261 868 q 267 935 261 918 q 287 967 274 953 q 320 992 300 982 q 368 1003 340 1003 q 448 974 418 1003 q 478 901 478 946 q 465 849 478 879 q 433 791 453 818 q 386 745 413 764 q 331 726 360 726 q 306 736 313 726 q 300 756 300 746 q 317 792 300 779 q 343 818 333 804 z "},"‚":{"ha":328,"x_min":31,"x_max":247,"o":"m 113 0 q 53 24 76 -1 q 31 86 31 50 q 37 117 31 100 q 56 149 43 135 q 90 174 69 164 q 138 185 110 185 q 217 156 188 185 q 247 83 247 128 q 235 31 247 61 q 202 -27 222 0 q 156 -73 182 -54 q 100 -92 129 -92 q 76 -82 82 -92 q 69 -62 69 -72 q 86 -26 69 -39 q 113 0 103 -14 z "},"„":{"ha":506,"x_min":31,"x_max":478,"o":"m 343 6 q 284 30 307 4 q 261 92 261 56 q 267 123 261 106 q 287 155 274 140 q 320 180 300 169 q 368 190 340 190 q 448 162 418 190 q 478 89 478 133 q 465 36 478 67 q 433 -22 453 6 q 386 -67 413 -49 q 331 -86 360 -86 q 306 -76 313 -86 q 300 -57 300 -67 q 317 -21 300 -33 q 343 6 333 -8 m 113 6 q 53 30 76 4 q 31 92 31 56 q 37 123 31 106 q 56 155 43 140 q 90 180 69 169 q 138 190 110 190 q 217 162 188 190 q 247 89 247 133 q 235 36 247 67 q 202 -22 222 6 q 156 -67 182 -49 q 100 -86 129 -86 q 76 -76 82 -86 q 69 -57 69 -67 q 86 -21 69 -33 q 113 6 103 -8 z "},"•":{"ha":485,"x_min":115,"x_max":390,"o":"m 390 469 q 383 422 390 447 q 358 376 375 397 q 315 342 342 356 q 253 328 289 328 q 157 363 199 328 q 115 464 115 399 q 148 557 115 517 q 251 597 181 597 q 351 560 313 597 q 390 469 390 524 z "},"_":{"ha":690,"x_min":69,"x_max":621,"o":"m 572 4 q 602 -4 592 4 q 617 -23 613 -12 q 621 -45 621 -33 q 621 -62 621 -57 q 606 -112 621 -90 q 569 -135 592 -135 q 544 -134 557 -135 q 510 -133 531 -133 q 457 -133 489 -133 q 376 -132 425 -132 q 326 -133 358 -132 q 258 -133 293 -133 q 190 -134 222 -133 q 138 -135 157 -135 q 99 -130 113 -135 q 78 -117 85 -125 q 71 -99 72 -110 q 69 -75 69 -87 q 77 -22 69 -43 q 122 0 85 0 l 394 0 q 428 1 407 0 q 475 2 450 1 q 526 3 500 3 q 572 4 551 4 z "},"–":{"ha":789,"x_min":100,"x_max":693,"o":"m 644 485 q 674 476 664 485 q 689 458 685 468 q 693 436 693 447 q 693 418 693 425 q 678 369 693 390 q 642 346 664 349 q 616 348 629 347 q 582 349 603 349 q 529 349 561 349 q 449 349 497 349 q 392 348 431 349 q 309 347 353 347 q 226 347 265 347 q 168 346 188 346 q 129 351 143 346 q 109 363 115 356 q 101 382 103 371 q 100 406 100 393 q 108 459 100 438 q 153 481 115 481 l 467 481 q 501 481 479 481 q 547 483 522 482 q 598 484 572 483 q 644 485 624 485 z "},"—":{"ha":876,"x_min":100,"x_max":790,"o":"m 742 485 q 772 476 761 485 q 786 458 782 468 q 790 436 790 447 q 790 418 790 425 q 776 369 790 390 q 739 346 761 349 q 698 348 726 347 q 631 349 669 349 q 544 349 592 349 q 449 349 497 349 q 392 348 431 349 q 309 347 353 347 q 226 347 265 347 q 168 346 188 346 q 129 351 143 346 q 109 363 115 356 q 101 382 103 371 q 100 406 100 393 q 108 459 100 438 q 153 481 115 481 l 467 481 q 516 481 479 481 q 596 483 553 482 q 680 484 639 483 q 742 485 721 485 z "},"¯":{"ha":529,"x_min":47,"x_max":475,"o":"m 392 1128 q 439 1121 422 1128 q 464 1103 456 1114 q 474 1080 472 1092 q 475 1057 475 1068 q 473 1026 475 1040 q 464 1001 471 1013 q 444 984 457 990 q 410 978 432 978 q 353 980 390 978 q 275 982 315 982 q 190 978 225 982 q 125 975 154 975 q 83 981 99 975 q 60 997 68 988 q 49 1017 51 1006 q 47 1040 47 1029 q 63 1097 47 1072 q 126 1122 79 1122 q 178 1121 154 1121 q 220 1119 199 1119 q 253 1118 242 1118 q 306 1119 285 1118 q 343 1123 328 1121 q 369 1126 358 1125 q 392 1128 381 1128 z "},"¬":{"ha":800,"x_min":50,"x_max":714,"o":"m 50 572 q 52 592 50 581 q 60 613 54 603 q 78 632 67 624 q 111 640 90 640 l 307 647 q 347 648 322 647 q 403 649 372 649 q 465 651 433 650 q 525 652 497 651 q 573 653 553 653 q 600 653 593 653 q 638 646 618 653 q 673 627 657 639 q 699 598 689 615 q 710 560 710 581 q 709 544 710 556 q 708 517 708 532 q 707 487 707 503 q 707 458 707 471 l 713 363 q 707 329 714 343 q 688 307 700 315 q 663 294 676 299 q 639 290 650 290 q 613 294 626 290 q 586 305 599 297 q 565 323 574 313 q 557 346 557 333 l 558 444 q 553 474 558 456 q 536 494 549 493 q 478 498 511 497 q 414 499 446 499 q 353 500 382 500 q 308 499 325 500 l 114 489 q 83 496 96 488 q 63 517 71 504 q 53 544 56 529 q 50 572 50 560 z "},"™":{"ha":856,"x_min":4,"x_max":819,"o":"m 38 1057 q 69 1056 43 1057 q 131 1054 94 1056 l 274 1056 q 332 1056 306 1056 q 365 1057 358 1057 q 411 1055 383 1057 q 446 1046 439 1053 q 466 1016 453 1040 q 496 957 479 992 q 530 880 513 922 q 561 794 547 838 q 597 878 578 836 q 634 954 617 919 q 665 1013 651 989 q 685 1043 679 1038 q 731 1060 704 1060 q 751 1058 738 1060 q 780 1052 765 1056 q 806 1042 794 1049 q 817 1028 817 1036 q 816 994 817 1024 q 815 926 815 964 q 813 849 814 888 q 813 790 813 811 q 814 741 813 765 q 816 695 815 717 q 818 657 817 674 q 819 631 819 640 q 793 599 819 610 q 736 589 767 589 q 723 590 732 589 q 706 597 714 592 q 691 615 697 603 q 685 650 685 628 l 685 819 q 657 751 671 785 q 631 690 643 718 q 608 643 618 663 q 590 617 597 624 q 579 610 588 611 q 563 608 571 608 q 544 610 553 608 q 533 615 536 611 q 517 643 526 622 q 495 693 507 664 q 470 758 483 722 q 444 828 457 793 q 443 794 443 811 q 443 760 443 776 l 443 653 q 426 600 443 613 q 381 588 410 588 q 363 588 375 588 q 340 594 351 589 q 320 610 329 600 q 311 640 311 621 q 313 669 311 647 q 315 717 314 690 q 317 772 315 744 q 318 814 318 799 q 319 871 318 831 q 321 950 319 911 q 308 950 313 950 q 298 951 303 950 q 286 951 293 951 q 268 951 279 951 q 263 866 264 906 q 261 790 261 826 q 262 743 261 768 q 263 694 263 718 q 265 652 264 671 q 265 624 265 633 q 243 590 265 601 q 194 579 221 579 q 176 581 188 579 q 153 587 164 582 q 133 602 142 592 q 125 629 125 613 q 126 661 125 638 q 128 713 128 685 q 131 770 129 742 q 132 817 132 799 q 132 865 132 828 q 131 950 132 901 q 77 949 99 950 q 46 949 56 949 q 25 956 33 949 q 12 974 17 964 q 6 993 7 983 q 4 1008 4 1003 q 11 1038 4 1018 q 38 1057 18 1057 z "},"®":{"ha":800,"x_min":78,"x_max":725,"o":"m 399 476 q 264 498 324 476 q 163 560 204 519 q 99 657 121 600 q 78 783 78 714 q 103 918 78 860 q 174 1016 129 976 q 278 1076 218 1056 q 407 1096 339 1096 q 534 1076 476 1096 q 635 1018 592 1056 q 701 926 678 981 q 725 800 725 871 q 638 562 725 647 q 399 476 550 476 m 172 785 q 235 613 172 674 q 399 553 297 553 q 491 569 449 553 q 565 619 533 586 q 615 698 597 651 q 633 804 633 744 q 616 893 633 853 q 569 963 599 933 q 497 1010 539 993 q 406 1026 456 1026 q 319 1013 361 1026 q 245 969 278 999 q 192 893 213 939 q 172 785 172 847 m 294 899 l 294 904 l 285 903 q 269 914 274 901 q 267 947 264 926 q 285 974 271 974 l 354 974 q 367 975 361 975 q 382 975 374 975 q 431 971 406 975 q 476 955 456 967 q 510 921 497 943 q 524 863 524 899 q 503 791 524 822 q 451 744 483 760 q 474 699 463 721 q 497 663 486 678 l 524 661 q 538 655 535 660 q 540 640 540 650 q 534 613 542 629 q 507 599 526 597 q 481 600 493 600 q 460 604 468 600 q 441 624 451 608 q 420 660 431 640 q 401 700 410 679 q 385 735 392 721 l 372 735 q 373 703 372 721 q 374 671 374 686 q 374 643 374 656 q 374 626 374 631 q 363 603 374 607 q 342 599 353 599 q 293 628 293 599 l 293 696 l 294 831 l 294 899 m 374 911 q 372 849 372 883 q 372 788 372 814 l 396 788 q 433 806 424 788 q 443 849 443 824 q 431 896 443 878 q 394 914 418 914 q 374 911 388 914 z "},"©":{"ha":1215,"x_min":67,"x_max":1107,"o":"m 67 413 q 109 635 67 539 q 223 798 151 732 q 389 897 294 864 q 588 931 483 931 q 785 898 692 931 q 951 803 879 865 q 1065 649 1022 740 q 1107 442 1107 558 q 1067 230 1107 325 q 956 66 1026 135 q 787 -40 885 -3 q 574 -78 689 -78 q 373 -44 465 -78 q 213 52 281 -11 q 106 206 144 115 q 67 413 67 297 m 594 828 q 453 803 521 828 q 333 726 385 778 q 249 597 281 675 q 218 415 218 519 q 245 251 218 324 q 319 129 272 179 q 432 53 367 79 q 574 26 497 26 q 733 60 663 26 q 853 153 804 94 q 928 288 901 211 q 954 449 954 364 q 929 597 954 528 q 857 717 904 667 q 743 798 810 768 q 594 828 676 828 m 585 93 q 420 179 481 93 q 360 428 360 265 q 421 676 360 590 q 589 763 482 763 q 698 731 656 763 q 749 640 740 699 l 769 506 q 703 463 776 463 q 654 486 658 463 l 631 603 q 592 636 625 636 q 507 414 507 636 q 527 264 507 308 q 590 219 547 219 q 640 233 619 219 q 661 275 661 247 q 719 318 661 318 q 759 306 747 318 q 771 261 771 293 q 757 194 771 225 q 718 141 743 164 q 659 106 693 118 q 585 93 625 93 z "},"¤":{"ha":843,"x_min":75,"x_max":768,"o":"m 138 629 q 99 680 118 653 q 81 740 81 707 q 98 785 81 763 q 138 807 115 807 q 200 782 174 807 q 244 729 226 757 q 328 767 285 753 q 419 782 372 782 q 502 774 454 782 q 581 750 550 765 q 628 803 600 776 q 692 831 656 831 q 728 817 713 831 q 743 782 743 803 q 728 718 743 749 q 694 661 714 688 q 751 558 735 617 q 768 442 768 500 q 746 310 768 374 q 678 196 724 246 q 710 142 696 171 q 724 81 724 113 q 708 46 724 60 q 671 32 692 32 q 608 58 632 32 q 564 113 583 83 q 410 82 488 82 q 331 90 369 82 q 257 117 293 97 q 216 72 239 89 q 160 54 193 54 q 124 67 139 54 q 108 101 108 79 q 118 155 108 129 q 143 204 128 181 q 92 306 108 250 q 75 418 75 361 q 90 529 75 475 q 138 629 106 583 m 431 647 q 346 628 379 647 q 292 576 313 608 q 265 503 272 544 q 257 418 257 463 q 266 344 257 381 q 294 279 275 307 q 344 234 314 251 q 418 217 375 217 q 504 235 472 217 q 553 284 536 253 q 575 356 569 315 q 581 442 581 397 q 574 516 581 479 q 550 582 567 553 q 504 629 533 611 q 431 647 475 647 z "},"¢":{"ha":629,"x_min":44,"x_max":569,"o":"m 44 410 q 58 543 44 481 q 99 654 71 606 q 173 733 128 703 q 281 767 218 763 l 281 819 q 301 877 281 861 q 371 893 322 893 q 410 878 393 893 q 428 842 428 864 q 427 799 428 821 q 425 756 426 778 q 517 691 481 735 q 553 588 553 647 q 550 562 553 575 q 540 538 547 549 q 523 519 533 526 q 497 511 513 511 q 465 527 474 511 q 451 565 456 543 q 442 613 447 588 q 419 654 436 638 q 410 542 414 597 q 407 433 407 486 q 408 342 407 388 q 413 253 410 297 q 449 299 436 274 q 472 348 463 325 q 492 386 482 371 q 517 401 501 401 q 556 382 543 401 q 569 343 569 363 q 530 208 569 264 q 419 119 490 151 l 419 68 q 403 21 419 35 q 353 7 386 7 q 303 19 325 7 q 282 63 282 31 q 282 83 282 74 q 283 103 282 92 q 105 192 165 117 q 44 410 44 268 m 224 410 q 241 306 224 346 q 292 240 258 265 q 291 441 292 342 q 286 642 290 540 q 241 539 258 604 q 224 410 224 474 z "},"£":{"ha":676,"x_min":65,"x_max":639,"o":"m 65 357 q 76 403 65 389 q 106 422 88 417 q 147 426 124 428 q 192 425 169 425 q 185 486 192 453 q 172 553 179 519 q 158 621 164 588 q 151 682 151 654 q 167 782 151 736 q 212 860 182 828 q 285 912 242 893 q 385 931 329 931 q 444 926 414 931 q 501 910 475 921 q 545 883 526 900 q 571 843 564 867 l 607 722 q 592 656 618 683 q 522 629 565 629 q 493 635 506 629 q 476 661 481 642 l 454 758 q 435 788 450 776 q 403 799 421 799 q 354 789 372 799 q 328 762 336 779 q 317 722 319 744 q 315 675 315 700 q 322 617 315 649 q 335 552 328 585 q 347 488 342 519 q 351 429 353 456 q 401 431 374 429 q 451 427 428 432 q 491 408 475 422 q 507 364 507 394 q 490 319 507 333 q 447 301 472 306 q 394 299 422 297 q 343 301 365 301 q 336 250 340 272 q 326 208 332 228 q 313 167 321 188 q 294 118 306 146 q 364 115 329 117 q 433 115 399 113 l 574 124 q 603 117 590 125 q 624 94 615 108 q 635 65 632 81 q 639 33 639 49 q 589 -18 639 -18 l 408 -19 l 349 -19 l 232 -21 l 172 -21 q 129 -11 147 -21 q 111 28 111 -1 q 119 81 111 50 q 138 147 126 111 q 160 221 149 182 q 178 299 171 260 q 141 299 161 299 q 104 303 121 299 q 76 319 88 307 q 65 357 65 332 z "},"¥":{"ha":792,"x_min":50,"x_max":732,"o":"m 63 821 q 63 867 50 843 q 111 906 76 890 q 145 916 122 911 q 183 921 168 921 q 210 916 197 921 q 229 899 222 911 l 353 642 q 362 625 356 636 q 374 603 368 614 q 385 584 381 592 q 392 576 390 576 q 399 584 394 576 q 408 601 403 592 q 419 622 414 611 q 426 638 424 632 l 563 894 q 582 912 569 907 q 608 917 594 917 q 641 912 624 917 q 669 901 658 907 q 718 863 704 886 q 718 817 732 839 l 592 607 q 559 551 575 579 q 529 500 543 524 q 567 501 550 500 q 589 501 583 501 q 627 492 613 501 q 649 468 642 482 q 659 440 657 454 q 661 415 661 425 q 649 380 661 394 q 599 365 638 365 q 556 365 593 365 q 478 367 518 365 q 476 337 476 351 q 475 306 476 322 q 546 309 511 308 q 590 310 581 310 q 628 301 614 310 q 649 281 642 293 q 659 256 657 269 q 661 233 661 243 q 649 192 661 213 q 597 172 638 172 q 583 172 594 172 q 553 172 571 172 q 516 172 536 172 q 475 171 496 171 q 478 81 476 121 q 479 25 479 40 q 453 -36 479 -15 q 381 -57 426 -57 q 313 -35 332 -57 q 293 32 293 -12 q 294 85 293 47 q 299 171 296 122 q 233 169 264 169 q 196 169 203 169 q 151 175 168 169 q 124 190 133 181 q 113 209 115 199 q 110 229 110 219 q 113 252 110 239 q 122 277 115 265 q 142 297 129 289 q 174 306 154 306 q 187 306 175 306 q 217 306 199 306 q 257 305 235 306 q 300 304 279 304 l 300 365 q 230 363 264 364 q 183 363 196 363 q 123 378 136 363 q 110 421 110 393 q 113 447 110 433 q 122 472 115 461 q 141 490 129 483 q 172 497 153 497 l 256 497 q 224 552 240 522 q 189 611 207 582 l 63 821 z "},"ƒ":{"ha":496,"x_min":-207,"x_max":574,"o":"m -196 -149 q -181 -93 -207 -108 q -112 -78 -156 -78 q -58 -121 -65 -78 l -54 -147 q -47 -180 -51 -165 q -19 -194 -42 -194 q 24 -179 6 -194 q 54 -141 42 -164 q 74 -92 67 -118 q 82 -47 81 -67 l 121 519 l 94 519 q 46 529 67 519 q 25 575 25 539 q 47 628 25 615 q 101 640 69 640 l 132 640 l 135 675 q 203 858 144 790 q 367 925 261 925 q 400 923 382 925 q 435 915 418 921 q 467 902 453 910 q 489 883 482 894 l 567 760 q 571 738 574 750 q 559 714 568 725 q 538 694 550 703 q 511 683 525 686 q 465 692 492 679 q 421 735 439 704 l 376 811 q 338 796 350 811 q 320 758 325 781 q 315 710 315 736 q 314 665 315 685 l 313 643 q 345 644 329 644 q 375 644 361 644 q 425 634 406 644 q 444 588 444 624 q 424 537 444 553 q 372 521 404 521 q 344 522 357 521 q 321 522 331 522 l 301 522 l 261 -57 q 188 -235 253 -172 q 0 -299 122 -299 q -56 -294 -28 -299 q -108 -280 -83 -290 q -152 -252 -133 -269 q -178 -210 -171 -235 l -196 -149 z "},"−":{"ha":650,"x_min":60,"x_max":586,"o":"m 510 531 q 556 522 540 531 q 578 503 571 514 q 585 482 585 493 q 586 464 586 471 q 569 415 586 436 q 519 394 553 394 q 477 395 514 394 q 397 397 440 396 q 315 398 354 397 q 263 399 275 399 q 200 395 231 399 q 146 392 169 392 q 97 400 114 392 q 71 419 79 408 q 61 443 63 431 q 60 464 60 456 q 61 488 60 476 q 69 507 63 499 q 89 521 75 515 q 126 526 103 526 q 155 526 132 526 q 205 526 178 526 q 256 525 232 525 q 286 525 279 525 q 331 526 299 525 q 400 528 364 526 q 468 530 436 529 q 510 531 500 531 z "},"×":{"ha":724,"x_min":114,"x_max":613,"o":"m 114 293 q 134 325 114 304 q 181 369 154 346 q 233 412 207 392 q 268 440 258 432 q 236 470 260 449 q 188 516 213 492 q 145 563 164 540 q 126 597 126 586 q 135 625 126 610 q 158 653 144 640 q 186 674 171 665 q 214 683 201 683 q 256 665 235 683 q 296 623 276 647 q 333 574 315 599 q 365 535 351 549 q 395 574 378 549 q 433 623 413 599 q 474 665 453 647 q 513 683 494 683 q 542 674 525 683 q 574 653 558 665 q 601 625 590 640 q 613 597 613 610 q 593 564 613 586 q 548 517 574 542 q 498 471 522 493 q 463 438 474 449 q 498 408 474 429 q 547 363 522 388 q 592 317 572 339 q 611 283 611 294 q 599 258 611 271 q 572 233 588 244 q 538 215 556 222 q 510 208 521 208 q 472 224 493 208 q 430 260 450 239 q 392 303 410 282 q 364 338 375 325 q 333 302 349 324 q 299 261 317 281 q 260 227 281 242 q 217 213 240 213 q 188 221 206 213 q 154 241 171 229 q 126 267 138 253 q 114 293 114 281 z "},"÷":{"ha":694,"x_min":58,"x_max":624,"o":"m 431 711 q 424 681 431 697 q 407 649 418 664 q 378 626 396 635 q 338 617 361 617 q 278 639 304 617 q 251 703 251 661 q 272 760 251 735 q 336 786 292 786 q 402 766 374 786 q 431 711 431 746 m 547 532 q 593 524 578 532 q 615 505 608 515 q 623 483 622 494 q 624 465 624 472 q 607 417 624 438 q 557 396 590 396 q 517 397 551 396 q 442 398 482 397 q 364 399 401 399 q 314 400 326 400 q 274 399 297 400 q 225 397 250 397 q 178 394 200 396 q 144 393 157 393 q 95 401 113 393 q 69 421 78 410 q 60 444 61 432 q 58 465 58 457 q 60 489 58 478 q 67 508 61 500 q 88 522 74 517 q 125 528 101 528 q 162 528 131 528 q 230 527 193 528 q 299 526 267 526 q 338 526 331 526 q 381 527 350 526 q 444 529 411 528 q 508 531 478 531 q 547 532 538 532 m 431 246 q 424 215 431 232 q 407 184 418 199 q 378 160 396 169 q 338 151 361 151 q 278 174 304 151 q 251 238 251 196 q 272 295 251 269 q 336 321 292 321 q 402 301 374 321 q 431 246 431 281 z "},"¦":{"ha":381,"x_min":107,"x_max":272,"o":"m 257 547 q 231 513 254 522 q 185 504 207 504 q 143 514 164 504 q 119 547 122 524 q 117 622 118 578 q 116 713 115 665 q 117 809 117 761 q 119 896 118 857 q 120 961 119 935 q 121 992 121 988 q 142 1030 121 1014 q 196 1046 163 1046 q 220 1044 207 1046 q 244 1034 233 1042 q 264 1013 256 1026 q 272 978 272 1000 q 272 951 272 975 q 272 890 272 926 q 270 807 271 853 q 267 715 269 761 q 263 624 265 668 q 257 547 261 581 m 119 371 q 144 399 122 394 q 188 404 165 404 q 233 399 210 404 q 257 371 256 394 q 259 309 258 349 q 260 222 260 269 q 263 125 261 175 q 265 33 264 75 q 266 -38 265 -8 q 267 -74 267 -68 q 186 -158 267 -158 q 107 -64 107 -158 q 108 -30 107 -58 q 109 40 108 -1 q 110 129 110 81 q 113 224 111 178 q 116 310 114 271 q 119 371 118 349 z "},"·":{"ha":358,"x_min":74,"x_max":278,"o":"m 278 468 q 251 392 278 422 q 171 361 224 361 q 103 386 133 361 q 74 457 74 411 q 98 529 74 496 q 171 563 122 563 q 246 539 214 563 q 278 468 278 515 z "},"°":{"ha":435,"x_min":28,"x_max":406,"o":"m 28 869 q 43 941 28 907 q 85 1001 58 975 q 148 1043 113 1028 q 222 1058 183 1058 q 291 1045 258 1058 q 349 1009 324 1032 q 390 954 375 986 q 406 883 406 922 q 388 806 406 840 q 341 746 369 771 q 277 707 313 721 q 207 693 242 693 q 140 706 172 693 q 83 743 108 719 q 43 799 58 767 q 28 869 28 832 m 156 876 q 174 820 156 839 q 219 801 192 801 q 267 819 247 801 q 286 875 286 838 q 266 933 286 914 q 219 953 246 953 q 174 933 192 953 q 156 876 156 913 z "},"ª":{"ha":571,"x_min":33,"x_max":557,"o":"m 192 686 q 137 699 165 686 q 85 736 108 711 q 48 798 63 761 q 33 882 33 835 q 50 972 33 929 q 97 1048 67 1015 q 167 1100 126 1081 q 254 1119 207 1119 q 317 1111 283 1119 q 381 1087 351 1103 q 429 1048 410 1071 q 449 996 449 1025 q 444 972 449 990 q 435 932 440 954 q 426 888 431 910 q 422 850 422 865 q 428 810 422 831 q 453 790 435 790 q 472 798 464 790 q 483 817 479 806 q 490 842 488 829 q 492 867 492 856 q 501 893 492 886 q 521 900 511 900 q 545 888 533 900 q 557 853 557 876 q 547 798 557 826 q 519 746 538 769 q 472 707 500 722 q 407 692 444 692 q 365 702 382 692 q 338 728 349 713 q 321 761 326 743 q 314 794 315 779 q 294 754 306 774 q 267 719 282 735 q 234 695 253 704 q 192 686 215 686 m 179 878 q 188 828 179 843 q 208 813 196 813 q 235 831 219 813 q 265 876 250 850 q 291 932 279 903 q 304 981 303 961 q 298 1028 307 1008 q 265 1047 289 1047 q 233 1033 249 1047 q 205 994 217 1018 q 186 940 193 969 q 179 878 179 910 m 399 657 q 440 651 425 657 q 463 637 456 646 q 472 617 469 628 q 474 597 474 607 q 464 552 474 571 q 415 533 454 533 q 388 534 407 533 q 348 536 369 535 q 303 538 326 538 q 263 539 281 539 q 186 534 218 539 q 128 529 154 529 q 70 547 82 529 q 58 585 58 565 q 72 632 58 611 q 129 653 86 653 l 242 653 q 340 655 300 653 q 399 657 379 657 z "},"º":{"ha":492,"x_min":40,"x_max":451,"o":"m 249 692 q 181 703 217 692 q 113 739 144 714 q 61 802 82 764 q 40 894 40 840 q 54 976 40 938 q 95 1044 68 1015 q 161 1091 122 1074 q 251 1108 200 1108 q 398 1053 344 1108 q 451 911 451 999 q 435 824 451 864 q 390 754 418 783 q 325 708 361 725 q 249 692 289 692 m 192 903 q 213 817 192 840 q 258 793 233 793 q 321 826 293 793 q 349 917 349 858 q 325 1001 349 969 q 267 1032 301 1032 q 231 1021 246 1032 q 208 991 217 1010 q 196 949 200 972 q 192 903 192 926 m 371 661 q 414 655 399 661 q 436 640 429 649 q 445 620 443 631 q 447 600 447 610 q 437 553 447 572 q 386 533 426 533 q 334 536 368 533 q 263 539 300 539 q 185 535 217 539 q 125 531 153 531 q 66 549 78 531 q 54 588 54 567 q 68 635 54 614 q 126 657 82 657 l 243 657 q 325 659 300 657 q 371 661 350 661 z "},"¹":{"ha":374,"x_min":38,"x_max":308,"o":"m 50 879 q 70 904 58 889 q 96 936 82 919 q 124 969 110 953 q 153 999 139 986 q 236 1021 179 1021 q 285 1009 263 1021 q 308 974 308 997 q 308 940 308 969 q 306 869 307 911 q 305 781 306 828 q 304 696 304 735 l 304 529 q 282 474 304 489 q 228 460 260 460 q 202 463 215 460 q 178 473 189 465 q 160 494 167 481 q 153 532 153 508 q 153 562 153 538 q 154 615 154 586 q 155 669 154 643 q 156 703 156 694 q 156 740 156 725 q 157 769 157 754 q 157 801 157 783 q 156 847 157 819 q 139 826 146 838 q 122 807 132 815 q 79 786 97 786 q 65 794 72 786 q 52 815 58 803 q 42 838 46 826 q 38 857 38 850 q 50 879 38 867 z "},"²":{"ha":513,"x_min":69,"x_max":456,"o":"m 75 528 q 126 588 86 551 q 208 667 165 624 q 283 761 250 711 q 317 863 317 811 q 310 896 317 883 q 295 915 304 908 q 275 925 286 922 q 254 928 264 928 q 219 915 232 928 q 201 884 207 901 q 193 851 194 867 q 192 832 192 836 q 185 822 192 826 q 169 815 178 818 q 152 812 161 813 q 139 811 143 811 q 97 825 118 811 q 76 863 76 839 q 87 906 76 879 q 120 958 97 933 q 178 1001 143 983 q 264 1019 214 1019 q 405 976 354 1019 q 456 858 456 933 q 428 758 456 806 q 364 672 401 711 q 286 599 326 632 q 219 542 246 567 q 244 542 239 542 q 253 543 249 543 q 281 544 260 543 q 326 547 301 546 q 372 550 350 549 q 401 551 393 551 q 428 546 418 551 q 442 532 438 540 q 447 515 446 524 q 449 503 449 507 q 437 472 449 488 q 392 456 425 456 q 363 456 385 456 q 315 458 340 457 q 265 460 289 460 q 233 461 242 461 q 210 460 225 461 q 178 459 194 460 q 148 458 163 458 q 125 457 133 457 q 79 470 89 457 q 69 494 69 483 q 71 512 69 501 q 75 528 72 522 z "},"³":{"ha":488,"x_min":60,"x_max":444,"o":"m 315 736 q 335 731 315 735 q 380 713 356 726 q 424 675 404 700 q 444 608 444 650 q 426 544 444 572 q 380 495 408 515 q 315 465 351 475 q 242 454 279 454 q 153 472 189 454 q 97 515 118 490 q 68 567 76 540 q 60 611 60 594 q 81 649 60 635 q 122 663 101 663 q 135 662 126 663 q 153 659 144 661 q 168 653 161 657 q 175 642 175 649 q 177 622 175 638 q 186 590 179 607 q 206 560 193 574 q 242 547 219 547 q 263 550 251 547 q 285 560 275 553 q 301 581 294 568 q 308 615 308 594 q 290 665 308 640 q 247 690 271 690 q 215 703 225 690 q 204 735 204 715 q 216 767 204 758 q 243 778 228 775 q 263 787 253 779 q 283 807 274 794 q 298 834 292 819 q 304 863 304 849 q 298 894 304 882 q 283 914 292 907 q 263 924 274 921 q 242 926 251 926 q 207 913 219 926 q 188 883 194 900 q 181 851 182 867 q 179 832 179 836 q 172 821 179 825 q 157 815 165 817 q 140 812 149 813 q 126 811 131 811 q 85 824 106 811 q 64 861 64 838 q 74 905 64 878 q 106 958 85 932 q 162 1001 128 983 q 242 1019 196 1019 q 317 1008 281 1019 q 380 977 353 997 q 424 930 407 957 q 440 869 440 903 q 421 803 440 829 q 378 763 401 778 q 335 743 354 749 q 315 736 315 738 z "},"‰":{"ha":1842,"x_min":74,"x_max":1751,"o":"m 314 413 q 138 485 203 413 q 74 682 74 557 q 84 776 74 726 q 122 866 94 825 q 199 934 150 907 q 325 961 249 961 q 441 939 394 961 q 516 880 488 917 q 557 796 544 843 q 569 697 569 749 q 549 572 569 625 q 494 483 529 518 q 413 430 458 447 q 314 413 367 413 m 511 58 q 472 -3 490 21 q 439 -39 454 -26 q 410 -56 424 -51 q 383 -58 396 -60 q 329 -30 354 -54 q 308 26 304 -6 q 326 72 311 42 q 363 142 340 103 q 411 227 385 182 q 463 315 438 272 q 512 394 489 357 q 547 457 535 432 q 576 512 558 478 q 616 585 594 546 q 659 666 638 625 q 699 742 681 707 q 732 803 718 778 q 750 838 746 829 q 789 897 771 875 q 823 930 807 919 q 852 942 839 940 q 876 943 865 944 q 937 921 911 938 q 957 869 963 904 q 950 846 954 858 q 940 824 946 833 q 920 787 938 818 q 878 710 903 756 q 824 613 853 665 q 767 511 794 560 q 719 425 740 463 q 690 372 699 388 q 666 328 682 357 q 631 266 650 300 q 591 197 611 232 q 553 132 571 161 q 524 83 536 103 q 511 58 513 63 m 231 678 q 235 620 231 651 q 249 562 239 589 q 276 517 258 535 q 319 499 293 499 q 365 517 346 499 q 394 565 383 536 q 411 626 406 593 q 417 686 417 658 q 413 738 417 707 q 399 798 410 769 q 371 847 389 826 q 325 867 353 867 q 255 812 279 867 q 231 678 231 757 m 961 -42 q 780 28 839 -42 q 721 214 721 99 q 733 315 721 264 q 774 410 744 367 q 854 480 804 453 q 979 507 904 507 q 1098 481 1051 507 q 1172 415 1144 456 q 1210 324 1199 374 q 1221 226 1221 275 q 1202 106 1221 157 q 1149 23 1183 56 q 1067 -26 1114 -10 q 961 -42 1019 -42 m 1492 -42 q 1310 28 1369 -42 q 1251 214 1251 99 q 1263 315 1251 264 q 1305 410 1275 367 q 1385 480 1335 453 q 1510 507 1435 507 q 1628 481 1582 507 q 1702 415 1675 456 q 1740 324 1729 374 q 1751 226 1751 275 q 1733 106 1751 157 q 1679 23 1714 56 q 1597 -26 1644 -10 q 1492 -42 1550 -42 m 875 225 q 877 171 875 201 q 889 113 879 140 q 917 66 899 85 q 968 47 935 47 q 1023 67 1003 47 q 1053 116 1043 88 q 1067 176 1064 144 q 1069 229 1069 207 q 1066 290 1069 257 q 1053 350 1063 322 q 1025 397 1043 378 q 978 415 1007 415 q 900 363 925 415 q 875 225 875 311 m 1406 225 q 1408 171 1406 201 q 1419 113 1410 140 q 1447 66 1429 85 q 1499 47 1465 47 q 1553 67 1533 47 q 1584 116 1574 88 q 1597 176 1594 144 q 1600 229 1600 207 q 1597 290 1600 257 q 1583 350 1593 322 q 1556 397 1574 378 q 1508 415 1538 415 q 1431 363 1456 415 q 1406 225 1406 311 z "},"⁄":{"ha":668,"x_min":-1,"x_max":657,"o":"m 206 58 q 167 -3 185 21 q 133 -39 149 -26 q 104 -56 118 -51 q 78 -58 90 -60 q 24 -30 49 -54 q 3 26 -1 -6 q 20 72 6 42 q 57 142 35 103 q 106 227 79 182 q 158 315 132 272 q 206 394 183 357 q 242 457 229 432 q 271 512 253 478 q 310 585 289 546 q 353 666 332 625 q 394 742 375 707 q 426 803 413 778 q 444 838 440 829 q 483 897 465 875 q 517 930 501 919 q 547 942 533 940 q 571 943 560 944 q 631 921 606 938 q 651 869 657 904 q 644 846 649 858 q 635 824 640 833 q 615 787 632 818 q 572 710 597 756 q 518 613 547 665 q 462 511 489 560 q 414 425 435 463 q 385 372 393 388 q 360 328 376 357 q 325 266 344 300 q 285 197 306 232 q 248 132 265 161 q 219 83 231 103 q 206 58 207 63 z "},"½":{"ha":1093,"x_min":47,"x_max":1038,"o":"m 47 788 q 63 814 47 793 q 99 859 79 835 q 138 904 119 883 q 163 929 157 925 q 202 948 179 944 q 246 951 225 951 q 269 949 257 951 q 292 940 282 946 q 310 926 303 935 q 318 904 318 917 l 318 793 l 314 571 l 314 460 q 293 406 314 422 q 238 390 272 390 q 182 408 201 390 q 163 463 163 425 l 163 528 l 167 657 l 167 721 q 167 749 167 736 q 165 778 167 763 q 133 739 149 761 q 89 717 117 717 q 74 726 82 717 q 60 746 67 735 q 51 769 54 757 q 47 788 47 782 m 821 879 q 815 850 821 864 q 803 824 810 836 q 680 597 744 708 q 553 372 615 485 q 463 215 508 293 q 374 58 418 138 q 353 23 365 43 q 326 -15 342 3 q 293 -46 311 -33 q 254 -58 275 -58 q 197 -35 224 -58 q 171 19 171 -12 l 171 26 q 190 76 174 43 q 228 149 206 108 q 278 235 251 190 q 330 323 304 281 q 377 401 356 365 q 410 457 399 436 q 510 648 461 553 q 613 838 560 743 q 632 872 621 853 q 658 906 643 890 q 690 933 672 922 q 728 944 707 944 q 758 940 742 944 q 788 928 774 936 q 811 908 801 921 q 821 879 821 896 m 657 60 q 708 119 668 83 q 790 199 747 156 q 865 293 832 243 q 899 394 899 343 q 892 428 899 415 q 877 447 886 440 q 857 457 868 454 q 836 460 846 460 q 801 447 814 460 q 783 416 789 433 q 775 383 776 399 q 774 364 774 368 q 767 354 774 358 q 751 347 760 350 q 734 344 743 344 q 721 343 725 343 q 679 357 700 343 q 658 394 658 371 q 669 438 658 411 q 702 490 679 465 q 760 533 725 515 q 846 551 796 551 q 987 508 936 551 q 1038 390 1038 465 q 1011 292 1038 338 q 947 207 985 246 q 870 137 910 168 q 804 81 831 106 q 828 81 824 81 q 838 82 833 82 q 865 83 844 82 q 910 86 886 85 q 956 89 935 88 q 986 90 978 90 q 1012 83 1003 90 q 1025 67 1021 76 q 1030 49 1029 58 q 1031 35 1031 39 q 1019 3 1031 19 q 974 -12 1007 -12 q 944 -12 967 -12 q 897 -10 922 -11 q 847 -8 871 -8 q 815 -7 824 -7 q 792 -8 807 -7 q 760 -9 776 -8 q 730 -10 744 -10 q 707 -11 715 -11 q 661 2 671 -11 q 651 26 651 15 q 653 44 651 33 q 657 60 654 54 z "},"¼":{"ha":1104,"x_min":47,"x_max":1015,"o":"m 47 788 q 63 814 47 793 q 99 859 79 835 q 138 904 119 883 q 163 929 157 925 q 202 948 179 944 q 246 951 225 951 q 269 949 257 951 q 292 940 282 946 q 310 926 303 935 q 318 904 318 917 l 318 793 l 314 571 l 314 460 q 293 406 314 422 q 238 390 272 390 q 182 408 201 390 q 163 463 163 425 l 163 528 l 167 657 l 167 721 q 167 749 167 736 q 165 778 167 763 q 133 739 149 761 q 89 717 117 717 q 74 726 82 717 q 60 746 67 735 q 51 769 54 757 q 47 788 47 782 m 821 879 q 815 850 821 864 q 803 824 810 836 q 680 597 744 708 q 553 372 615 485 q 463 215 508 293 q 374 58 418 138 q 353 23 365 43 q 326 -15 342 3 q 293 -46 311 -33 q 254 -58 275 -58 q 197 -35 224 -58 q 171 19 171 -12 l 171 26 q 190 76 174 43 q 228 149 206 108 q 278 235 251 190 q 330 323 304 281 q 377 401 356 365 q 410 457 399 436 q 510 648 461 553 q 613 838 560 743 q 632 872 621 853 q 658 906 643 890 q 690 933 672 922 q 728 944 707 944 q 758 940 742 944 q 788 928 774 936 q 811 908 801 921 q 821 879 821 896 m 821 125 q 765 123 804 125 q 684 124 725 121 q 612 140 643 128 q 581 179 581 151 q 584 206 581 190 q 594 231 588 221 q 710 383 650 310 q 829 532 769 456 q 853 549 839 544 q 883 554 868 554 q 907 552 892 554 q 938 546 922 550 q 965 534 954 542 q 976 515 976 526 q 972 382 976 446 q 968 249 968 318 l 968 233 q 1003 226 990 233 q 1015 192 1015 219 q 1015 160 1015 171 q 1011 142 1015 149 q 998 134 1007 136 q 969 129 989 132 q 971 74 971 101 q 962 26 971 47 q 933 -7 953 6 q 875 -19 913 -19 q 834 -1 850 -19 q 818 40 818 17 q 819 83 818 61 q 821 125 819 104 m 835 378 q 780 301 807 338 q 729 222 753 265 q 828 226 778 222 q 833 302 831 267 q 835 378 835 338 z "},"¾":{"ha":1160,"x_min":54,"x_max":1079,"o":"m 310 694 q 330 689 310 693 q 374 672 350 685 q 419 633 399 658 q 439 567 439 608 q 421 502 439 531 q 374 453 403 474 q 310 423 346 433 q 236 413 274 413 q 148 431 183 413 q 92 474 113 449 q 63 526 71 499 q 54 569 54 553 q 75 607 54 593 q 117 621 96 621 q 130 620 121 621 q 147 617 139 619 q 163 611 156 615 q 169 600 169 607 q 172 581 169 596 q 181 549 174 565 q 201 519 188 532 q 236 506 214 506 q 258 508 246 506 q 279 519 269 511 q 296 540 289 526 q 303 574 303 553 q 284 624 303 599 q 242 649 265 649 q 209 661 219 649 q 199 693 199 674 q 210 725 199 717 q 238 736 222 733 q 258 745 247 738 q 277 765 268 753 q 292 792 286 778 q 299 821 299 807 q 292 853 299 840 q 277 872 286 865 q 257 882 268 879 q 236 885 246 885 q 201 872 214 885 q 183 842 189 858 q 175 810 176 825 q 174 790 174 794 q 167 779 174 783 q 151 773 160 775 q 134 770 143 771 q 121 769 125 769 q 79 783 100 769 q 58 819 58 796 q 69 863 58 836 q 101 916 79 890 q 156 960 122 942 q 236 978 190 978 q 311 967 275 978 q 374 935 347 956 q 418 888 401 915 q 435 828 435 861 q 415 762 435 788 q 372 722 396 736 q 329 701 349 707 q 310 694 310 696 m 885 879 q 879 850 885 864 q 867 824 874 836 q 744 597 808 708 q 617 372 679 485 q 527 215 572 293 q 438 58 482 138 q 417 23 429 43 q 390 -15 406 3 q 357 -46 375 -33 q 318 -58 339 -58 q 261 -35 288 -58 q 235 19 235 -12 l 235 26 q 253 76 238 43 q 292 149 269 108 q 342 235 315 190 q 394 323 368 281 q 441 401 419 365 q 474 457 463 436 q 574 648 525 553 q 676 838 624 743 q 696 872 685 853 q 722 906 707 890 q 753 933 736 922 q 792 944 771 944 q 822 940 806 944 q 851 928 838 936 q 875 908 865 921 q 885 879 885 896 m 885 125 q 828 123 868 125 q 748 124 789 121 q 676 140 707 128 q 644 179 644 151 q 648 206 644 190 q 658 231 651 221 q 774 383 714 310 q 893 532 833 456 q 917 549 903 544 q 947 554 932 554 q 971 552 956 554 q 1002 546 986 550 q 1029 534 1018 542 q 1040 515 1040 526 q 1036 382 1040 446 q 1032 249 1032 318 l 1032 233 q 1067 226 1054 233 q 1079 192 1079 219 q 1079 160 1079 171 q 1075 142 1079 149 q 1062 134 1071 136 q 1033 129 1053 132 q 1035 74 1035 101 q 1026 26 1035 47 q 997 -7 1017 6 q 939 -19 976 -19 q 898 -1 914 -19 q 882 40 882 17 q 883 83 882 61 q 885 125 883 104 m 899 378 q 844 301 871 338 q 793 222 817 265 q 892 226 842 222 q 897 302 894 267 q 899 378 899 338 z "},"μ":{"ha":696,"x_min":67,"x_max":667,"o":"m 88 601 q 119 639 90 624 q 186 654 149 654 q 251 642 221 654 q 282 619 282 629 q 280 566 282 600 q 275 492 278 532 q 270 407 272 451 q 268 322 268 363 q 282 229 268 260 q 315 199 296 199 q 349 220 331 199 q 385 278 368 242 q 413 364 401 315 q 425 467 425 413 q 426 534 425 499 q 428 597 428 569 q 439 622 428 611 q 466 638 450 632 q 499 647 482 644 q 525 650 515 650 q 554 648 539 650 q 583 641 569 646 q 605 628 596 636 q 614 606 614 619 q 613 574 614 599 q 609 517 611 550 q 604 444 607 483 q 599 367 601 404 q 596 297 597 329 q 594 246 594 265 l 660 93 q 660 60 667 78 q 640 26 654 42 q 608 -3 626 10 q 570 -19 589 -15 q 535 -15 551 -22 q 508 13 518 -8 l 458 128 q 400 65 439 83 q 321 46 361 46 q 272 58 289 46 q 250 71 256 71 q 241 38 243 71 q 239 -42 239 6 q 240 -142 239 -89 q 240 -235 240 -194 q 231 -264 240 -253 q 210 -282 222 -275 q 183 -292 197 -289 q 158 -294 169 -294 q 135 -292 150 -294 q 104 -281 119 -289 q 78 -262 89 -274 q 67 -231 67 -250 q 74 81 67 -72 q 82 392 82 233 q 83 510 82 453 q 88 601 85 567 z "},"¶":{"ha":892,"x_min":78,"x_max":844,"o":"m 540 843 q 538 722 540 779 q 533 608 535 664 q 528 494 531 551 q 526 371 526 436 q 526 275 526 338 q 526 144 526 213 q 523 13 525 75 q 518 -83 521 -50 q 509 -97 518 -92 q 488 -104 500 -101 q 465 -108 476 -107 q 446 -108 453 -108 q 426 -107 440 -108 q 399 -101 413 -106 q 374 -91 385 -97 q 364 -76 364 -85 l 368 354 q 257 377 310 360 q 165 426 204 394 q 101 506 125 458 q 78 618 78 553 q 103 757 78 697 q 170 858 128 817 q 269 926 213 900 q 388 967 325 953 q 517 983 451 981 q 642 981 582 986 l 808 965 q 837 944 829 964 q 842 903 844 925 q 831 864 840 882 q 807 846 821 846 q 786 847 797 846 q 764 847 775 847 q 756 729 760 785 q 750 619 753 674 q 746 510 747 565 q 744 392 744 454 l 744 311 l 740 151 l 740 71 q 742 -15 740 33 q 736 -99 743 -62 q 726 -109 735 -104 q 707 -118 718 -114 q 685 -124 696 -122 q 671 -126 675 -126 q 651 -124 665 -126 q 623 -117 638 -121 q 598 -106 608 -112 q 588 -92 588 -100 q 591 109 588 0 q 598 321 594 218 q 605 510 601 424 q 608 646 608 597 q 608 699 608 675 q 608 744 608 722 q 609 790 608 767 q 610 843 610 814 q 575 844 593 843 q 540 843 557 846 z "},"§":{"ha":796,"x_min":57,"x_max":719,"o":"m 492 58 q 462 131 492 103 q 386 183 432 160 q 288 227 340 206 q 189 278 235 249 q 113 349 143 307 q 81 453 82 390 q 105 544 79 501 q 179 618 131 586 q 131 676 147 644 q 114 747 114 707 q 137 834 114 793 q 202 907 160 875 q 304 958 244 939 q 436 976 364 976 q 483 972 457 976 q 535 958 510 967 q 580 937 560 949 q 608 913 600 925 l 706 768 q 713 736 717 753 q 697 705 710 719 q 660 681 683 690 q 608 671 638 671 q 584 678 596 671 q 563 695 572 685 q 545 716 553 706 q 533 735 538 726 l 463 856 q 412 850 439 856 q 362 833 385 844 q 324 802 339 821 q 310 757 310 783 q 340 690 310 718 q 416 637 371 661 q 515 589 461 613 q 613 536 568 565 q 689 468 658 507 q 719 375 719 429 q 685 287 719 321 q 601 229 650 253 q 659 171 633 204 q 685 92 685 138 q 658 0 685 42 q 588 -72 632 -42 q 488 -118 544 -101 q 371 -135 432 -135 q 301 -128 336 -135 q 235 -110 265 -122 q 181 -82 204 -99 q 146 -44 157 -65 l 65 107 q 62 138 57 122 q 79 165 67 153 q 111 185 92 178 q 153 193 131 193 q 192 188 176 193 q 217 176 208 183 q 231 160 226 168 q 238 144 236 151 l 272 18 q 305 -8 276 3 q 361 -18 333 -18 q 436 -8 410 -18 q 475 16 463 3 q 490 42 488 29 q 492 58 492 54 m 533 374 q 513 426 533 403 q 458 469 492 449 q 381 507 424 489 q 296 544 339 525 q 273 508 282 528 q 265 467 264 489 q 286 406 267 429 q 336 365 306 382 q 406 333 367 347 q 485 300 444 319 q 522 333 510 314 q 533 374 533 353 z "},"†":{"ha":617,"x_min":15,"x_max":592,"o":"m 15 746 q 17 769 15 758 q 26 789 18 781 q 48 803 33 797 q 89 808 63 808 q 104 808 92 808 q 135 808 117 808 q 177 808 154 808 q 222 807 200 807 l 222 925 q 247 969 222 953 q 311 986 271 986 q 340 984 324 986 q 369 976 356 982 q 393 958 383 969 q 403 931 403 947 q 401 890 403 924 q 396 808 399 857 q 460 811 428 810 q 508 813 493 813 q 559 804 542 813 q 583 785 576 796 q 591 764 590 775 q 592 746 592 753 q 574 697 592 718 q 518 676 556 676 q 501 676 514 676 q 470 677 488 676 q 432 678 453 678 q 390 679 411 679 q 385 539 388 608 q 382 424 382 469 q 383 348 382 394 q 385 248 383 301 q 389 140 388 194 q 392 39 390 85 q 395 -40 394 -7 q 396 -79 396 -72 q 371 -137 396 -117 q 300 -158 346 -158 q 206 -75 206 -158 q 207 -31 206 -65 q 210 51 208 3 q 213 157 211 100 q 217 269 215 214 q 219 371 218 324 q 221 446 221 418 l 221 678 q 156 675 188 676 q 110 674 125 674 q 56 682 75 674 q 27 701 36 690 q 17 725 18 713 q 15 746 15 738 z "},"‡":{"ha":604,"x_min":17,"x_max":575,"o":"m 108 3 q 56 11 75 3 q 28 31 38 19 q 18 54 19 42 q 17 75 17 67 q 18 99 17 88 q 26 118 19 110 q 48 132 33 126 q 88 138 63 138 q 102 138 90 138 q 131 138 114 138 q 170 137 149 138 q 214 136 192 136 q 219 408 217 274 q 221 679 221 542 q 155 676 186 678 q 108 675 124 675 q 56 683 75 675 q 28 703 38 692 q 18 726 19 714 q 17 747 17 739 q 18 771 17 760 q 26 790 19 782 q 48 804 33 799 q 88 810 63 810 q 134 810 93 810 q 222 808 175 810 l 222 925 q 247 969 222 953 q 308 986 271 986 q 336 984 321 986 q 365 976 351 982 q 388 958 378 969 q 397 931 397 947 q 396 891 397 924 q 392 810 394 858 q 451 813 422 811 q 493 814 479 814 q 542 806 525 814 q 567 787 560 797 q 574 765 574 776 q 575 747 575 754 q 558 699 575 719 q 504 678 540 678 q 460 678 496 678 q 385 681 425 679 q 380 539 382 608 q 378 424 378 469 q 380 299 378 379 q 385 138 382 219 q 447 140 415 139 q 493 142 479 142 q 542 133 525 142 q 567 115 560 125 q 574 93 574 104 q 575 75 575 82 q 558 26 575 47 q 504 6 540 6 q 461 6 496 6 q 389 8 426 7 q 391 -49 390 -26 q 392 -79 392 -72 q 367 -137 392 -117 q 297 -158 342 -158 q 206 -75 206 -158 q 206 -47 206 -68 q 208 7 207 -25 q 149 3 176 4 q 108 3 122 3 z "},"~":{"ha":744,"x_min":69,"x_max":690,"o":"m 624 581 q 668 562 646 581 q 690 499 690 543 q 681 444 690 474 q 651 390 672 415 q 598 348 631 365 q 519 331 565 331 q 446 343 479 331 q 382 370 413 356 q 323 397 351 385 q 264 410 294 410 q 214 394 231 410 q 187 361 197 379 q 165 328 176 343 q 131 313 154 313 q 101 322 113 313 q 82 346 89 332 q 72 376 75 360 q 69 406 69 392 q 81 466 69 435 q 114 522 92 497 q 168 564 136 547 q 242 581 200 581 q 316 568 279 581 q 388 541 353 556 q 455 514 422 526 q 517 501 488 501 q 558 514 546 501 q 578 541 571 526 q 594 568 586 556 q 624 581 603 581 z "},"‹":{"ha":508,"x_min":76,"x_max":438,"o":"m 76 433 q 84 453 76 447 q 103 467 92 460 q 234 561 165 508 q 368 651 303 614 q 376 656 372 654 q 386 658 381 658 q 403 652 396 658 q 417 637 411 646 q 427 617 424 628 q 431 600 431 607 q 426 569 431 585 q 399 539 421 554 q 349 509 376 524 q 292 481 321 494 q 235 453 264 467 q 183 426 207 439 q 238 403 208 414 q 298 381 268 392 q 356 356 328 369 q 406 328 383 343 q 427 301 417 319 q 435 265 438 282 q 430 249 433 258 q 420 229 426 239 q 406 213 414 219 q 389 207 397 207 q 378 209 383 207 q 369 214 374 211 q 238 301 304 253 q 108 390 172 349 q 83 408 90 401 q 76 433 76 414 z "},"›":{"ha":439,"x_min":35,"x_max":396,"o":"m 396 431 q 389 405 396 411 q 364 388 382 399 q 234 298 300 346 q 103 211 168 250 q 94 206 99 208 q 83 204 89 204 q 67 210 75 204 q 52 226 58 217 q 42 246 46 236 q 38 263 39 256 q 45 298 35 279 q 67 325 56 317 q 117 353 89 340 q 174 378 144 367 q 234 400 204 389 q 289 424 264 411 q 237 450 265 436 q 180 478 208 464 q 124 506 151 492 q 74 536 96 521 q 47 567 51 551 q 42 597 42 582 q 45 615 42 604 q 55 634 49 625 q 69 649 61 643 q 86 656 76 656 q 96 653 92 656 q 104 649 100 651 q 238 558 169 611 q 369 464 307 506 q 388 451 381 457 q 396 431 396 444 z "},"«":{"ha":765,"x_min":76,"x_max":706,"o":"m 76 433 q 84 453 76 447 q 103 467 92 460 q 234 561 165 508 q 368 651 303 614 q 376 656 372 654 q 386 658 381 658 q 403 652 396 658 q 417 637 411 646 q 427 617 424 628 q 431 600 431 607 q 426 569 431 585 q 399 539 421 554 q 349 509 376 524 q 292 481 321 494 q 235 453 264 467 q 183 426 207 439 q 238 403 208 414 q 298 381 268 392 q 356 356 328 369 q 406 328 383 343 q 427 301 417 319 q 435 265 438 282 q 430 249 433 258 q 420 229 426 239 q 406 213 414 219 q 389 207 397 207 q 378 209 383 207 q 369 214 374 211 q 238 301 304 253 q 108 390 172 349 q 83 408 90 401 q 76 433 76 414 m 344 433 q 352 453 344 447 q 371 467 360 460 q 502 561 433 508 q 636 651 571 614 q 644 656 640 654 q 654 658 649 658 q 672 652 664 658 q 685 637 679 646 q 695 617 692 628 q 699 600 699 607 q 694 569 699 585 q 667 539 689 554 q 617 509 644 524 q 560 481 589 494 q 503 453 532 467 q 451 426 475 439 q 506 403 476 414 q 566 381 536 392 q 624 356 596 369 q 674 328 651 343 q 695 301 685 319 q 703 265 706 282 q 698 249 701 258 q 688 229 694 239 q 674 213 682 219 q 657 207 665 207 q 647 209 651 207 q 638 214 642 211 q 506 301 572 253 q 376 390 440 349 q 351 408 358 401 q 344 433 344 414 z "},"»":{"ha":782,"x_min":76,"x_max":706,"o":"m 706 432 q 698 412 706 418 q 679 399 690 406 q 548 304 617 357 q 414 214 479 251 q 406 209 410 211 q 396 207 401 207 q 378 213 386 207 q 365 228 371 219 q 355 248 358 238 q 351 265 351 258 q 356 296 351 281 q 383 326 361 311 q 433 356 406 342 q 490 385 461 371 q 547 413 518 399 q 599 439 575 426 q 544 463 574 451 q 484 485 514 474 q 426 510 454 497 q 376 538 399 522 q 355 565 365 546 q 347 600 344 583 q 352 617 349 607 q 362 636 356 626 q 376 652 368 646 q 393 658 385 658 q 403 656 399 658 q 413 651 408 654 q 544 565 478 613 q 674 475 610 517 q 699 458 692 464 q 706 432 706 451 m 438 432 q 430 412 438 418 q 411 399 422 406 q 280 304 349 357 q 146 214 211 251 q 138 209 142 211 q 128 207 133 207 q 110 213 118 207 q 97 228 103 219 q 87 248 90 238 q 83 265 83 258 q 88 296 83 281 q 115 326 93 311 q 165 356 138 342 q 222 385 193 371 q 278 413 250 399 q 331 439 307 426 q 276 463 306 451 q 216 485 246 474 q 158 510 186 497 q 108 538 131 522 q 87 565 97 546 q 79 600 76 583 q 84 617 81 607 q 94 636 88 626 q 108 652 100 646 q 125 658 117 658 q 135 656 131 658 q 144 651 140 654 q 276 565 210 613 q 406 475 342 517 q 431 458 424 464 q 438 432 438 451 z "},"˘":{"ha":433,"x_min":31,"x_max":381,"o":"m 329 1181 q 363 1167 344 1181 q 381 1110 381 1153 q 367 1047 381 1076 q 329 994 353 1017 q 274 959 306 972 q 206 946 242 946 q 138 958 169 946 q 82 992 106 971 q 44 1041 58 1013 q 31 1100 31 1069 q 40 1147 31 1124 q 78 1169 50 1169 q 115 1156 103 1169 q 138 1128 126 1143 q 165 1099 149 1113 q 211 1086 181 1086 q 258 1101 243 1086 q 281 1133 272 1115 q 298 1166 289 1151 q 329 1181 307 1181 z "},"˙":{"ha":343,"x_min":83,"x_max":254,"o":"m 254 1072 q 249 1042 254 1058 q 234 1010 244 1025 q 208 986 224 996 q 168 976 192 976 q 110 999 136 976 q 83 1061 83 1021 q 103 1120 83 1094 q 168 1146 124 1146 q 229 1126 204 1146 q 254 1072 254 1106 z "},"˚":{"ha":503,"x_min":115,"x_max":400,"o":"m 115 1065 q 126 1117 115 1093 q 156 1161 136 1142 q 201 1192 175 1181 q 261 1203 228 1203 q 362 1166 324 1203 q 400 1078 400 1129 q 363 979 400 1019 q 263 939 325 939 q 207 949 233 939 q 160 976 181 958 q 128 1016 140 993 q 115 1065 115 1039 m 228 1072 q 237 1048 228 1056 q 261 1040 246 1040 q 294 1075 294 1040 q 285 1099 294 1092 q 263 1107 276 1107 q 235 1095 242 1107 q 228 1072 228 1083 z "},"˝":{"ha":682,"x_min":50,"x_max":622,"o":"m 311 988 q 324 1017 310 1000 q 360 1053 338 1033 q 410 1091 383 1072 q 463 1125 438 1110 q 510 1150 489 1140 q 539 1160 531 1160 q 563 1155 550 1160 q 589 1142 576 1150 q 611 1124 601 1135 q 622 1100 621 1113 q 600 1068 622 1086 q 556 1038 585 1056 q 488 993 528 1021 q 412 948 440 960 q 364 936 383 936 q 349 942 358 936 q 332 955 340 947 q 317 972 324 963 q 311 988 311 981 m 51 983 q 64 1013 50 996 q 100 1049 78 1029 q 150 1087 122 1068 q 203 1121 178 1106 q 249 1146 228 1136 q 278 1156 269 1156 q 303 1151 289 1156 q 329 1138 317 1146 q 351 1119 342 1131 q 361 1096 360 1108 q 339 1064 361 1082 q 295 1034 324 1051 q 226 989 267 1017 q 151 944 179 956 q 103 932 122 932 q 88 938 97 932 q 72 951 79 943 q 58 967 64 958 q 51 983 51 976 z "},"˛":{"ha":428,"x_min":97,"x_max":357,"o":"m 275 22 q 268 -4 275 6 q 253 -24 261 -14 q 239 -47 246 -33 q 232 -83 232 -60 q 251 -118 232 -107 q 294 -137 271 -129 q 338 -153 318 -144 q 357 -182 357 -162 q 354 -199 357 -187 q 342 -222 351 -210 q 317 -242 333 -233 q 275 -250 301 -250 q 219 -241 250 -250 q 160 -212 188 -232 q 115 -162 133 -192 q 97 -90 97 -132 q 126 -7 97 -46 q 199 50 156 32 q 250 53 225 61 q 275 22 275 44 z "},"ˇ":{"ha":572,"x_min":82,"x_max":478,"o":"m 82 1108 q 90 1130 82 1118 q 109 1152 97 1142 q 133 1169 121 1163 q 156 1176 146 1176 q 185 1165 167 1176 q 224 1136 204 1153 q 262 1102 244 1119 q 286 1074 279 1085 q 308 1101 293 1085 q 341 1131 324 1117 q 376 1157 358 1146 q 406 1168 393 1168 q 429 1162 417 1168 q 452 1146 442 1156 q 470 1125 463 1136 q 478 1103 478 1114 q 474 1085 478 1092 q 464 1072 469 1078 q 433 1044 456 1064 q 384 1001 411 1024 q 329 963 357 979 q 282 946 301 946 q 229 967 263 946 q 163 1017 196 989 q 106 1072 131 1046 q 82 1108 82 1099 z "},"`":{"ha":418,"x_min":50,"x_max":361,"o":"m 51 983 q 64 1013 50 996 q 100 1049 78 1029 q 150 1087 122 1068 q 203 1121 178 1106 q 249 1146 228 1136 q 278 1156 269 1156 q 303 1151 289 1156 q 329 1138 317 1146 q 351 1119 342 1131 q 361 1096 360 1108 q 339 1064 361 1082 q 295 1034 324 1051 q 226 989 267 1017 q 151 944 179 956 q 103 932 122 932 q 88 938 97 932 q 72 951 79 943 q 58 967 64 958 q 51 983 51 976 z "},"ˆ":{"ha":539,"x_min":82,"x_max":478,"o":"m 82 1014 q 106 1050 82 1024 q 163 1105 131 1076 q 229 1155 196 1133 q 282 1176 263 1176 q 329 1160 301 1176 q 384 1121 357 1143 q 433 1078 411 1099 q 464 1050 456 1058 q 474 1038 469 1044 q 478 1019 478 1031 q 470 998 478 1010 q 452 976 463 986 q 429 960 442 967 q 406 954 417 954 q 376 965 393 954 q 341 991 358 976 q 308 1022 324 1006 q 286 1049 293 1039 q 262 1022 279 1039 q 224 988 244 1004 q 185 958 204 971 q 156 946 167 946 q 133 953 146 946 q 109 970 121 960 q 90 992 97 981 q 82 1014 82 1004 z "},"¨":{"ha":551,"x_min":83,"x_max":463,"o":"m 254 1072 q 249 1042 254 1058 q 234 1010 244 1025 q 208 986 224 996 q 168 976 192 976 q 110 999 136 976 q 83 1061 83 1021 q 103 1120 83 1094 q 168 1146 124 1146 q 229 1126 204 1146 q 254 1072 254 1106 m 463 1072 q 458 1042 463 1058 q 442 1010 453 1025 q 416 986 432 996 q 376 976 400 976 q 318 999 344 976 q 292 1061 292 1021 q 312 1120 292 1094 q 376 1146 332 1146 q 438 1126 413 1146 q 463 1072 463 1106 z "},"´":{"ha":421,"x_min":50,"x_max":361,"o":"m 51 983 q 64 1013 50 996 q 100 1049 78 1029 q 150 1087 122 1068 q 203 1121 178 1106 q 249 1146 228 1136 q 278 1156 269 1156 q 303 1151 289 1156 q 329 1138 317 1146 q 351 1119 342 1131 q 361 1096 360 1108 q 339 1064 361 1082 q 295 1034 324 1051 q 226 989 267 1017 q 151 944 179 956 q 103 932 122 932 q 88 938 97 932 q 72 951 79 943 q 58 967 64 958 q 51 983 51 976 z "},"¸":{"ha":422,"x_min":101,"x_max":364,"o":"m 118 -64 q 126 -33 118 -53 q 148 8 135 -12 q 179 42 161 28 q 215 57 197 57 q 224 56 221 57 q 229 56 228 56 q 253 39 249 51 q 256 13 257 26 q 252 -10 254 0 q 258 -21 250 -21 q 315 -33 294 -21 q 347 -62 336 -46 q 360 -97 357 -79 q 364 -125 364 -114 q 349 -180 364 -154 q 309 -224 335 -206 q 250 -254 283 -243 q 179 -265 217 -265 q 118 -251 135 -265 q 101 -217 101 -236 q 110 -181 101 -192 q 131 -167 118 -169 q 158 -166 143 -164 q 185 -167 172 -168 q 206 -161 197 -167 q 214 -137 214 -156 q 199 -101 214 -112 q 166 -85 183 -90 q 133 -77 149 -81 q 118 -64 118 -74 z "},"ß":{"ha":767,"x_min":43,"x_max":739,"o":"m 49 381 q 49 442 49 407 q 48 517 49 478 q 47 596 47 557 q 47 665 47 635 q 46 716 46 696 q 46 738 46 736 q 63 817 46 778 q 114 886 79 856 q 202 936 149 917 q 331 956 256 956 q 438 941 385 956 q 533 899 490 926 q 603 829 576 871 q 629 735 629 788 q 610 633 629 669 q 569 572 592 596 q 527 528 546 547 q 508 481 508 510 q 526 442 508 460 q 568 406 543 425 q 624 367 593 388 q 679 322 654 347 q 722 263 704 296 q 739 186 739 229 q 715 104 739 140 q 654 42 692 68 q 571 3 617 17 q 482 -11 525 -11 q 408 -2 443 -11 q 345 24 372 7 q 302 67 318 42 q 286 122 286 92 q 302 178 286 158 q 356 199 318 199 q 401 187 383 199 q 418 150 418 175 q 425 135 418 140 q 441 126 432 129 q 460 123 450 124 q 475 122 469 122 q 504 130 493 122 q 522 149 515 138 q 530 175 528 161 q 532 200 532 189 q 515 244 532 226 q 474 275 499 261 q 420 302 449 289 q 367 335 392 315 q 325 385 342 356 q 308 461 308 415 q 326 537 308 504 q 363 599 343 569 q 401 658 383 629 q 418 721 418 686 q 409 776 418 756 q 386 806 400 796 q 357 819 372 817 q 331 822 342 822 q 271 787 290 822 q 244 699 251 751 q 238 589 238 647 q 239 486 239 531 q 240 435 239 457 q 242 403 242 414 q 242 365 242 393 q 244 299 243 336 q 248 220 246 261 q 251 143 250 179 q 253 81 253 107 q 254 50 254 56 q 244 22 254 33 q 219 3 233 11 q 187 -8 204 -4 q 157 -11 169 -11 q 124 -8 143 -11 q 86 3 104 -4 q 56 23 68 11 q 43 50 43 35 q 44 88 43 56 q 46 167 44 119 q 48 270 47 214 q 49 381 49 326 z "},"ð":{"ha":694,"x_min":22,"x_max":674,"o":"m 329 -18 q 215 0 271 -18 q 117 58 160 18 q 48 160 74 97 q 22 310 22 222 q 96 546 22 461 q 321 631 169 631 q 351 628 333 631 q 387 621 369 626 q 420 608 404 615 q 446 590 436 601 q 419 651 440 614 q 374 722 399 688 q 321 682 347 700 q 274 663 293 663 q 253 667 263 663 q 238 678 244 671 q 222 694 229 685 q 210 715 214 704 q 208 738 206 726 q 222 757 210 749 q 232 765 228 761 q 240 772 236 769 l 278 801 q 287 809 282 806 q 296 815 292 813 q 233 867 264 847 q 189 903 201 888 q 188 937 176 918 q 222 969 199 956 q 274 988 244 983 q 326 979 303 993 q 369 949 350 965 q 425 901 389 932 q 442 918 432 908 q 461 935 453 928 q 497 947 481 947 q 535 938 521 947 q 560 913 550 928 q 567 901 563 908 q 572 885 571 893 q 569 867 572 876 q 556 850 567 858 q 549 845 553 847 q 543 840 546 843 l 519 821 q 513 816 517 818 q 507 811 510 814 q 574 708 543 764 q 626 591 604 651 q 661 470 649 531 q 674 354 674 410 q 651 219 674 286 q 585 100 629 153 q 477 15 542 47 q 329 -18 413 -18 m 351 506 q 297 488 322 506 q 254 444 272 471 q 226 383 236 417 q 217 315 217 349 q 249 179 217 228 q 342 131 281 131 q 428 163 393 131 q 481 242 464 196 q 498 340 499 289 q 476 431 497 392 q 423 486 457 467 q 351 506 389 506 z "},"±":{"ha":707,"x_min":88,"x_max":632,"o":"m 144 476 q 100 495 113 476 q 88 540 88 514 q 99 590 88 567 q 138 613 111 613 q 189 613 168 613 q 224 613 210 613 q 250 613 239 613 q 274 614 261 614 q 275 683 276 650 q 274 751 274 717 q 281 782 274 771 q 301 800 289 793 q 326 809 313 807 q 354 811 340 811 q 408 800 382 811 q 435 757 435 789 q 434 686 435 721 q 432 615 433 651 q 452 615 443 615 q 473 616 461 615 q 502 617 485 617 q 546 617 519 617 q 602 596 590 617 q 614 546 614 575 q 603 498 614 517 q 565 479 592 479 l 435 479 q 436 416 438 447 q 435 353 435 385 q 426 319 435 332 q 406 301 418 307 q 378 292 393 294 q 351 290 364 290 q 297 300 322 290 q 271 339 271 310 q 272 408 271 374 q 274 478 272 443 q 225 476 251 476 q 144 476 199 476 m 556 256 q 601 247 586 256 q 624 228 617 239 q 631 207 631 218 q 632 189 632 196 q 615 140 632 161 q 565 119 599 119 q 523 120 560 119 q 443 122 486 121 q 360 123 400 122 q 308 124 321 124 q 246 120 276 124 q 192 117 215 117 q 142 125 160 117 q 117 144 125 133 q 107 168 108 156 q 106 189 106 181 q 107 213 106 201 q 115 232 108 224 q 135 246 121 240 q 172 251 149 251 q 201 251 178 251 q 251 251 224 251 q 301 250 278 250 q 332 250 325 250 q 377 251 344 250 q 446 253 410 251 q 514 255 482 254 q 556 256 546 256 z "},"Þ":{"ha":651,"x_min":51,"x_max":621,"o":"m 175 -32 q 53 40 53 -32 l 53 363 q 53 445 53 396 q 53 550 53 494 q 52 661 53 606 q 51 761 51 717 q 51 835 51 806 q 51 867 51 864 q 63 888 51 879 q 92 901 75 896 q 126 908 108 906 q 158 910 144 910 q 189 908 172 910 q 221 900 206 906 q 247 884 236 894 q 257 858 257 874 q 257 828 257 851 q 256 774 257 804 q 406 756 339 774 q 522 698 474 738 q 595 596 569 658 q 621 443 621 533 q 608 324 621 389 q 562 203 596 258 q 468 110 528 147 q 313 72 408 72 q 257 76 285 72 q 255 30 257 50 q 244 -4 253 10 q 220 -25 236 -18 q 175 -32 204 -32 m 413 449 q 406 513 413 486 q 381 559 399 540 q 332 589 363 578 q 253 603 301 600 q 252 499 253 550 q 251 413 251 449 q 252 326 251 372 q 254 235 253 279 q 290 226 267 226 q 356 253 332 226 q 393 315 381 279 q 409 389 406 351 q 413 449 413 426 z "},"þ":{"ha":651,"x_min":51,"x_max":621,"o":"m 175 -32 q 53 40 53 -32 l 53 363 q 53 445 53 396 q 53 550 53 494 q 52 661 53 606 q 51 761 51 717 q 51 835 51 806 q 51 867 51 864 q 63 888 51 879 q 92 901 75 896 q 126 908 108 906 q 158 910 144 910 q 189 908 172 910 q 221 900 206 906 q 247 884 236 894 q 257 858 257 874 q 257 828 257 851 q 256 774 257 804 q 406 756 339 774 q 522 698 474 738 q 595 596 569 658 q 621 443 621 533 q 608 324 621 389 q 562 203 596 258 q 468 110 528 147 q 313 72 408 72 q 257 76 285 72 q 255 30 257 50 q 244 -4 253 10 q 220 -25 236 -18 q 175 -32 204 -32 m 413 449 q 406 513 413 486 q 381 559 399 540 q 332 589 363 578 q 253 603 301 600 q 252 499 253 550 q 251 413 251 449 q 252 326 251 372 q 254 235 253 279 q 290 226 267 226 q 356 253 332 226 q 393 315 381 279 q 409 389 406 351 q 413 449 413 426 z "},"a":{"ha":667,"x_min":8,"x_max":653,"o":"m 111 -22 q 81 -20 99 -22 q 47 -12 63 -18 q 19 4 31 -7 q 8 33 8 15 q 15 80 8 43 q 35 171 22 117 q 63 292 47 225 q 95 429 78 360 q 129 567 113 499 q 160 692 146 636 q 185 790 175 749 q 201 846 196 831 q 251 896 213 881 q 342 911 289 911 q 427 899 394 911 q 475 854 460 886 q 485 817 476 853 q 506 724 493 781 q 534 596 518 668 q 566 449 550 524 q 598 301 582 374 q 626 172 614 229 q 645 78 638 114 q 653 39 653 42 q 641 8 653 18 q 613 -8 629 -3 q 577 -15 596 -14 q 544 -15 558 -15 q 467 1 488 -15 q 436 56 446 18 q 428 97 432 75 q 418 147 425 119 l 388 147 l 325 149 l 294 149 q 259 149 276 149 q 224 147 242 149 q 213 85 218 115 q 201 22 208 54 q 188 -2 199 7 q 165 -15 178 -11 q 138 -21 151 -19 q 111 -22 124 -22 m 397 293 q 361 484 382 386 q 328 682 340 582 q 289 488 307 590 q 251 293 271 385 l 397 293 z "},"b":{"ha":663,"x_min":43,"x_max":638,"o":"m 43 729 q 44 822 43 785 q 61 883 46 860 q 110 914 76 906 q 208 919 144 922 l 385 913 q 485 892 443 911 q 556 840 528 872 q 597 766 583 808 q 610 676 610 724 q 560 515 610 575 q 432 451 511 454 l 432 447 q 587 386 536 443 q 638 233 638 329 q 552 37 638 103 q 315 -29 467 -29 l 171 -24 q 117 -11 140 -22 q 76 18 93 0 q 51 57 60 36 q 43 99 43 78 l 43 729 m 249 758 q 248 683 249 715 q 247 626 247 651 q 245 578 246 600 q 244 535 244 557 q 265 533 256 533 q 285 532 275 532 q 381 569 344 532 q 418 667 418 606 q 390 738 418 718 q 311 758 363 758 l 249 758 m 244 364 q 243 311 244 338 q 241 261 242 285 q 239 219 240 238 q 238 192 238 200 q 260 136 238 153 q 332 119 283 119 q 415 142 386 119 q 443 217 443 164 q 244 364 443 364 z "},"c":{"ha":651,"x_min":28,"x_max":625,"o":"m 356 -43 q 228 -17 288 -43 q 124 63 168 10 q 53 198 79 117 q 28 389 28 279 q 42 594 28 497 q 92 763 57 690 q 188 877 128 835 q 342 919 249 919 q 428 907 386 919 q 503 874 471 894 q 555 824 535 853 q 576 763 575 796 l 585 508 q 545 472 576 485 q 482 458 514 458 q 439 468 457 458 q 421 499 421 478 l 410 694 q 388 735 408 721 q 340 750 368 750 q 293 722 314 750 q 258 644 272 693 q 236 530 243 594 q 229 393 229 465 q 237 293 229 343 q 260 203 244 243 q 301 138 276 163 q 363 113 326 113 q 407 126 389 113 q 438 161 425 140 q 460 208 451 182 q 476 258 469 233 q 503 276 481 272 q 544 281 525 281 q 599 267 572 281 q 625 225 625 253 q 608 125 625 174 q 556 39 590 76 q 472 -21 522 1 q 356 -43 422 -43 z "},"d":{"ha":657,"x_min":42,"x_max":629,"o":"m 42 731 q 45 802 42 769 q 59 858 49 835 q 87 897 69 882 q 133 913 104 911 l 271 919 q 402 909 338 922 q 517 847 467 896 q 598 706 567 799 q 629 457 629 614 q 617 287 629 375 q 566 125 604 199 q 457 4 528 51 q 271 -43 386 -43 q 197 -39 229 -43 q 133 -29 164 -35 q 69 8 93 -22 q 43 88 46 39 q 43 140 43 103 q 44 219 43 176 q 45 301 44 261 q 46 363 46 342 q 45 439 46 394 q 44 533 44 483 q 42 635 43 583 q 42 731 42 686 m 246 151 q 246 144 246 149 q 250 135 246 139 q 266 127 254 131 q 300 124 278 124 q 359 151 336 124 q 396 223 382 178 q 415 328 410 268 q 421 454 421 388 q 412 612 421 553 q 383 701 403 671 q 333 741 364 732 q 257 750 301 750 l 249 750 q 244 451 246 604 q 246 151 242 297 z "},"e":{"ha":561,"x_min":42,"x_max":531,"o":"m 44 768 q 48 831 44 806 q 62 872 51 856 q 91 894 72 888 q 140 903 110 901 q 235 905 183 904 q 333 906 286 906 q 419 906 381 906 q 475 907 457 907 q 510 883 494 907 q 525 825 525 860 q 514 773 525 799 q 467 747 503 747 q 386 747 443 747 q 251 740 329 746 q 249 632 250 694 q 249 517 249 569 q 307 517 282 517 q 353 518 332 518 q 394 519 375 518 q 436 519 414 519 q 478 498 464 519 q 492 450 492 476 q 480 396 493 421 q 442 372 467 371 q 399 372 419 372 q 355 372 378 372 q 306 370 332 371 q 247 369 281 369 q 249 253 249 314 q 251 143 250 192 l 488 143 q 519 117 507 143 q 529 58 531 90 q 514 1 528 26 q 471 -24 500 -24 q 359 -24 408 -24 q 270 -26 310 -25 q 197 -27 231 -26 q 132 -28 164 -28 q 90 -19 107 -28 q 62 2 72 -11 q 47 29 51 15 q 42 53 42 43 l 42 226 l 44 594 l 44 768 z "},"f":{"ha":515,"x_min":42,"x_max":486,"o":"m 429 903 q 470 876 454 904 q 486 808 486 849 q 475 751 486 778 q 436 725 464 724 l 239 736 l 238 454 l 399 449 q 451 372 451 442 q 439 313 451 336 q 404 290 426 290 q 394 292 397 290 l 374 292 q 363 293 369 293 l 281 297 q 260 299 269 299 q 239 300 250 300 l 240 56 q 221 5 240 25 q 139 -15 201 -15 q 67 3 90 -15 q 44 53 44 21 l 42 731 q 55 860 42 814 q 113 906 68 906 l 429 903 z "},"g":{"ha":668,"x_min":26,"x_max":643,"o":"m 360 922 q 438 915 400 922 q 507 894 476 908 q 558 858 538 879 q 582 806 578 836 l 610 629 q 610 578 615 597 q 591 547 606 558 q 552 532 576 536 q 494 528 528 528 q 453 535 475 528 q 431 567 431 543 l 413 704 q 395 740 410 726 q 363 753 381 753 q 299 724 325 753 q 258 644 274 694 q 235 528 242 594 q 228 386 228 461 q 232 292 228 339 q 251 206 236 244 q 293 144 265 168 q 367 121 321 121 q 419 138 399 121 q 453 182 440 156 q 471 238 465 208 q 476 294 476 268 l 414 294 q 386 303 396 294 q 371 323 376 311 q 364 349 365 335 q 363 372 363 363 q 374 420 363 403 q 401 438 385 438 l 436 438 l 499 439 l 560 439 q 573 439 567 439 q 586 438 579 439 q 617 421 606 435 q 634 389 628 407 q 642 351 640 371 q 643 315 643 331 q 628 176 643 242 q 579 63 614 111 q 489 -15 544 14 q 351 -43 433 -43 q 201 -4 263 -43 q 100 96 139 35 q 44 235 61 157 q 26 389 26 313 q 31 503 26 443 q 47 624 35 564 q 82 737 60 683 q 142 832 104 790 q 233 898 179 874 q 360 922 286 922 z "},"h":{"ha":668,"x_min":42,"x_max":626,"o":"m 42 43 l 42 247 l 43 654 l 43 858 q 74 889 43 882 q 142 896 106 896 q 216 885 192 896 q 240 847 240 875 q 242 803 240 839 q 244 715 243 767 q 245 603 244 663 q 243 489 246 543 q 295 489 275 489 q 333 489 315 489 q 372 490 351 489 q 424 492 392 490 q 424 601 424 539 q 423 719 424 663 q 422 815 422 775 q 421 860 421 856 q 433 881 421 872 q 463 894 446 889 q 499 901 481 899 q 531 903 518 903 q 561 901 544 903 q 592 893 578 899 q 617 877 607 888 q 626 851 626 867 q 624 451 626 651 q 621 50 621 251 q 590 -11 621 3 q 517 -25 560 -25 q 490 -22 507 -25 q 458 -12 474 -19 q 430 10 442 -4 q 418 49 418 25 q 417 101 418 67 q 416 178 417 136 q 415 263 415 219 q 417 344 415 307 l 242 342 q 242 245 242 292 q 242 159 242 199 q 243 88 243 119 q 243 39 243 57 q 125 -25 243 -25 q 101 -24 115 -25 q 73 -16 86 -22 q 51 4 60 -10 q 42 43 42 18 z "},"i":{"ha":358,"x_min":1,"x_max":353,"o":"m 207 -22 l 183 -22 q 165 -22 176 -22 q 140 -19 153 -22 l 54 -17 q 22 3 35 -15 q 10 56 8 21 q 12 96 10 81 q 19 119 14 111 q 33 130 24 128 q 57 132 42 132 l 79 132 q 80 207 79 169 q 81 281 81 244 l 83 581 q 84 654 83 617 q 85 729 85 692 l 64 729 q 17 833 1 729 q 31 885 21 867 q 61 906 42 904 l 311 914 q 331 905 322 914 q 344 881 339 896 q 351 849 349 867 q 353 818 353 832 q 340 760 353 789 q 297 732 326 732 l 285 732 q 284 657 285 694 q 283 582 283 619 l 281 279 q 280 204 281 242 q 279 129 279 167 l 297 129 q 353 71 353 129 q 351 40 353 57 q 344 8 349 24 q 331 -16 339 -7 q 311 -25 322 -25 l 207 -22 z "},"j":{"ha":338,"x_min":-53,"x_max":296,"o":"m -21 -50 q 65 -15 38 -43 q 92 58 92 14 q 92 207 92 132 q 93 360 92 282 l 96 565 q 97 718 97 643 q 97 867 97 793 q 108 888 97 879 q 135 901 119 896 q 167 908 150 906 q 199 910 185 910 q 229 908 213 910 q 260 900 246 906 q 285 884 275 894 q 296 858 296 874 q 293 453 296 656 q 290 47 290 250 q 107 -201 290 -151 l 17 -226 q -15 -221 -1 -232 q -37 -190 -29 -210 q -49 -147 -46 -171 q -51 -103 -53 -124 q -42 -67 -50 -82 q -21 -50 -35 -51 z "},"k":{"ha":636,"x_min":42,"x_max":640,"o":"m 144 -22 q 67 -3 92 -22 q 42 69 42 17 l 42 849 q 71 885 42 867 q 142 903 100 903 q 216 885 189 903 q 243 839 243 868 q 242 801 243 835 q 241 720 242 768 q 240 615 240 672 q 239 508 239 558 q 311 596 275 547 q 377 692 347 644 q 430 782 407 740 q 461 849 453 824 q 491 893 472 881 q 544 906 510 906 q 625 844 625 906 q 607 765 625 815 q 556 658 589 715 q 479 541 524 600 q 381 436 435 482 q 475 304 425 371 q 561 182 525 238 l 636 67 q 640 51 640 61 q 629 22 640 38 q 601 -8 618 6 q 563 -29 583 -21 q 524 -37 543 -37 q 481 -17 496 -37 l 413 79 q 327 209 367 143 q 256 335 288 275 l 239 318 q 240 237 239 279 q 241 156 240 194 q 242 89 242 118 q 243 47 243 60 q 235 10 243 24 q 215 -11 228 -4 q 183 -20 201 -18 q 144 -22 165 -22 z "},"l":{"ha":476,"x_min":42,"x_max":469,"o":"m 125 -28 q 82 -15 99 -28 q 56 16 65 -3 q 44 58 47 35 q 42 101 42 81 l 42 843 q 51 872 42 860 q 73 892 60 883 q 103 903 86 900 q 135 907 119 907 q 219 878 196 907 q 243 800 243 850 q 241 492 243 663 q 242 143 239 322 l 411 143 q 447 117 431 143 q 466 60 463 92 q 456 3 469 29 q 404 -24 443 -24 q 291 -24 332 -24 q 224 -24 250 -24 q 177 -26 197 -25 q 125 -28 157 -26 z "},"m":{"ha":972,"x_min":49,"x_max":935,"o":"m 49 44 q 50 115 49 64 q 54 235 51 165 q 60 387 57 304 q 68 552 64 469 q 76 711 72 635 q 83 844 79 788 q 117 894 86 879 q 196 910 147 910 q 269 899 244 910 q 315 860 293 888 q 346 803 329 843 q 381 713 363 764 q 417 605 399 663 q 453 493 436 547 q 483 393 469 439 q 507 319 497 347 q 526 383 513 339 q 556 483 539 426 q 590 600 572 539 q 625 715 608 661 q 655 807 642 768 q 675 857 668 846 q 768 908 707 908 q 816 905 793 908 q 857 892 839 901 q 886 868 875 883 q 897 831 897 853 q 901 741 899 803 q 908 601 904 679 q 917 435 913 522 q 926 272 922 349 q 932 134 929 194 q 935 49 935 74 q 905 -19 935 -6 q 828 -32 875 -32 q 781 -25 799 -32 q 753 -4 763 -18 q 740 30 743 10 q 735 76 736 50 q 731 178 732 121 q 728 297 729 235 q 726 424 728 360 q 722 547 725 489 q 701 478 715 525 q 671 373 688 431 q 635 253 654 315 q 597 139 615 192 q 561 49 578 86 q 532 6 544 13 q 511 -2 522 0 q 489 -4 500 -4 q 469 -3 479 -4 q 451 6 458 -1 q 419 56 438 18 q 380 148 400 94 q 340 263 360 201 q 301 383 319 325 q 268 490 283 442 q 243 564 253 538 l 243 515 q 244 400 243 454 q 247 294 246 346 q 249 188 247 242 q 250 72 250 133 q 228 -17 250 11 q 142 -44 207 -44 q 74 -20 100 -44 q 49 44 49 4 z "},"n":{"ha":726,"x_min":42,"x_max":689,"o":"m 42 844 q 51 874 42 863 q 74 893 60 886 q 105 903 88 900 q 139 906 122 906 q 201 900 175 906 q 243 872 226 894 q 267 834 256 857 q 291 786 279 811 q 314 737 303 761 q 333 694 325 713 q 376 608 356 649 q 415 527 396 567 q 455 447 435 488 q 497 363 475 407 q 494 410 494 386 q 493 457 493 433 q 492 560 493 511 q 490 655 490 608 q 488 750 489 701 q 486 853 486 799 q 514 894 486 881 q 586 908 542 908 q 618 906 600 908 q 651 898 636 904 q 678 881 667 892 q 689 851 689 869 q 681 444 689 647 q 672 38 672 242 q 664 3 672 15 q 642 -15 656 -10 q 612 -22 629 -21 q 578 -22 594 -22 q 526 -8 550 -22 q 486 29 503 7 q 451 83 472 47 q 405 163 429 118 q 355 256 381 207 q 306 352 329 306 q 262 438 282 399 q 229 500 242 476 q 238 272 236 381 q 240 44 240 164 q 212 -10 240 4 q 150 -24 183 -24 q 119 -22 138 -24 q 84 -14 101 -19 q 54 2 67 -8 q 42 29 42 13 l 42 844 z "},"o":{"ha":714,"x_min":28,"x_max":686,"o":"m 361 -43 q 115 72 201 -43 q 28 389 28 186 q 41 594 28 497 q 90 763 54 690 q 190 877 126 835 q 354 919 253 919 q 520 885 456 919 q 622 790 585 851 q 672 645 658 729 q 686 461 686 561 q 671 243 686 338 q 619 85 656 149 q 519 -10 582 22 q 361 -43 457 -43 m 236 393 q 267 201 236 274 q 363 129 297 129 q 419 151 396 129 q 456 214 442 174 q 475 311 469 254 q 481 439 481 368 q 476 547 481 493 q 457 642 471 600 q 419 709 443 683 q 356 735 394 735 q 293 705 317 735 q 257 626 269 675 q 240 517 244 578 q 236 393 236 456 z "},"p":{"ha":631,"x_min":39,"x_max":617,"o":"m 39 63 q 40 396 39 233 q 42 731 42 558 q 49 812 42 776 q 78 871 57 847 q 139 907 100 894 q 240 919 178 919 q 393 910 324 919 q 513 869 463 901 q 590 776 563 838 q 617 607 617 714 q 602 469 617 535 q 552 356 588 404 q 458 278 517 307 q 311 249 399 249 q 280 250 300 249 q 240 254 260 251 q 242 157 240 200 q 244 60 244 114 q 216 -5 244 13 q 153 -22 188 -22 q 68 1 97 -22 q 39 63 39 25 m 239 374 q 252 372 246 372 q 265 372 258 372 q 387 426 350 372 q 424 578 424 481 q 389 717 424 669 q 303 761 354 764 l 235 757 q 235 675 235 719 q 236 586 235 631 q 238 501 238 542 q 239 428 239 460 l 239 374 z "},"q":{"ha":736,"x_min":28,"x_max":701,"o":"m 329 -42 q 109 78 190 -29 q 28 389 28 186 q 46 594 28 497 q 104 763 64 690 q 210 877 144 835 q 369 919 275 919 q 526 885 463 919 q 629 790 590 851 q 685 645 668 729 q 701 461 701 561 q 693 322 701 394 q 662 184 685 250 q 599 65 639 118 q 499 -17 560 13 q 539 -62 522 -44 q 564 -83 556 -79 q 584 -109 582 -92 q 573 -144 586 -126 q 533 -176 560 -162 q 467 -190 506 -190 q 433 -177 450 -190 q 397 -143 415 -164 q 363 -96 379 -122 q 329 -42 346 -69 m 364 753 q 307 720 332 753 q 265 635 282 688 q 240 519 249 583 q 232 393 232 456 q 263 202 232 272 q 360 132 293 132 q 427 155 400 132 q 471 219 454 178 q 494 319 488 261 q 501 449 501 378 q 494 558 501 503 q 469 656 486 613 q 426 726 453 699 q 364 753 400 753 z "},"r":{"ha":643,"x_min":42,"x_max":629,"o":"m 44 731 q 48 808 44 774 q 67 868 51 843 q 114 906 83 893 q 199 919 144 919 q 390 909 310 919 q 520 868 469 899 q 594 783 571 838 q 618 638 618 728 q 572 456 618 536 q 449 338 525 375 q 503 256 476 296 q 553 182 531 217 l 625 67 q 629 51 629 61 q 618 22 629 38 q 590 -8 607 6 q 552 -29 572 -21 q 513 -37 532 -37 q 469 -17 485 -37 l 404 79 q 331 199 364 139 q 267 314 297 258 l 239 314 q 240 238 239 279 q 241 157 240 196 q 242 88 242 118 q 243 47 243 58 q 236 10 243 24 q 217 -11 229 -4 q 191 -20 206 -18 q 161 -22 176 -22 q 42 50 42 -22 l 42 219 l 44 561 l 44 731 m 239 758 q 238 683 239 725 q 237 598 238 642 q 236 513 236 554 q 236 439 236 472 l 286 439 q 348 454 322 439 q 391 493 374 469 q 417 548 408 517 q 425 610 425 579 q 394 720 425 682 q 304 758 364 758 l 239 758 z "},"s":{"ha":647,"x_min":19,"x_max":626,"o":"m 221 175 q 258 130 232 150 q 329 110 285 110 q 398 136 374 110 q 422 199 422 163 q 393 253 422 229 q 321 303 364 278 q 226 357 278 328 q 132 425 175 386 q 60 516 89 464 q 31 639 31 568 q 53 751 31 700 q 116 840 76 803 q 210 899 156 878 q 329 919 265 919 q 458 893 403 919 q 549 828 514 867 q 599 747 585 790 q 604 668 613 703 l 582 582 q 567 559 579 569 q 539 542 556 549 q 503 533 522 535 q 468 536 485 532 q 424 558 444 543 q 408 593 403 574 l 426 668 q 424 701 431 685 q 403 729 417 717 q 372 750 390 742 q 333 758 354 758 q 258 723 289 758 q 228 635 228 688 q 258 556 228 588 q 331 498 288 524 q 427 448 375 472 q 523 392 479 424 q 597 317 567 360 q 626 210 626 274 q 601 105 626 151 q 534 26 576 58 q 436 -25 492 -7 q 319 -43 381 -43 q 238 -33 278 -43 q 167 -6 199 -22 q 112 33 135 11 q 79 79 89 56 l 26 204 q 20 233 21 217 q 24 267 19 250 q 42 297 29 283 q 74 319 54 311 q 133 322 106 332 q 167 297 160 313 l 221 175 z "},"t":{"ha":553,"x_min":11,"x_max":538,"o":"m 61 725 q 40 733 49 725 q 24 756 31 742 q 15 787 18 769 q 11 822 11 804 q 23 878 11 854 q 53 901 35 901 q 104 901 69 901 q 182 901 139 901 q 273 901 225 901 q 364 901 321 901 q 442 902 407 901 q 493 903 476 903 q 513 894 504 903 q 526 872 521 886 q 535 840 532 858 q 538 806 538 822 q 526 756 538 778 q 489 733 515 733 q 448 731 469 733 q 382 726 426 729 q 381 387 379 556 q 383 47 383 218 q 377 10 383 24 q 358 -11 371 -4 q 328 -20 346 -18 q 290 -22 311 -22 q 214 -3 246 -22 q 182 51 182 15 q 185 388 182 215 q 185 725 188 560 l 61 725 z "},"u":{"ha":658,"x_min":38,"x_max":618,"o":"m 254 -15 q 188 -6 225 -15 q 117 33 150 4 q 61 117 83 63 q 39 260 39 171 q 39 380 39 313 q 38 523 39 447 q 38 678 38 599 q 38 833 38 758 q 62 879 38 856 q 138 903 86 903 q 210 881 183 903 q 236 801 236 860 l 236 369 q 241 274 236 311 q 256 214 246 236 q 281 183 267 192 q 314 174 296 174 q 350 185 332 174 q 384 221 368 197 q 410 281 400 244 q 422 369 421 318 q 424 460 424 407 q 424 576 424 514 q 423 708 424 639 q 422 844 422 776 q 432 873 422 861 q 456 891 442 885 q 489 900 471 897 q 522 903 507 903 q 554 900 538 903 q 585 890 571 897 q 609 867 600 882 q 618 828 618 853 q 617 442 618 639 q 615 47 615 246 q 607 9 615 24 q 585 -14 599 -6 q 555 -25 571 -22 q 522 -28 539 -28 q 458 -12 482 -28 q 433 43 433 3 q 435 57 433 46 q 438 82 436 68 q 442 108 440 96 q 443 125 443 121 q 415 80 433 104 q 374 34 397 56 q 319 -1 350 13 q 254 -15 289 -15 z "},"v":{"ha":647,"x_min":4,"x_max":643,"o":"m 308 -29 q 278 -28 294 -29 q 244 -24 261 -28 q 214 -12 228 -19 q 192 10 200 -4 q 180 50 189 14 q 157 142 171 86 q 126 268 143 197 q 93 413 110 339 q 60 558 76 486 q 32 688 44 629 q 12 785 19 746 q 4 833 4 825 q 15 867 4 854 q 42 888 25 881 q 79 899 58 896 q 121 903 100 903 q 181 891 161 903 q 218 849 201 879 q 225 816 219 846 q 238 740 231 786 q 253 634 244 693 q 270 513 261 575 q 288 389 279 450 q 303 276 296 328 q 317 186 311 224 q 325 135 322 149 q 349 256 338 192 q 373 388 361 321 q 397 519 385 454 q 421 642 408 583 q 429 687 424 658 q 440 745 435 715 q 451 802 446 775 q 460 844 456 829 q 488 892 468 881 q 544 903 508 903 q 578 898 561 903 q 610 883 596 893 q 634 861 625 874 q 643 833 643 849 q 631 755 643 818 q 599 606 618 692 q 556 422 579 519 q 512 238 533 324 q 474 90 490 151 q 450 14 457 28 q 426 -8 444 0 q 386 -22 408 -17 q 342 -28 364 -26 q 308 -29 321 -29 z "},"w":{"ha":881,"x_min":18,"x_max":868,"o":"m 118 40 q 95 168 107 94 q 72 322 83 242 q 51 483 61 403 q 34 632 42 564 q 22 749 26 700 q 18 817 18 799 q 40 881 18 864 q 100 897 61 897 q 136 894 119 897 q 167 881 153 890 q 189 853 181 871 q 200 804 197 835 q 205 753 200 797 q 215 657 210 710 q 225 555 221 604 q 229 486 229 506 q 238 392 229 451 q 246 269 246 332 q 263 332 251 286 q 290 438 275 378 q 322 566 304 499 q 355 691 339 633 q 385 791 371 749 q 410 843 400 833 q 438 858 425 858 q 465 847 447 858 q 502 795 483 836 q 540 697 521 754 q 576 576 558 640 q 607 453 593 511 q 631 349 621 394 q 646 286 642 304 q 665 538 656 407 q 685 788 675 668 q 695 845 688 824 q 715 878 703 867 q 742 893 726 889 q 774 897 757 897 q 843 879 818 897 q 868 821 868 861 q 862 740 868 797 q 847 607 856 682 q 826 449 838 532 q 806 293 815 367 q 789 165 796 219 q 781 92 782 110 q 756 12 778 44 q 690 -21 735 -21 q 626 -13 647 -21 q 589 8 604 -6 q 557 60 574 22 q 521 156 540 99 q 480 286 501 213 q 435 446 458 360 q 392 284 410 358 q 360 153 375 210 q 333 58 346 96 q 306 6 321 19 q 263 -16 290 -8 q 217 -24 236 -24 q 187 -19 203 -24 q 156 -5 171 -14 q 131 16 142 4 q 118 40 121 28 z "},"x":{"ha":688,"x_min":7,"x_max":676,"o":"m 10 46 q 32 110 13 68 q 81 202 51 151 q 146 308 111 253 q 214 414 181 364 q 190 455 207 425 q 150 524 172 485 q 104 609 128 564 q 60 695 81 654 q 26 769 40 736 q 10 817 13 801 q 16 851 7 836 q 42 878 25 867 q 79 894 58 889 q 121 900 100 900 q 161 894 143 900 q 196 857 179 888 q 219 814 201 847 q 258 738 236 781 q 303 648 281 694 q 343 563 326 601 q 389 654 365 606 q 433 746 413 703 q 467 821 453 789 q 488 863 482 853 q 520 897 500 886 q 576 903 540 907 q 634 884 613 899 q 656 833 656 869 q 642 788 656 819 q 609 715 629 756 q 565 632 589 675 q 518 550 540 589 q 478 482 496 511 q 454 443 461 453 q 526 334 488 396 q 599 215 565 272 q 654 116 632 158 q 676 65 676 74 q 647 5 676 25 q 583 -15 617 -15 q 533 -10 556 -15 q 499 15 510 -4 q 477 50 497 19 q 431 124 457 81 q 375 215 404 167 q 325 301 346 263 q 274 201 299 250 q 229 113 250 153 q 193 46 208 74 q 169 8 178 18 q 136 -14 161 -3 q 82 -19 111 -25 q 22 4 38 -12 q 10 46 7 21 z "},"y":{"ha":647,"x_min":35,"x_max":621,"o":"m 254 307 q 164 321 204 307 q 97 368 124 335 q 55 457 69 401 q 40 597 40 513 q 40 634 40 608 q 41 694 40 660 q 42 767 42 728 q 42 844 42 806 q 70 884 42 867 q 139 901 99 901 q 178 897 158 901 q 213 881 197 892 q 239 851 229 869 q 249 808 249 833 q 247 770 249 797 q 244 710 246 743 q 240 643 242 678 q 238 583 238 608 q 251 511 238 536 q 317 486 265 486 q 383 511 357 486 q 415 589 408 536 q 419 657 419 618 q 417 733 419 696 q 413 799 415 769 q 410 838 410 828 q 422 871 410 858 q 453 891 435 883 q 492 901 471 899 q 528 903 513 903 q 560 901 543 903 q 590 892 576 899 q 612 875 603 886 q 621 846 621 864 q 619 786 621 836 q 614 670 617 736 q 609 537 611 604 q 607 426 607 469 q 610 323 607 372 q 613 231 613 274 q 583 105 613 157 q 510 19 554 53 q 414 -30 467 -14 q 314 -46 361 -46 q 197 -28 243 -46 q 125 18 150 -10 l 49 106 q 39 147 35 122 q 58 196 43 172 q 93 236 72 219 q 135 253 114 253 q 164 239 151 253 l 235 157 q 276 119 254 133 q 322 106 299 106 q 424 286 424 106 l 424 385 q 394 349 414 364 q 351 325 375 335 q 302 311 328 315 q 254 307 276 307 z "},"z":{"ha":631,"x_min":38,"x_max":606,"o":"m 107 -28 q 53 1 69 -29 q 38 75 38 32 q 41 174 38 124 q 68 261 44 225 q 144 365 100 310 q 235 478 189 421 q 322 590 281 535 q 389 694 363 646 l 392 736 q 301 735 347 736 q 215 734 256 735 q 140 733 174 733 q 88 732 107 732 q 62 746 72 732 q 46 781 51 760 q 40 828 40 803 q 43 874 39 853 q 56 909 47 894 q 78 924 65 924 q 130 923 94 924 q 209 921 165 922 q 300 917 253 919 q 390 914 347 915 q 465 910 432 913 q 510 908 497 908 q 567 887 546 907 q 589 832 589 867 q 588 801 589 825 q 585 749 588 778 q 579 692 583 719 q 568 651 575 665 q 487 522 533 588 q 394 397 440 457 q 306 284 347 336 q 240 196 265 232 l 239 139 q 316 144 278 139 q 392 154 354 149 q 469 165 431 160 q 547 169 508 169 q 583 141 567 169 q 602 78 599 113 q 592 14 606 43 q 540 -15 579 -15 q 282 -21 394 -15 q 107 -28 169 -26 z "},"¡":{"ha":419,"x_min":100,"x_max":311,"o":"m 119 651 q 126 685 119 667 q 144 717 132 703 q 175 742 157 732 q 218 751 193 751 q 283 728 254 751 q 311 663 311 706 q 289 599 311 626 q 219 572 267 572 q 149 594 179 572 q 119 651 119 615 m 300 -126 q 277 -177 300 -158 q 214 -196 254 -196 q 182 -193 201 -196 q 144 -183 163 -190 q 113 -164 126 -176 q 100 -132 100 -151 q 107 17 100 -57 q 122 166 114 92 q 136 315 129 240 q 143 464 143 389 q 165 510 143 494 q 219 525 188 525 q 285 467 285 525 q 292 171 285 317 q 300 -126 300 25 z "},"¿":{"ha":664,"x_min":44,"x_max":614,"o":"m 297 640 q 303 672 297 656 q 322 703 310 689 q 353 728 335 718 q 396 738 372 738 q 458 715 432 738 q 485 650 485 692 q 464 590 485 617 q 397 564 443 564 q 328 584 358 564 q 297 640 297 604 m 460 100 q 476 131 460 118 q 515 146 493 144 q 544 142 528 146 q 576 127 561 138 q 600 101 590 117 q 611 63 610 85 q 589 -40 614 7 q 524 -119 564 -86 q 433 -169 483 -151 q 335 -187 383 -187 q 132 -128 211 -187 q 47 43 53 -69 q 66 144 44 103 q 121 216 88 185 q 193 273 154 247 q 263 328 232 299 q 313 394 294 357 q 325 485 332 431 q 330 506 324 497 q 346 518 336 514 q 367 524 356 522 q 389 526 379 526 q 440 517 414 526 q 468 478 465 508 q 456 372 472 417 q 411 294 439 328 q 350 232 383 260 q 288 177 317 204 q 241 119 260 150 q 224 47 222 88 q 235 -5 225 15 q 262 -36 246 -25 q 295 -51 278 -47 q 329 -56 313 -56 q 385 -40 361 -56 q 426 -1 410 -25 q 451 49 443 22 q 460 100 460 76 z "},"":{"ha":1582,"x_min":38,"x_max":1525,"o":"m 138 103 q 111 105 128 103 q 78 111 94 107 q 51 124 63 115 q 39 144 39 132 q 48 199 39 154 q 72 305 57 243 q 103 438 86 367 q 135 572 119 508 q 164 683 151 636 q 181 746 176 731 q 199 766 185 758 q 229 778 213 774 q 263 783 246 782 q 292 785 281 785 q 319 783 303 785 q 353 778 336 782 q 383 767 369 774 q 401 749 396 760 q 413 702 403 747 q 438 590 424 657 q 469 447 453 524 q 501 303 486 369 q 525 191 515 236 q 535 143 535 146 q 524 119 535 128 q 497 108 513 111 q 465 103 481 104 q 439 103 449 103 q 391 111 407 103 q 367 135 375 119 q 356 174 360 151 q 346 226 353 197 q 302 227 324 226 q 257 228 281 228 q 235 228 244 228 q 213 226 225 228 q 205 182 208 204 q 196 136 201 160 q 174 108 192 113 q 138 103 157 103 m 332 333 q 309 474 321 401 q 288 617 297 546 q 260 475 272 550 q 233 333 249 400 l 332 333 m 560 736 q 569 757 560 749 q 590 771 578 765 q 617 778 603 776 q 640 781 631 781 q 678 774 660 781 q 710 751 697 767 q 742 691 726 728 q 769 628 758 654 q 825 503 800 561 q 883 379 850 444 q 881 415 881 397 q 881 449 881 432 q 878 599 881 528 q 875 750 875 671 q 887 767 875 761 q 914 777 899 774 q 944 782 929 781 q 965 783 958 783 q 987 781 975 783 q 1008 775 999 779 q 1025 763 1018 771 q 1032 742 1032 754 q 1026 444 1032 592 q 1021 147 1021 297 q 999 108 1021 114 q 950 103 976 103 q 913 114 931 103 q 883 140 896 125 q 846 203 863 168 q 814 271 829 239 q 760 378 785 329 q 703 485 735 428 q 710 319 710 397 q 711 153 711 240 q 687 113 711 124 q 638 101 663 101 q 616 103 629 101 q 590 108 603 104 q 569 120 578 113 q 560 140 560 128 l 560 736 m 1090 653 q 1097 723 1090 694 q 1123 768 1104 751 q 1174 792 1142 785 q 1260 799 1207 799 q 1343 788 1297 799 q 1430 740 1389 776 q 1498 638 1471 704 q 1525 458 1525 571 q 1514 331 1525 397 q 1473 211 1503 265 q 1391 122 1443 157 q 1257 88 1339 88 q 1215 91 1243 88 q 1160 105 1188 94 q 1111 134 1132 115 q 1090 183 1090 153 q 1090 222 1090 194 q 1090 280 1090 249 q 1091 340 1090 311 q 1092 383 1092 369 q 1092 440 1092 407 q 1091 509 1092 472 q 1090 583 1090 546 q 1090 653 1090 621 m 1251 231 q 1257 206 1251 215 q 1279 197 1263 197 q 1326 225 1310 197 q 1351 290 1343 253 q 1360 367 1358 328 q 1361 428 1361 406 q 1358 549 1361 503 q 1343 622 1354 596 q 1312 657 1332 647 q 1260 667 1292 667 l 1253 667 q 1251 449 1251 561 q 1251 231 1251 336 m 1428 982 q 1476 974 1460 982 q 1500 955 1493 965 q 1508 933 1507 944 q 1508 915 1508 922 q 1490 867 1508 888 q 1425 846 1471 846 l 411 846 q 329 845 372 846 q 250 844 286 844 q 187 844 214 844 q 151 843 160 843 q 97 851 117 843 q 68 871 78 860 q 57 894 58 882 q 56 915 56 907 q 57 939 56 928 q 67 958 58 950 q 91 972 75 967 q 136 978 107 978 l 372 978 q 427 978 379 978 q 549 978 475 978 q 715 979 622 979 q 904 980 808 979 q 1092 981 1000 981 q 1258 981 1185 981 q 1377 982 1331 982 q 1428 982 1424 982 m 474 943 q 492 925 474 925 q 508 943 508 925 q 492 960 508 960 q 474 943 474 960 m 458 942 q 444 956 458 956 l 111 956 q 97 942 97 956 q 106 928 97 931 q 122 926 115 926 q 282 927 197 926 q 442 928 367 928 q 453 931 449 928 q 458 942 458 935 m 1428 44 q 1476 36 1460 44 q 1500 17 1493 28 q 1508 -5 1507 7 q 1508 -22 1508 -17 q 1490 -71 1508 -50 q 1425 -92 1471 -92 l 411 -92 q 326 -92 372 -92 q 241 -93 281 -93 q 172 -94 201 -93 q 133 -94 142 -94 q 79 -86 99 -94 q 50 -67 60 -78 q 39 -43 40 -56 q 38 -22 38 -31 q 39 1 38 -10 q 49 21 40 13 q 73 35 57 29 q 118 40 89 40 l 372 40 q 427 40 379 40 q 549 41 475 40 q 715 42 622 42 q 904 42 808 42 q 1092 43 1000 43 q 1258 44 1185 43 q 1377 44 1331 44 q 1428 44 1424 44 z "},"":{"ha":1096,"x_min":36,"x_max":1063,"o":"m 974 979 q 1026 971 1008 979 q 1053 952 1044 963 q 1062 931 1061 942 q 1063 913 1063 919 q 1047 864 1063 885 q 1004 843 1032 843 q 969 843 1001 843 q 885 844 936 843 q 773 844 835 844 q 649 845 711 844 q 533 846 588 846 q 444 846 479 846 q 344 845 393 846 q 254 844 294 844 q 187 844 214 844 q 151 843 160 843 q 97 851 117 843 q 68 871 78 860 q 57 894 58 882 q 56 915 56 907 q 57 939 56 928 q 67 958 58 950 q 91 972 75 967 q 136 978 107 978 l 372 978 q 428 978 381 978 q 540 978 475 978 q 680 978 606 978 q 818 979 754 979 q 926 979 882 979 q 974 979 969 979 m 474 943 q 492 925 474 925 q 508 943 508 925 q 492 960 508 960 q 474 943 474 960 m 458 942 q 444 956 458 956 l 111 956 q 97 942 97 956 q 106 928 97 931 q 122 926 115 926 q 282 927 197 926 q 442 928 367 928 q 453 931 449 928 q 458 942 458 935 m 979 44 q 1028 36 1011 44 q 1051 17 1044 28 q 1059 -5 1058 7 q 1060 -22 1060 -17 q 1041 -71 1060 -50 q 976 -92 1022 -92 l 411 -92 q 326 -92 372 -92 q 241 -93 281 -93 q 172 -94 201 -93 q 133 -94 142 -94 q 79 -86 99 -94 q 50 -67 60 -78 q 39 -43 40 -56 q 38 -22 38 -31 q 39 1 38 -10 q 49 21 40 13 q 73 35 57 29 q 118 40 89 40 l 372 40 q 427 40 381 40 q 540 41 474 40 q 680 42 606 42 q 819 44 754 43 q 928 44 883 44 q 979 44 974 44 m 286 76 q 101 163 167 76 q 36 401 36 249 q 48 556 36 483 q 88 682 60 628 q 163 768 117 736 q 281 800 210 800 q 399 774 351 800 q 476 703 447 749 q 518 594 506 657 q 531 456 531 531 q 519 292 531 363 q 481 173 508 221 q 406 101 453 125 q 286 76 358 76 m 204 404 q 222 260 204 314 q 288 206 239 206 q 328 222 313 206 q 351 269 343 239 q 362 343 360 300 q 364 439 364 386 q 361 520 364 481 q 350 591 358 560 q 326 642 342 622 q 282 661 310 661 q 243 638 258 661 q 219 579 228 615 q 208 497 211 543 q 204 404 204 450 m 581 656 q 584 714 581 688 q 604 759 588 740 q 655 788 621 778 q 749 799 689 799 q 841 791 793 799 q 928 760 889 783 q 992 695 967 738 q 1017 585 1017 653 q 978 434 1017 492 q 860 363 939 376 q 918 298 892 332 q 965 235 944 264 q 1001 185 986 206 q 1022 161 1015 164 q 1036 142 1036 156 q 1024 114 1036 128 q 990 90 1013 100 q 939 79 968 79 q 878 102 906 79 q 826 159 850 125 q 781 231 803 193 q 740 300 760 269 q 743 201 742 247 q 744 138 744 154 q 737 109 744 119 q 718 93 729 99 q 694 86 707 88 q 669 85 681 85 q 579 139 579 85 q 580 397 579 269 q 581 656 581 525 m 743 671 q 741 560 742 619 q 740 450 740 500 q 756 440 749 442 q 764 439 763 439 q 808 449 792 439 q 834 476 825 460 q 847 515 843 493 q 850 560 850 536 q 833 648 850 614 q 771 682 815 682 q 756 679 760 682 q 743 671 753 676 z "},"…":{"ha":1075,"x_min":90,"x_max":1011,"o":"m 294 101 q 267 25 294 56 q 188 -6 240 -6 q 120 19 150 -6 q 90 90 90 44 q 115 163 90 129 q 188 196 139 196 q 263 172 231 196 q 294 101 294 149 m 653 101 q 626 25 653 56 q 546 -6 599 -6 q 478 19 508 -6 q 449 90 449 44 q 473 163 449 129 q 546 196 497 196 q 621 172 589 196 q 653 101 653 149 m 1011 101 q 984 25 1011 56 q 904 -6 957 -6 q 837 19 867 -6 q 807 90 807 44 q 831 163 807 129 q 904 196 856 196 q 979 172 947 196 q 1011 101 1011 149 z "},"ı":{"ha":358,"x_min":1,"x_max":353,"o":"m 207 -22 l 183 -22 q 165 -22 176 -22 q 140 -19 153 -22 l 54 -17 q 22 3 35 -15 q 10 56 8 21 q 12 96 10 81 q 19 119 14 111 q 33 130 24 128 q 57 132 42 132 l 79 132 q 82 431 81 282 q 85 729 83 579 l 64 729 q 17 833 1 729 q 31 885 21 867 q 61 906 42 904 l 311 914 q 331 905 322 914 q 344 881 339 896 q 351 849 349 867 q 353 818 353 832 q 340 760 353 789 q 297 732 326 732 l 285 732 q 282 431 283 581 q 279 129 281 281 l 297 129 q 353 71 353 129 q 351 40 353 57 q 344 8 349 24 q 331 -16 339 -7 q 311 -25 322 -25 l 207 -22 z "},"ﬁ":{"ha":874,"x_min":42,"x_max":868,"o":"m 722 -22 l 699 -22 q 680 -22 692 -22 q 656 -19 668 -22 l 569 -17 q 537 3 550 -15 q 525 56 524 21 q 527 96 525 81 q 534 119 529 111 q 548 130 539 128 q 572 132 557 132 l 594 132 q 597 431 596 282 q 600 729 599 579 l 579 729 q 532 833 517 729 q 547 885 536 867 q 576 906 557 904 l 826 914 q 846 905 838 914 q 859 881 854 896 q 866 849 864 867 q 868 818 868 832 q 855 760 868 789 q 813 732 842 732 l 800 732 q 797 431 799 581 q 794 129 796 281 l 813 129 q 868 71 868 129 q 866 40 868 57 q 859 8 864 24 q 846 -16 854 -7 q 826 -25 838 -25 l 722 -22 m 429 903 q 470 876 454 904 q 486 808 486 849 q 475 751 486 778 q 436 725 464 724 l 239 736 l 238 454 l 399 449 q 451 372 451 442 q 439 313 451 336 q 404 290 426 290 q 383 292 393 292 q 363 293 374 292 l 281 297 q 260 299 269 299 q 239 300 250 300 l 240 56 q 221 5 240 25 q 139 -15 201 -15 q 67 3 90 -15 q 44 53 44 21 l 42 731 q 55 860 42 814 q 113 906 68 906 l 429 903 z "},"ﬂ":{"ha":992,"x_min":42,"x_max":985,"o":"m 640 -28 q 597 -15 614 -28 q 572 16 581 -3 q 560 58 563 35 q 557 101 557 81 l 557 843 q 566 872 557 860 q 588 892 575 883 q 618 903 601 900 q 650 907 635 907 q 735 878 711 907 q 758 800 758 850 q 756 492 758 663 q 757 143 754 322 l 926 143 q 962 117 946 143 q 981 60 978 92 q 972 3 985 29 q 919 -24 958 -24 q 806 -24 847 -24 q 739 -24 765 -24 q 692 -26 713 -25 q 640 -28 672 -26 m 429 903 q 470 876 454 904 q 486 808 486 849 q 475 751 486 778 q 436 725 464 724 l 239 736 l 238 454 l 399 449 q 451 372 451 442 q 439 313 451 336 q 404 290 426 290 q 383 292 393 292 q 363 293 374 292 l 281 297 q 260 299 269 299 q 239 300 250 300 l 240 56 q 221 5 240 25 q 139 -15 201 -15 q 67 3 90 -15 q 44 53 44 21 l 42 731 q 55 860 42 814 q 113 906 68 906 l 429 903 z "},"À":{"ha":674,"x_min":0,"x_max":683,"o":"m 182 983 q 194 1013 181 996 q 231 1049 208 1029 q 281 1087 253 1068 q 333 1121 308 1106 q 379 1146 358 1136 q 408 1156 400 1156 q 433 1151 419 1156 q 460 1138 447 1146 q 481 1119 472 1131 q 492 1096 490 1108 q 469 1064 492 1082 q 426 1034 454 1051 q 357 989 397 1017 q 281 944 310 956 q 233 932 253 932 q 219 938 228 932 q 202 951 210 943 q 188 967 194 958 q 182 983 182 976 m 121 -32 q 35 -17 71 -32 q 0 17 0 -3 q 8 64 0 26 q 28 158 15 101 q 58 285 42 214 q 94 430 75 356 q 131 578 113 504 q 167 714 150 651 l 100 717 q 40 740 58 719 q 22 806 22 761 q 26 850 22 829 q 38 886 31 871 q 56 910 46 901 q 79 917 67 918 l 439 892 q 456 882 449 892 q 468 856 463 872 q 478 818 474 839 q 488 775 483 797 q 513 655 497 729 q 546 495 528 581 q 583 323 564 410 q 615 165 601 236 l 649 161 q 676 127 668 158 q 683 58 683 96 q 670 7 683 24 q 642 -12 657 -10 q 563 -17 597 -19 q 493 -4 529 -14 q 459 18 472 1 q 437 58 446 35 q 422 110 428 82 q 410 168 417 139 q 344 169 378 168 q 263 169 311 169 q 250 169 257 169 q 238 169 244 169 q 221 168 231 169 q 215 133 218 153 q 209 91 213 113 q 202 50 206 69 q 194 18 199 31 q 172 -22 186 -11 q 121 -32 157 -32 m 389 314 q 373 407 381 363 q 358 494 365 451 q 342 580 350 536 q 326 672 335 624 q 303 563 314 611 q 282 472 292 514 q 264 392 272 431 q 249 314 256 354 l 389 314 z "},"Á":{"ha":674,"x_min":0,"x_max":683,"o":"m 182 983 q 194 1013 181 996 q 231 1049 208 1029 q 281 1087 253 1068 q 333 1121 308 1106 q 379 1146 358 1136 q 408 1156 400 1156 q 433 1151 419 1156 q 460 1138 447 1146 q 481 1119 472 1131 q 492 1096 490 1108 q 469 1064 492 1082 q 426 1034 454 1051 q 357 989 397 1017 q 281 944 310 956 q 233 932 253 932 q 219 938 228 932 q 202 951 210 943 q 188 967 194 958 q 182 983 182 976 m 121 -32 q 35 -17 71 -32 q 0 17 0 -3 q 8 64 0 26 q 28 158 15 101 q 58 285 42 214 q 94 430 75 356 q 131 578 113 504 q 167 714 150 651 l 100 717 q 40 740 58 719 q 22 806 22 761 q 26 850 22 829 q 38 886 31 871 q 56 910 46 901 q 79 917 67 918 l 439 892 q 456 882 449 892 q 468 856 463 872 q 478 818 474 839 q 488 775 483 797 q 513 655 497 729 q 546 495 528 581 q 583 323 564 410 q 615 165 601 236 l 649 161 q 676 127 668 158 q 683 58 683 96 q 670 7 683 24 q 642 -12 657 -10 q 563 -17 597 -19 q 493 -4 529 -14 q 459 18 472 1 q 437 58 446 35 q 422 110 428 82 q 410 168 417 139 q 344 169 378 168 q 263 169 311 169 q 250 169 257 169 q 238 169 244 169 q 221 168 231 169 q 215 133 218 153 q 209 91 213 113 q 202 50 206 69 q 194 18 199 31 q 172 -22 186 -11 q 121 -32 157 -32 m 389 314 q 373 407 381 363 q 358 494 365 451 q 342 580 350 536 q 326 672 335 624 q 303 563 314 611 q 282 472 292 514 q 264 392 272 431 q 249 314 256 354 l 389 314 z "},"Â":{"ha":674,"x_min":0,"x_max":683,"o":"m 139 1014 q 163 1050 139 1024 q 220 1105 188 1076 q 286 1155 253 1133 q 339 1176 319 1176 q 386 1160 358 1176 q 441 1121 414 1143 q 490 1078 468 1099 q 521 1050 513 1058 q 531 1038 526 1044 q 535 1019 535 1031 q 527 998 535 1010 q 509 976 519 986 q 486 960 499 967 q 463 954 474 954 q 433 965 450 954 q 398 991 415 976 q 365 1022 381 1006 q 343 1049 350 1039 q 319 1022 336 1039 q 281 988 301 1004 q 242 958 261 971 q 213 946 224 946 q 190 953 203 946 q 166 970 178 960 q 147 992 154 981 q 139 1014 139 1004 m 121 -32 q 35 -17 71 -32 q 0 17 0 -3 q 8 64 0 26 q 28 158 15 101 q 58 285 42 214 q 94 430 75 356 q 131 578 113 504 q 167 714 150 651 l 100 717 q 40 740 58 719 q 22 806 22 761 q 26 850 22 829 q 38 886 31 871 q 56 910 46 901 q 79 917 67 918 l 439 892 q 456 882 449 892 q 468 856 463 872 q 478 818 474 839 q 488 775 483 797 q 513 655 497 729 q 546 495 528 581 q 583 323 564 410 q 615 165 601 236 l 649 161 q 676 127 668 158 q 683 58 683 96 q 670 7 683 24 q 642 -12 657 -10 q 563 -17 597 -19 q 493 -4 529 -14 q 459 18 472 1 q 437 58 446 35 q 422 110 428 82 q 410 168 417 139 q 344 169 378 168 q 263 169 311 169 q 250 169 257 169 q 238 169 244 169 q 221 168 231 169 q 215 133 218 153 q 209 91 213 113 q 202 50 206 69 q 194 18 199 31 q 172 -22 186 -11 q 121 -32 157 -32 m 389 314 q 373 407 381 363 q 358 494 365 451 q 342 580 350 536 q 326 672 335 624 q 303 563 314 611 q 282 472 292 514 q 264 392 272 431 q 249 314 256 354 l 389 314 z "},"Ã":{"ha":674,"x_min":0,"x_max":683,"o":"m 494 1160 q 531 1139 517 1160 q 544 1082 544 1118 q 536 1029 544 1054 q 513 985 528 1004 q 478 956 499 967 q 433 944 458 944 q 381 955 403 944 q 340 978 358 965 q 306 1001 322 990 q 272 1011 290 1011 q 242 997 249 1011 q 235 972 235 983 q 222 953 235 961 q 190 944 210 944 q 149 967 167 944 q 131 1033 131 989 q 140 1081 131 1058 q 165 1122 149 1104 q 203 1150 182 1139 q 250 1161 225 1161 q 303 1149 279 1161 q 347 1124 326 1138 q 385 1099 368 1111 q 418 1088 403 1088 q 433 1094 428 1088 q 441 1108 438 1100 q 447 1126 444 1117 q 456 1143 450 1136 q 494 1160 468 1160 m 121 -32 q 35 -17 71 -32 q 0 17 0 -3 q 8 64 0 26 q 28 158 15 101 q 58 285 42 214 q 94 430 75 356 q 131 578 113 504 q 167 714 150 651 l 100 717 q 40 740 58 719 q 22 806 22 761 q 26 850 22 829 q 38 886 31 871 q 56 910 46 901 q 79 917 67 918 l 439 892 q 456 882 449 892 q 468 856 463 872 q 478 818 474 839 q 488 775 483 797 q 513 655 497 729 q 546 495 528 581 q 583 323 564 410 q 615 165 601 236 l 649 161 q 676 127 668 158 q 683 58 683 96 q 670 7 683 24 q 642 -12 657 -10 q 563 -17 597 -19 q 493 -4 529 -14 q 459 18 472 1 q 437 58 446 35 q 422 110 428 82 q 410 168 417 139 q 344 169 378 168 q 263 169 311 169 q 250 169 257 169 q 238 169 244 169 q 221 168 231 169 q 215 133 218 153 q 209 91 213 113 q 202 50 206 69 q 194 18 199 31 q 172 -22 186 -11 q 121 -32 157 -32 m 389 314 q 373 407 381 363 q 358 494 365 451 q 342 580 350 536 q 326 672 335 624 q 303 563 314 611 q 282 472 292 514 q 264 392 272 431 q 249 314 256 354 l 389 314 z "},"Ä":{"ha":674,"x_min":0,"x_max":683,"o":"m 318 1072 q 313 1042 318 1058 q 298 1010 308 1025 q 272 986 288 996 q 232 976 256 976 q 174 999 200 976 q 147 1061 147 1021 q 167 1120 147 1094 q 232 1146 188 1146 q 293 1126 268 1146 q 318 1072 318 1106 m 526 1072 q 522 1042 526 1058 q 506 1010 517 1025 q 480 986 496 996 q 440 976 464 976 q 382 999 408 976 q 356 1061 356 1021 q 376 1120 356 1094 q 440 1146 396 1146 q 501 1126 476 1146 q 526 1072 526 1106 m 121 -32 q 35 -17 71 -32 q 0 17 0 -3 q 8 64 0 26 q 28 158 15 101 q 58 285 42 214 q 94 430 75 356 q 131 578 113 504 q 167 714 150 651 l 100 717 q 40 740 58 719 q 22 806 22 761 q 26 850 22 829 q 38 886 31 871 q 56 910 46 901 q 79 917 67 918 l 439 892 q 456 882 449 892 q 468 856 463 872 q 478 818 474 839 q 488 775 483 797 q 513 655 497 729 q 546 495 528 581 q 583 323 564 410 q 615 165 601 236 l 649 161 q 676 127 668 158 q 683 58 683 96 q 670 7 683 24 q 642 -12 657 -10 q 563 -17 597 -19 q 493 -4 529 -14 q 459 18 472 1 q 437 58 446 35 q 422 110 428 82 q 410 168 417 139 q 344 169 378 168 q 263 169 311 169 q 250 169 257 169 q 238 169 244 169 q 221 168 231 169 q 215 133 218 153 q 209 91 213 113 q 202 50 206 69 q 194 18 199 31 q 172 -22 186 -11 q 121 -32 157 -32 m 389 314 q 373 407 381 363 q 358 494 365 451 q 342 580 350 536 q 326 672 335 624 q 303 563 314 611 q 282 472 292 514 q 264 392 272 431 q 249 314 256 354 l 389 314 z "},"Å":{"ha":674,"x_min":0,"x_max":683,"o":"m 194 1065 q 205 1117 194 1093 q 235 1161 215 1142 q 281 1192 254 1181 q 340 1203 307 1203 q 441 1166 403 1203 q 479 1078 479 1129 q 442 979 479 1019 q 342 939 404 939 q 286 949 313 939 q 240 976 260 958 q 207 1016 219 993 q 194 1065 194 1039 m 307 1072 q 316 1048 307 1056 q 340 1040 325 1040 q 374 1075 374 1040 q 365 1099 374 1092 q 342 1107 356 1107 q 314 1095 321 1107 q 307 1072 307 1083 m 121 -32 q 35 -17 71 -32 q 0 17 0 -3 q 8 64 0 26 q 28 158 15 101 q 58 285 42 214 q 94 430 75 356 q 131 578 113 504 q 167 714 150 651 l 100 717 q 40 740 58 719 q 22 806 22 761 q 26 850 22 829 q 38 886 31 871 q 56 910 46 901 q 79 917 67 918 l 439 892 q 456 882 449 892 q 468 856 463 872 q 478 818 474 839 q 488 775 483 797 q 513 655 497 729 q 546 495 528 581 q 583 323 564 410 q 615 165 601 236 l 649 161 q 676 127 668 158 q 683 58 683 96 q 670 7 683 24 q 642 -12 657 -10 q 563 -17 597 -19 q 493 -4 529 -14 q 459 18 472 1 q 437 58 446 35 q 422 110 428 82 q 410 168 417 139 q 344 169 378 168 q 263 169 311 169 q 250 169 257 169 q 238 169 244 169 q 221 168 231 169 q 215 133 218 153 q 209 91 213 113 q 202 50 206 69 q 194 18 199 31 q 172 -22 186 -11 q 121 -32 157 -32 m 389 314 q 373 407 381 363 q 358 494 365 451 q 342 580 350 536 q 326 672 335 624 q 303 563 314 611 q 282 472 292 514 q 264 392 272 431 q 249 314 256 354 l 389 314 z "},"Ç":{"ha":610,"x_min":14,"x_max":606,"o":"m 190 -64 q 204 -19 190 -50 q 63 142 111 25 q 14 440 14 258 q 97 802 14 678 q 335 926 179 926 q 494 879 432 926 q 568 749 556 832 l 597 553 q 501 490 606 490 q 450 498 467 490 q 429 525 433 506 l 394 704 q 339 754 385 754 q 247 669 278 754 q 215 421 215 585 q 245 194 215 265 q 338 124 275 124 q 409 151 379 124 q 439 218 439 178 q 525 281 439 281 q 582 262 565 281 q 599 199 599 243 q 542 44 599 108 q 396 -39 486 -19 q 429 -83 422 -57 q 436 -125 436 -110 q 422 -180 436 -154 q 381 -224 407 -206 q 322 -254 356 -243 q 251 -265 289 -265 q 190 -251 207 -265 q 174 -217 174 -236 q 182 -181 174 -192 q 203 -167 190 -169 q 230 -166 215 -164 q 257 -167 244 -168 q 278 -161 269 -167 q 286 -137 286 -156 q 271 -101 286 -112 q 238 -85 256 -90 q 206 -77 221 -81 q 190 -64 190 -74 z "},"Ð":{"ha":717,"x_min":-18,"x_max":681,"o":"m 324 -33 q 224 -22 269 -33 q 146 11 179 -10 q 94 60 113 32 q 75 122 75 89 l 71 435 l 36 435 q -7 447 0 435 q -14 478 -14 460 q -8 517 -14 501 q 25 533 -3 533 l 68 533 l 65 753 q 3 768 25 754 q -15 819 -18 782 q 11 902 -10 874 q 82 926 32 931 l 285 918 q 463 890 388 914 q 586 816 538 867 q 658 685 635 765 q 681 486 681 604 q 591 97 681 228 q 324 -33 501 -33 m 267 201 q 328 122 267 122 q 391 149 363 122 q 440 222 419 175 q 472 333 461 268 q 483 474 483 397 q 431 688 483 625 q 276 750 378 750 l 265 750 l 265 535 q 301 535 283 535 q 335 536 319 536 q 357 531 350 536 q 367 517 364 525 q 369 500 369 508 q 369 488 369 492 q 359 451 369 467 q 332 435 349 436 q 308 436 321 436 q 267 436 294 436 l 267 201 z "},"Đ":{"ha":717,"x_min":-18,"x_max":681,"o":"m 324 -33 q 224 -22 269 -33 q 146 11 179 -10 q 94 60 113 32 q 75 122 75 89 l 71 435 l 36 435 q -7 447 0 435 q -14 478 -14 460 q -8 517 -14 501 q 25 533 -3 533 l 68 533 l 65 753 q 3 768 25 754 q -15 819 -18 782 q 11 902 -10 874 q 82 926 32 931 l 285 918 q 463 890 388 914 q 586 816 538 867 q 658 685 635 765 q 681 486 681 604 q 591 97 681 228 q 324 -33 501 -33 m 267 201 q 328 122 267 122 q 391 149 363 122 q 440 222 419 175 q 472 333 461 268 q 483 474 483 397 q 431 688 483 625 q 276 750 378 750 l 265 750 l 265 535 q 301 535 283 535 q 335 536 319 536 q 357 531 350 536 q 367 517 364 525 q 369 500 369 508 q 369 488 369 492 q 359 451 369 467 q 332 435 349 436 q 308 436 321 436 q 267 436 294 436 l 267 201 z "},"È":{"ha":531,"x_min":-29,"x_max":531,"o":"m 111 983 q 124 1013 110 996 q 160 1049 138 1029 q 210 1087 182 1068 q 263 1121 238 1106 q 308 1146 288 1136 q 338 1156 329 1156 q 363 1151 349 1156 q 389 1138 376 1146 q 410 1119 401 1131 q 421 1096 419 1108 q 399 1064 421 1082 q 355 1034 383 1051 q 286 989 326 1017 q 210 944 239 956 q 163 932 182 932 q 148 938 157 932 q 131 951 139 943 q 117 967 124 958 q 111 983 111 976 m 135 -22 q 99 -14 117 -22 q 67 8 81 -6 q 44 40 53 22 q 36 75 36 57 l 36 713 q -13 726 3 707 q -29 810 -29 746 q 1 865 -29 847 q 100 889 31 883 l 442 917 q 478 890 461 918 q 500 824 496 861 q 447 753 507 760 l 232 731 l 232 531 l 401 531 q 458 468 458 531 q 448 406 458 428 q 418 383 438 383 l 232 383 l 232 150 l 360 150 q 444 224 356 224 q 531 160 531 224 q 528 136 531 150 q 524 108 526 122 q 519 80 521 93 q 515 58 517 67 q 497 13 511 29 q 462 -10 482 -3 q 417 -19 442 -17 q 371 -21 393 -21 q 297 -22 335 -22 q 217 -22 258 -22 l 135 -22 z "},"É":{"ha":531,"x_min":-29,"x_max":531,"o":"m 111 983 q 124 1013 110 996 q 160 1049 138 1029 q 210 1087 182 1068 q 263 1121 238 1106 q 308 1146 288 1136 q 338 1156 329 1156 q 363 1151 349 1156 q 389 1138 376 1146 q 410 1119 401 1131 q 421 1096 419 1108 q 399 1064 421 1082 q 355 1034 383 1051 q 286 989 326 1017 q 210 944 239 956 q 163 932 182 932 q 148 938 157 932 q 131 951 139 943 q 117 967 124 958 q 111 983 111 976 m 135 -22 q 99 -14 117 -22 q 67 8 81 -6 q 44 40 53 22 q 36 75 36 57 l 36 713 q -13 726 3 707 q -29 810 -29 746 q 1 865 -29 847 q 100 889 31 883 l 442 917 q 478 890 461 918 q 500 824 496 861 q 447 753 507 760 l 232 731 l 232 531 l 401 531 q 458 468 458 531 q 448 406 458 428 q 418 383 438 383 l 232 383 l 232 150 l 360 150 q 444 224 356 224 q 531 160 531 224 q 528 136 531 150 q 524 108 526 122 q 519 80 521 93 q 515 58 517 67 q 497 13 511 29 q 462 -10 482 -3 q 417 -19 442 -17 q 371 -21 393 -21 q 297 -22 335 -22 q 217 -22 258 -22 l 135 -22 z "},"Ê":{"ha":531,"x_min":-29,"x_max":531,"o":"m 67 1014 q 91 1050 67 1024 q 148 1105 115 1076 q 214 1155 181 1133 q 267 1176 247 1176 q 314 1160 286 1176 q 369 1121 342 1143 q 418 1078 396 1099 q 449 1050 440 1058 q 458 1038 454 1044 q 463 1019 463 1031 q 455 998 463 1010 q 437 976 447 986 q 414 960 426 967 q 390 954 401 954 q 360 965 378 954 q 326 991 343 976 q 293 1022 308 1006 q 271 1049 278 1039 q 247 1022 264 1039 q 209 988 229 1004 q 170 958 189 971 q 140 946 151 946 q 118 953 131 946 q 94 970 106 960 q 74 992 82 981 q 67 1014 67 1004 m 135 -22 q 99 -14 117 -22 q 67 8 81 -6 q 44 40 53 22 q 36 75 36 57 l 36 713 q -13 726 3 707 q -29 810 -29 746 q 1 865 -29 847 q 100 889 31 883 l 442 917 q 478 890 461 918 q 500 824 496 861 q 447 753 507 760 l 232 731 l 232 531 l 401 531 q 458 468 458 531 q 448 406 458 428 q 418 383 438 383 l 232 383 l 232 150 l 360 150 q 444 224 356 224 q 531 160 531 224 q 528 136 531 150 q 524 108 526 122 q 519 80 521 93 q 515 58 517 67 q 497 13 511 29 q 462 -10 482 -3 q 417 -19 442 -17 q 371 -21 393 -21 q 297 -22 335 -22 q 217 -22 258 -22 l 135 -22 z "},"Ë":{"ha":531,"x_min":-29,"x_max":531,"o":"m 246 1072 q 241 1042 246 1058 q 226 1010 236 1025 q 199 986 215 996 q 160 976 183 976 q 101 999 128 976 q 75 1061 75 1021 q 95 1120 75 1094 q 160 1146 115 1146 q 221 1126 196 1146 q 246 1072 246 1106 m 454 1072 q 449 1042 454 1058 q 434 1010 444 1025 q 408 986 424 996 q 368 976 392 976 q 310 999 336 976 q 283 1061 283 1021 q 303 1120 283 1094 q 368 1146 324 1146 q 429 1126 404 1146 q 454 1072 454 1106 m 135 -22 q 99 -14 117 -22 q 67 8 81 -6 q 44 40 53 22 q 36 75 36 57 l 36 713 q -13 726 3 707 q -29 810 -29 746 q 1 865 -29 847 q 100 889 31 883 l 442 917 q 478 890 461 918 q 500 824 496 861 q 447 753 507 760 l 232 731 l 232 531 l 401 531 q 458 468 458 531 q 448 406 458 428 q 418 383 438 383 l 232 383 l 232 150 l 360 150 q 444 224 356 224 q 531 160 531 224 q 528 136 531 150 q 524 108 526 122 q 519 80 521 93 q 515 58 517 67 q 497 13 511 29 q 462 -10 482 -3 q 417 -19 442 -17 q 371 -21 393 -21 q 297 -22 335 -22 q 217 -22 258 -22 l 135 -22 z "},"Ì":{"ha":414,"x_min":-6,"x_max":407,"o":"m 53 983 q 65 1013 51 996 q 101 1049 79 1029 q 151 1087 124 1068 q 204 1121 179 1106 q 250 1146 229 1136 q 279 1156 271 1156 q 304 1151 290 1156 q 331 1138 318 1146 q 352 1119 343 1131 q 363 1096 361 1108 q 340 1064 363 1082 q 297 1034 325 1051 q 228 989 268 1017 q 152 944 181 956 q 104 932 124 932 q 90 938 99 932 q 73 951 81 943 q 59 967 65 958 q 53 983 53 976 m 360 907 q 379 899 371 907 q 392 877 388 890 q 399 848 397 864 q 401 818 401 832 q 388 760 401 789 q 346 732 375 732 l 311 732 q 311 643 311 688 q 310 554 311 599 l 307 353 q 306 251 306 301 q 306 150 306 201 l 351 150 q 394 122 381 150 q 407 64 407 93 q 405 34 407 50 q 398 5 403 18 q 385 -17 393 -8 q 365 -25 376 -25 l 60 -17 q 15 49 24 -17 q 63 153 0 153 l 106 153 q 106 248 106 201 q 107 343 106 294 l 110 551 q 111 640 111 596 q 111 729 111 685 l 57 729 q 10 833 -6 729 q 54 899 18 899 l 360 907 z "},"Í":{"ha":414,"x_min":-6,"x_max":407,"o":"m 53 983 q 65 1013 51 996 q 101 1049 79 1029 q 151 1087 124 1068 q 204 1121 179 1106 q 250 1146 229 1136 q 279 1156 271 1156 q 304 1151 290 1156 q 331 1138 318 1146 q 352 1119 343 1131 q 363 1096 361 1108 q 340 1064 363 1082 q 297 1034 325 1051 q 228 989 268 1017 q 152 944 181 956 q 104 932 124 932 q 90 938 99 932 q 73 951 81 943 q 59 967 65 958 q 53 983 53 976 m 360 907 q 379 899 371 907 q 392 877 388 890 q 399 848 397 864 q 401 818 401 832 q 388 760 401 789 q 346 732 375 732 l 311 732 q 311 643 311 688 q 310 554 311 599 l 307 353 q 306 251 306 301 q 306 150 306 201 l 351 150 q 394 122 381 150 q 407 64 407 93 q 405 34 407 50 q 398 5 403 18 q 385 -17 393 -8 q 365 -25 376 -25 l 60 -17 q 15 49 24 -17 q 63 153 0 153 l 106 153 q 106 248 106 201 q 107 343 106 294 l 110 551 q 111 640 111 596 q 111 729 111 685 l 57 729 q 10 833 -6 729 q 54 899 18 899 l 360 907 z "},"Î":{"ha":414,"x_min":-6,"x_max":407,"o":"m 8 1014 q 33 1050 8 1024 q 90 1105 57 1076 q 156 1155 122 1133 q 208 1176 189 1176 q 256 1160 228 1176 q 310 1121 283 1143 q 360 1078 338 1099 q 390 1050 382 1058 q 400 1038 396 1044 q 404 1019 404 1031 q 397 998 404 1010 q 378 976 389 986 q 356 960 368 967 q 332 954 343 954 q 302 965 319 954 q 267 991 285 976 q 235 1022 250 1006 q 213 1049 219 1039 q 188 1022 206 1039 q 151 988 171 1004 q 112 958 131 971 q 82 946 93 946 q 60 953 72 946 q 35 970 47 960 q 16 992 24 981 q 8 1014 8 1004 m 360 907 q 379 899 371 907 q 392 877 388 890 q 399 848 397 864 q 401 818 401 832 q 388 760 401 789 q 346 732 375 732 l 311 732 q 311 643 311 688 q 310 554 311 599 l 307 353 q 306 251 306 301 q 306 150 306 201 l 351 150 q 394 122 381 150 q 407 64 407 93 q 405 34 407 50 q 398 5 403 18 q 385 -17 393 -8 q 365 -25 376 -25 l 60 -17 q 15 49 24 -17 q 63 153 0 153 l 106 153 q 106 248 106 201 q 107 343 106 294 l 110 551 q 111 640 111 596 q 111 729 111 685 l 57 729 q 10 833 -6 729 q 54 899 18 899 l 360 907 z "},"Ï":{"ha":414,"x_min":-6,"x_max":407,"o":"m 188 1072 q 183 1042 188 1058 q 167 1010 178 1025 q 141 986 157 996 q 101 976 125 976 q 43 999 69 976 q 17 1061 17 1021 q 37 1120 17 1094 q 101 1146 57 1146 q 163 1126 138 1146 q 188 1072 188 1106 m 396 1072 q 391 1042 396 1058 q 376 1010 386 1025 q 349 986 365 996 q 310 976 333 976 q 251 999 278 976 q 225 1061 225 1021 q 245 1120 225 1094 q 310 1146 265 1146 q 371 1126 346 1146 q 396 1072 396 1106 m 360 907 q 379 899 371 907 q 392 877 388 890 q 399 848 397 864 q 401 818 401 832 q 388 760 401 789 q 346 732 375 732 l 311 732 q 311 643 311 688 q 310 554 311 599 l 307 353 q 306 251 306 301 q 306 150 306 201 l 351 150 q 394 122 381 150 q 407 64 407 93 q 405 34 407 50 q 398 5 403 18 q 385 -17 393 -8 q 365 -25 376 -25 l 60 -17 q 15 49 24 -17 q 63 153 0 153 l 106 153 q 106 248 106 201 q 107 343 106 294 l 110 551 q 111 640 111 596 q 111 729 111 685 l 57 729 q 10 833 -6 729 q 54 899 18 899 l 360 907 z "},"Ł":{"ha":515,"x_min":-44,"x_max":501,"o":"m 157 -28 q 114 -15 131 -28 q 88 16 97 -3 q 76 58 79 35 q 74 101 74 81 q 74 171 74 136 q 71 240 74 206 l 64 236 q 39 229 47 229 q 15 242 24 229 q -1 271 7 254 q -21 322 -17 300 q -3 354 -25 343 q 24 367 3 357 q 74 390 46 376 l 74 742 l 17 744 q -31 849 -44 749 q 14 914 -22 915 l 186 907 q 215 905 200 907 q 244 897 231 903 q 266 881 257 892 q 275 856 275 871 q 274 672 275 764 q 272 488 274 579 q 286 494 279 492 q 308 495 299 500 q 324 482 317 490 q 335 463 331 474 q 343 447 340 453 q 356 399 356 422 q 344 368 356 375 q 318 358 332 364 q 272 338 304 353 q 272 240 272 289 q 274 143 272 192 l 443 143 q 478 117 463 143 q 498 60 494 92 q 488 3 501 29 q 436 -24 475 -24 q 323 -24 364 -24 q 256 -24 282 -24 q 209 -26 229 -25 q 157 -28 189 -26 z "},"Ñ":{"ha":786,"x_min":-39,"x_max":724,"o":"m 550 1160 q 586 1139 572 1160 q 600 1082 600 1118 q 592 1029 600 1054 q 569 985 583 1004 q 534 956 554 967 q 489 944 514 944 q 436 955 458 944 q 396 978 414 965 q 362 1001 378 990 q 328 1011 346 1011 q 297 997 304 1011 q 290 972 290 983 q 278 953 290 961 q 246 944 265 944 q 204 967 222 944 q 186 1033 186 989 q 195 1081 186 1058 q 221 1122 204 1104 q 259 1150 238 1139 q 306 1161 281 1161 q 358 1149 335 1161 q 403 1124 382 1138 q 441 1099 424 1111 q 474 1088 458 1088 q 488 1094 483 1088 q 497 1108 493 1100 q 503 1126 500 1117 q 511 1143 506 1136 q 550 1160 524 1160 m 90 714 l 15 713 q -27 746 -15 713 q -32 831 -39 779 q 13 896 -24 894 l 182 904 q 192 906 188 906 q 201 906 197 906 l 204 906 l 206 906 q 256 896 231 906 q 297 867 282 886 q 320 829 310 851 q 341 783 331 807 q 360 736 351 760 q 378 694 369 713 q 415 612 397 649 q 451 540 433 575 q 490 470 469 506 q 532 390 510 435 q 528 438 529 414 q 528 485 528 461 q 526 585 528 539 q 524 674 525 631 q 522 764 524 718 q 521 864 521 810 q 535 887 521 878 q 567 901 549 896 q 604 907 586 906 q 632 908 622 908 q 662 906 646 908 q 692 898 678 904 q 715 881 706 892 q 724 851 724 869 q 715 444 724 647 q 707 38 707 242 q 699 3 707 15 q 677 -15 690 -10 q 647 -22 664 -21 q 613 -22 629 -22 q 561 -8 585 -22 q 521 29 538 7 q 469 110 492 67 q 425 197 446 154 q 387 272 404 238 q 351 340 369 306 q 316 411 333 375 q 278 492 299 447 q 287 268 285 372 q 289 44 289 164 q 260 -10 289 4 q 199 -24 232 -24 q 168 -22 186 -24 q 133 -14 150 -19 q 103 2 115 -8 q 90 29 90 13 l 90 714 z "},"Ò":{"ha":714,"x_min":28,"x_max":686,"o":"m 203 983 q 215 1013 201 996 q 251 1049 229 1029 q 301 1087 274 1068 q 354 1121 329 1106 q 400 1146 379 1136 q 429 1156 421 1156 q 454 1151 440 1156 q 481 1138 468 1146 q 502 1119 493 1131 q 513 1096 511 1108 q 490 1064 513 1082 q 447 1034 475 1051 q 378 989 418 1017 q 302 944 331 956 q 254 932 274 932 q 240 938 249 932 q 223 951 231 943 q 209 967 215 958 q 203 983 203 976 m 361 -43 q 208 -13 272 -43 q 105 72 144 17 q 47 208 65 128 q 28 389 28 288 q 40 594 28 497 q 88 763 53 690 q 188 877 124 835 q 354 919 251 919 q 522 885 457 919 q 623 790 586 851 q 673 645 660 729 q 686 461 686 561 q 669 243 686 338 q 613 85 651 149 q 513 -10 575 22 q 361 -43 451 -43 m 236 393 q 240 285 236 333 q 256 201 243 236 q 294 148 269 167 q 363 129 319 129 q 429 151 406 129 q 465 214 453 174 q 478 311 476 254 q 481 439 481 368 q 476 547 481 493 q 459 642 472 600 q 421 709 446 683 q 356 735 396 735 q 292 705 315 735 q 256 626 268 675 q 240 517 243 578 q 236 393 236 456 z "},"Ó":{"ha":714,"x_min":28,"x_max":686,"o":"m 203 983 q 215 1013 201 996 q 251 1049 229 1029 q 301 1087 274 1068 q 354 1121 329 1106 q 400 1146 379 1136 q 429 1156 421 1156 q 454 1151 440 1156 q 481 1138 468 1146 q 502 1119 493 1131 q 513 1096 511 1108 q 490 1064 513 1082 q 447 1034 475 1051 q 378 989 418 1017 q 302 944 331 956 q 254 932 274 932 q 240 938 249 932 q 223 951 231 943 q 209 967 215 958 q 203 983 203 976 m 361 -43 q 208 -13 272 -43 q 105 72 144 17 q 47 208 65 128 q 28 389 28 288 q 40 594 28 497 q 88 763 53 690 q 188 877 124 835 q 354 919 251 919 q 522 885 457 919 q 623 790 586 851 q 673 645 660 729 q 686 461 686 561 q 669 243 686 338 q 613 85 651 149 q 513 -10 575 22 q 361 -43 451 -43 m 236 393 q 240 285 236 333 q 256 201 243 236 q 294 148 269 167 q 363 129 319 129 q 429 151 406 129 q 465 214 453 174 q 478 311 476 254 q 481 439 481 368 q 476 547 481 493 q 459 642 472 600 q 421 709 446 683 q 356 735 396 735 q 292 705 315 735 q 256 626 268 675 q 240 517 243 578 q 236 393 236 456 z "},"Ô":{"ha":714,"x_min":28,"x_max":686,"o":"m 160 1014 q 184 1050 160 1024 q 241 1105 208 1076 q 307 1155 274 1133 q 360 1176 340 1176 q 407 1160 379 1176 q 462 1121 435 1143 q 511 1078 489 1099 q 542 1050 533 1058 q 551 1038 547 1044 q 556 1019 556 1031 q 548 998 556 1010 q 530 976 540 986 q 507 960 519 967 q 483 954 494 954 q 453 965 471 954 q 419 991 436 976 q 386 1022 401 1006 q 364 1049 371 1039 q 340 1022 357 1039 q 302 988 322 1004 q 263 958 282 971 q 233 946 244 946 q 211 953 224 946 q 187 970 199 960 q 167 992 175 981 q 160 1014 160 1004 m 361 -43 q 208 -13 272 -43 q 105 72 144 17 q 47 208 65 128 q 28 389 28 288 q 40 594 28 497 q 88 763 53 690 q 188 877 124 835 q 354 919 251 919 q 522 885 457 919 q 623 790 586 851 q 673 645 660 729 q 686 461 686 561 q 669 243 686 338 q 613 85 651 149 q 513 -10 575 22 q 361 -43 451 -43 m 236 393 q 240 285 236 333 q 256 201 243 236 q 294 148 269 167 q 363 129 319 129 q 429 151 406 129 q 465 214 453 174 q 478 311 476 254 q 481 439 481 368 q 476 547 481 493 q 459 642 472 600 q 421 709 446 683 q 356 735 396 735 q 292 705 315 735 q 256 626 268 675 q 240 517 243 578 q 236 393 236 456 z "},"Õ":{"ha":714,"x_min":28,"x_max":686,"o":"m 514 1160 q 550 1139 536 1160 q 564 1082 564 1118 q 556 1029 564 1054 q 533 985 547 1004 q 498 956 518 967 q 453 944 478 944 q 400 955 422 944 q 360 978 378 965 q 326 1001 342 990 q 292 1011 310 1011 q 261 997 268 1011 q 254 972 254 983 q 242 953 254 961 q 210 944 229 944 q 168 967 186 944 q 150 1033 150 989 q 159 1081 150 1058 q 185 1122 168 1104 q 223 1150 201 1139 q 269 1161 244 1161 q 322 1149 299 1161 q 367 1124 346 1138 q 405 1099 388 1111 q 438 1088 422 1088 q 452 1094 447 1088 q 460 1108 457 1100 q 467 1126 464 1117 q 475 1143 469 1136 q 514 1160 488 1160 m 361 -43 q 208 -13 272 -43 q 105 72 144 17 q 47 208 65 128 q 28 389 28 288 q 40 594 28 497 q 88 763 53 690 q 188 877 124 835 q 354 919 251 919 q 522 885 457 919 q 623 790 586 851 q 673 645 660 729 q 686 461 686 561 q 669 243 686 338 q 613 85 651 149 q 513 -10 575 22 q 361 -43 451 -43 m 236 393 q 240 285 236 333 q 256 201 243 236 q 294 148 269 167 q 363 129 319 129 q 429 151 406 129 q 465 214 453 174 q 478 311 476 254 q 481 439 481 368 q 476 547 481 493 q 459 642 472 600 q 421 709 446 683 q 356 735 396 735 q 292 705 315 735 q 256 626 268 675 q 240 517 243 578 q 236 393 236 456 z "},"Ö":{"ha":714,"x_min":28,"x_max":686,"o":"m 339 1072 q 334 1042 339 1058 q 319 1010 329 1025 q 292 986 308 996 q 253 976 276 976 q 194 999 221 976 q 168 1061 168 1021 q 188 1120 168 1094 q 253 1146 208 1146 q 314 1126 289 1146 q 339 1072 339 1106 m 547 1072 q 542 1042 547 1058 q 527 1010 538 1025 q 501 986 517 996 q 461 976 485 976 q 403 999 429 976 q 376 1061 376 1021 q 397 1120 376 1094 q 461 1146 417 1146 q 522 1126 497 1146 q 547 1072 547 1106 m 361 -43 q 208 -13 272 -43 q 105 72 144 17 q 47 208 65 128 q 28 389 28 288 q 40 594 28 497 q 88 763 53 690 q 188 877 124 835 q 354 919 251 919 q 522 885 457 919 q 623 790 586 851 q 673 645 660 729 q 686 461 686 561 q 669 243 686 338 q 613 85 651 149 q 513 -10 575 22 q 361 -43 451 -43 m 236 393 q 240 285 236 333 q 256 201 243 236 q 294 148 269 167 q 363 129 319 129 q 429 151 406 129 q 465 214 453 174 q 478 311 476 254 q 481 439 481 368 q 476 547 481 493 q 459 642 472 600 q 421 709 446 683 q 356 735 396 735 q 292 705 315 735 q 256 626 268 675 q 240 517 243 578 q 236 393 236 456 z "},"Ø":{"ha":714,"x_min":28,"x_max":686,"o":"m 361 -43 q 260 -32 308 -43 q 225 -69 242 -60 q 192 -79 208 -79 q 134 -58 163 -79 q 106 -6 106 -37 q 109 19 106 4 q 119 54 113 35 q 49 195 71 111 q 28 389 28 279 q 40 594 28 497 q 88 763 53 690 q 188 877 124 835 q 354 919 251 919 q 450 910 410 919 q 487 944 469 936 q 519 951 504 951 q 582 938 554 951 q 610 889 610 925 q 607 865 610 878 q 600 842 604 853 q 599 838 600 840 q 594 828 597 835 q 667 672 647 765 q 686 461 686 579 q 669 243 686 338 q 613 85 651 149 q 513 -10 575 22 q 361 -43 451 -43 m 236 393 q 237 376 236 385 q 238 361 238 368 q 256 408 249 386 q 269 444 263 429 q 291 501 278 467 q 319 576 304 536 q 348 658 333 617 q 375 733 363 700 q 356 735 369 735 q 292 705 315 735 q 256 626 268 675 q 240 517 243 578 q 236 393 236 456 m 331 132 q 346 129 338 129 q 363 129 354 129 q 429 151 406 129 q 465 214 453 174 q 478 311 476 254 q 481 439 481 368 q 478 478 481 460 q 468 499 476 496 q 441 427 453 458 q 424 381 429 396 q 404 329 417 363 q 377 257 392 296 q 348 179 363 218 q 322 110 333 140 l 331 132 z "},"Œ":{"ha":994,"x_min":28,"x_max":994,"o":"m 361 -43 q 208 -13 272 -43 q 105 72 144 17 q 47 208 65 128 q 28 389 28 288 q 40 594 28 497 q 88 763 53 690 q 188 877 124 835 q 354 919 251 919 q 449 910 407 919 q 524 885 490 901 q 543 887 533 886 q 564 889 553 888 l 906 917 q 942 890 925 918 q 964 824 960 861 q 911 753 971 760 l 696 731 l 696 531 l 865 531 q 922 468 922 531 q 912 406 922 428 q 882 383 901 383 l 696 383 l 696 150 l 824 150 q 908 224 819 224 q 994 160 994 224 q 992 136 994 150 q 988 108 990 122 q 983 80 985 93 q 979 58 981 67 q 960 13 975 29 q 926 -10 946 -3 q 881 -19 906 -17 q 835 -21 857 -21 q 760 -22 799 -22 q 681 -22 722 -22 l 599 -22 q 536 3 565 -22 q 361 -43 468 -43 m 236 393 q 240 285 236 333 q 256 201 243 236 q 294 148 269 167 q 363 129 319 129 q 429 151 406 129 q 465 214 453 174 q 478 311 476 254 q 481 439 481 368 q 476 547 481 493 q 459 642 472 600 q 421 709 446 683 q 356 735 396 735 q 292 705 315 735 q 256 626 268 675 q 240 517 243 578 q 236 393 236 456 z "},"Š":{"ha":647,"x_min":21,"x_max":626,"o":"m 126 1108 q 134 1130 126 1118 q 153 1152 142 1142 q 178 1169 165 1163 q 200 1176 190 1176 q 230 1165 211 1176 q 269 1136 249 1153 q 306 1102 289 1119 q 331 1074 324 1085 q 353 1101 338 1085 q 385 1131 368 1117 q 420 1157 403 1146 q 450 1168 438 1168 q 474 1162 461 1168 q 497 1146 486 1156 q 515 1125 507 1136 q 522 1103 522 1114 q 518 1085 522 1092 q 508 1072 514 1078 q 478 1044 500 1064 q 428 1001 456 1024 q 374 963 401 979 q 326 946 346 946 q 274 967 307 946 q 208 1017 240 989 q 151 1072 175 1046 q 126 1108 126 1099 m 207 175 q 250 129 215 149 q 329 110 285 110 q 398 136 374 110 q 422 199 422 163 q 393 253 422 229 q 321 303 364 278 q 226 357 278 328 q 132 425 175 386 q 60 516 89 464 q 31 639 31 568 q 53 751 31 700 q 116 840 76 803 q 210 899 156 878 q 329 919 265 919 q 457 893 403 919 q 546 828 511 867 q 595 747 581 790 q 604 668 610 703 l 586 554 q 573 531 585 542 q 544 514 561 521 q 508 506 528 507 q 472 508 489 504 q 429 531 449 515 q 413 565 410 546 l 426 668 q 422 701 429 685 q 402 729 415 717 q 372 750 389 742 q 333 758 354 758 q 258 723 289 758 q 228 635 228 688 q 258 556 228 588 q 331 498 288 524 q 427 448 375 472 q 523 392 479 424 q 597 317 567 360 q 626 210 626 274 q 601 105 626 151 q 534 26 576 58 q 436 -25 492 -7 q 319 -43 381 -43 q 235 -33 278 -43 q 158 -7 193 -24 q 98 32 122 10 q 65 79 74 54 l 26 204 q 22 235 22 218 q 26 267 21 251 q 42 297 31 283 q 74 319 54 311 q 133 322 106 332 q 167 297 161 313 l 207 175 z "},"Ù":{"ha":697,"x_min":-17,"x_max":657,"o":"m 194 983 q 207 1013 193 996 q 243 1049 221 1029 q 293 1087 265 1068 q 346 1121 321 1106 q 392 1146 371 1136 q 421 1156 413 1156 q 446 1151 432 1156 q 472 1138 460 1146 q 494 1119 485 1131 q 504 1096 503 1108 q 482 1064 504 1082 q 438 1034 467 1051 q 369 989 410 1017 q 294 944 322 956 q 246 932 265 932 q 231 938 240 932 q 215 951 222 943 q 201 967 207 958 q 194 983 194 976 m 349 -17 q 273 -4 319 -17 q 183 42 226 8 q 109 133 140 75 q 78 279 78 190 l 78 718 l 38 719 q -5 753 7 721 q -10 838 -17 786 q 47 903 -1 903 l 175 903 q 245 881 215 903 q 275 801 275 858 l 275 322 q 297 214 275 254 q 357 174 319 174 q 423 200 393 174 q 458 294 453 226 q 465 560 469 425 q 461 842 461 694 q 488 884 461 865 q 561 903 514 903 q 593 901 576 903 q 624 892 610 899 q 648 873 639 885 q 657 842 657 861 q 657 605 657 724 q 656 367 657 486 q 638 211 654 275 q 594 104 621 147 q 533 38 567 61 q 465 1 499 14 q 401 -14 432 -11 q 349 -17 369 -17 z "},"Ú":{"ha":697,"x_min":-17,"x_max":657,"o":"m 194 983 q 207 1013 193 996 q 243 1049 221 1029 q 293 1087 265 1068 q 346 1121 321 1106 q 392 1146 371 1136 q 421 1156 413 1156 q 446 1151 432 1156 q 472 1138 460 1146 q 494 1119 485 1131 q 504 1096 503 1108 q 482 1064 504 1082 q 438 1034 467 1051 q 369 989 410 1017 q 294 944 322 956 q 246 932 265 932 q 231 938 240 932 q 215 951 222 943 q 201 967 207 958 q 194 983 194 976 m 349 -17 q 273 -4 319 -17 q 183 42 226 8 q 109 133 140 75 q 78 279 78 190 l 78 718 l 38 719 q -5 753 7 721 q -10 838 -17 786 q 47 903 -1 903 l 175 903 q 245 881 215 903 q 275 801 275 858 l 275 322 q 297 214 275 254 q 357 174 319 174 q 423 200 393 174 q 458 294 453 226 q 465 560 469 425 q 461 842 461 694 q 488 884 461 865 q 561 903 514 903 q 593 901 576 903 q 624 892 610 899 q 648 873 639 885 q 657 842 657 861 q 657 605 657 724 q 656 367 657 486 q 638 211 654 275 q 594 104 621 147 q 533 38 567 61 q 465 1 499 14 q 401 -14 432 -11 q 349 -17 369 -17 z "},"Û":{"ha":697,"x_min":-17,"x_max":657,"o":"m 151 1014 q 176 1050 151 1024 q 233 1105 200 1076 q 299 1155 265 1133 q 351 1176 332 1176 q 399 1160 371 1176 q 453 1121 426 1143 q 503 1078 481 1099 q 533 1050 525 1058 q 543 1038 539 1044 q 547 1019 547 1031 q 540 998 547 1010 q 522 976 532 986 q 499 960 511 967 q 475 954 486 954 q 445 965 463 954 q 410 991 428 976 q 378 1022 393 1006 q 356 1049 363 1039 q 331 1022 349 1039 q 294 988 314 1004 q 255 958 274 971 q 225 946 236 946 q 203 953 215 946 q 178 970 190 960 q 159 992 167 981 q 151 1014 151 1004 m 349 -17 q 273 -4 319 -17 q 183 42 226 8 q 109 133 140 75 q 78 279 78 190 l 78 718 l 38 719 q -5 753 7 721 q -10 838 -17 786 q 47 903 -1 903 l 175 903 q 245 881 215 903 q 275 801 275 858 l 275 322 q 297 214 275 254 q 357 174 319 174 q 423 200 393 174 q 458 294 453 226 q 465 560 469 425 q 461 842 461 694 q 488 884 461 865 q 561 903 514 903 q 593 901 576 903 q 624 892 610 899 q 648 873 639 885 q 657 842 657 861 q 657 605 657 724 q 656 367 657 486 q 638 211 654 275 q 594 104 621 147 q 533 38 567 61 q 465 1 499 14 q 401 -14 432 -11 q 349 -17 369 -17 z "},"Ü":{"ha":697,"x_min":-17,"x_max":657,"o":"m 331 1072 q 326 1042 331 1058 q 310 1010 321 1025 q 284 986 300 996 q 244 976 268 976 q 186 999 213 976 q 160 1061 160 1021 q 180 1120 160 1094 q 244 1146 200 1146 q 306 1126 281 1146 q 331 1072 331 1106 m 539 1072 q 534 1042 539 1058 q 519 1010 529 1025 q 492 986 508 996 q 453 976 476 976 q 394 999 421 976 q 368 1061 368 1021 q 388 1120 368 1094 q 453 1146 408 1146 q 514 1126 489 1146 q 539 1072 539 1106 m 349 -17 q 273 -4 319 -17 q 183 42 226 8 q 109 133 140 75 q 78 279 78 190 l 78 718 l 38 719 q -5 753 7 721 q -10 838 -17 786 q 47 903 -1 903 l 175 903 q 245 881 215 903 q 275 801 275 858 l 275 322 q 297 214 275 254 q 357 174 319 174 q 423 200 393 174 q 458 294 453 226 q 465 560 469 425 q 461 842 461 694 q 488 884 461 865 q 561 903 514 903 q 593 901 576 903 q 624 892 610 899 q 648 873 639 885 q 657 842 657 861 q 657 605 657 724 q 656 367 657 486 q 638 211 654 275 q 594 104 621 147 q 533 38 567 61 q 465 1 499 14 q 401 -14 432 -11 q 349 -17 369 -17 z "},"Ÿ":{"ha":693,"x_min":8,"x_max":651,"o":"m 328 1072 q 323 1042 328 1058 q 308 1010 318 1025 q 281 986 297 996 q 242 976 265 976 q 183 999 210 976 q 157 1061 157 1021 q 177 1120 157 1094 q 242 1146 197 1146 q 303 1126 278 1146 q 328 1072 328 1106 m 536 1072 q 531 1042 536 1058 q 516 1010 526 1025 q 490 986 506 996 q 450 976 474 976 q 392 999 418 976 q 365 1061 365 1021 q 385 1120 365 1094 q 450 1146 406 1146 q 511 1126 486 1146 q 536 1072 536 1106 m 285 307 q 194 321 235 307 q 127 368 154 335 q 85 457 100 401 q 71 597 71 513 q 72 649 71 613 q 72 735 72 686 l 65 735 q 13 818 8 735 q 27 876 14 858 q 64 894 40 893 l 149 900 q 171 901 156 901 l 193 903 q 244 888 224 906 q 274 843 265 869 q 279 808 279 831 q 278 770 279 797 q 274 710 276 743 q 270 643 272 678 q 268 583 268 608 q 282 511 268 536 q 347 486 296 486 q 413 511 388 486 q 446 589 439 536 q 450 657 450 618 q 448 733 450 696 q 443 799 446 769 q 440 838 440 828 q 453 871 440 858 q 483 891 465 883 q 522 901 501 899 q 558 903 543 903 q 590 901 574 903 q 620 892 607 899 q 642 875 633 886 q 651 846 651 864 q 649 786 651 836 q 644 670 647 736 q 640 537 642 604 q 638 426 638 469 q 640 323 638 372 q 643 231 643 274 q 614 105 643 157 q 538 19 585 53 q 433 -30 492 -14 q 318 -46 375 -46 q 224 -28 267 -46 q 156 18 181 -10 l 79 106 q 71 156 63 125 q 100 213 79 188 q 148 250 121 239 q 194 239 175 261 l 265 157 q 307 119 285 133 q 353 106 329 106 q 454 286 454 106 l 454 385 q 425 349 444 364 q 382 325 406 335 q 333 311 358 315 q 285 307 307 307 z "},"Ý":{"ha":693,"x_min":8,"x_max":651,"o":"m 192 983 q 204 1013 190 996 q 240 1049 218 1029 q 290 1087 263 1068 q 343 1121 318 1106 q 389 1146 368 1136 q 418 1156 410 1156 q 443 1151 429 1156 q 469 1138 457 1146 q 491 1119 482 1131 q 501 1096 500 1108 q 479 1064 501 1082 q 435 1034 464 1051 q 367 989 407 1017 q 291 944 319 956 q 243 932 263 932 q 228 938 238 932 q 212 951 219 943 q 198 967 204 958 q 192 983 192 976 m 285 307 q 194 321 235 307 q 127 368 154 335 q 85 457 100 401 q 71 597 71 513 q 72 649 71 613 q 72 735 72 686 l 65 735 q 13 818 8 735 q 27 876 14 858 q 64 894 40 893 l 149 900 q 171 901 156 901 l 193 903 q 244 888 224 906 q 274 843 265 869 q 279 808 279 831 q 278 770 279 797 q 274 710 276 743 q 270 643 272 678 q 268 583 268 608 q 282 511 268 536 q 347 486 296 486 q 413 511 388 486 q 446 589 439 536 q 450 657 450 618 q 448 733 450 696 q 443 799 446 769 q 440 838 440 828 q 453 871 440 858 q 483 891 465 883 q 522 901 501 899 q 558 903 543 903 q 590 901 574 903 q 620 892 607 899 q 642 875 633 886 q 651 846 651 864 q 649 786 651 836 q 644 670 647 736 q 640 537 642 604 q 638 426 638 469 q 640 323 638 372 q 643 231 643 274 q 614 105 643 157 q 538 19 585 53 q 433 -30 492 -14 q 318 -46 375 -46 q 224 -28 267 -46 q 156 18 181 -10 l 79 106 q 71 156 63 125 q 100 213 79 188 q 148 250 121 239 q 194 239 175 261 l 265 157 q 307 119 285 133 q 353 106 329 106 q 454 286 454 106 l 454 385 q 425 349 444 364 q 382 325 406 335 q 333 311 358 315 q 285 307 307 307 z "},"Ž":{"ha":631,"x_min":38,"x_max":606,"o":"m 118 1108 q 126 1130 118 1118 q 145 1152 133 1142 q 169 1169 157 1163 q 192 1176 182 1176 q 222 1165 203 1176 q 260 1136 240 1153 q 298 1102 281 1119 q 322 1074 315 1085 q 344 1101 329 1085 q 377 1131 360 1117 q 412 1157 394 1146 q 442 1168 429 1168 q 465 1162 453 1168 q 488 1146 478 1156 q 506 1125 499 1136 q 514 1103 514 1114 q 510 1085 514 1092 q 500 1072 506 1078 q 469 1044 492 1064 q 420 1001 447 1024 q 365 963 393 979 q 318 946 338 946 q 265 967 299 946 q 199 1017 232 989 q 142 1072 167 1046 q 118 1108 118 1099 m 107 -28 q 53 1 69 -29 q 38 75 38 32 q 42 178 38 124 q 68 267 46 232 q 144 369 100 315 q 235 480 189 424 q 322 591 281 536 q 389 694 363 646 l 392 736 q 301 735 347 736 q 215 734 256 735 q 140 733 174 733 q 88 732 107 732 q 62 746 72 732 q 46 781 51 760 q 40 828 40 803 q 43 874 39 853 q 56 909 47 894 q 78 924 65 924 q 130 923 94 924 q 209 921 165 922 q 300 917 253 919 q 390 914 347 915 q 465 910 432 913 q 510 908 497 908 q 567 887 546 907 q 589 832 589 867 q 588 801 589 825 q 585 749 588 778 q 579 692 583 719 q 568 651 575 665 q 487 523 533 588 q 394 399 440 458 q 306 288 347 339 q 240 201 265 238 l 239 139 q 392 153 317 139 q 547 167 468 167 q 583 138 567 167 q 602 76 599 110 q 592 13 606 42 q 540 -15 579 -15 q 282 -21 394 -15 q 107 -28 169 -26 z "},"à":{"ha":667,"x_min":8,"x_max":653,"o":"m 179 983 q 192 1013 178 996 q 228 1049 206 1029 q 278 1087 250 1068 q 331 1121 306 1106 q 376 1146 356 1136 q 406 1156 397 1156 q 431 1151 417 1156 q 457 1138 444 1146 q 478 1119 469 1131 q 489 1096 488 1108 q 467 1064 489 1082 q 423 1034 451 1051 q 354 989 394 1017 q 278 944 307 956 q 231 932 250 932 q 216 938 225 932 q 199 951 207 943 q 185 967 192 958 q 179 983 179 976 m 111 -22 q 81 -20 99 -22 q 47 -12 63 -18 q 19 4 31 -7 q 8 33 8 15 q 15 80 8 43 q 35 171 22 117 q 63 292 47 225 q 95 429 78 360 q 129 567 113 499 q 160 692 146 636 q 185 790 175 749 q 201 846 196 831 q 251 896 213 881 q 342 911 289 911 q 427 899 394 911 q 475 854 460 886 q 485 817 476 853 q 506 724 493 781 q 534 596 518 668 q 566 449 550 524 q 598 301 582 374 q 626 172 614 229 q 645 78 638 114 q 653 39 653 42 q 641 8 653 18 q 613 -8 629 -3 q 577 -15 596 -14 q 544 -15 558 -15 q 467 1 488 -15 q 436 56 446 18 q 428 97 432 75 q 418 147 425 119 l 388 147 l 325 149 l 294 149 q 259 149 276 149 q 224 147 242 149 q 213 85 218 115 q 201 22 208 54 q 188 -2 199 7 q 165 -15 178 -11 q 138 -21 151 -19 q 111 -22 124 -22 m 397 293 q 361 484 382 386 q 328 682 340 582 q 289 488 307 590 q 251 293 271 385 l 397 293 z "},"á":{"ha":667,"x_min":8,"x_max":653,"o":"m 179 983 q 192 1013 178 996 q 228 1049 206 1029 q 278 1087 250 1068 q 331 1121 306 1106 q 376 1146 356 1136 q 406 1156 397 1156 q 431 1151 417 1156 q 457 1138 444 1146 q 478 1119 469 1131 q 489 1096 488 1108 q 467 1064 489 1082 q 423 1034 451 1051 q 354 989 394 1017 q 278 944 307 956 q 231 932 250 932 q 216 938 225 932 q 199 951 207 943 q 185 967 192 958 q 179 983 179 976 m 111 -22 q 81 -20 99 -22 q 47 -12 63 -18 q 19 4 31 -7 q 8 33 8 15 q 15 80 8 43 q 35 171 22 117 q 63 292 47 225 q 95 429 78 360 q 129 567 113 499 q 160 692 146 636 q 185 790 175 749 q 201 846 196 831 q 251 896 213 881 q 342 911 289 911 q 427 899 394 911 q 475 854 460 886 q 485 817 476 853 q 506 724 493 781 q 534 596 518 668 q 566 449 550 524 q 598 301 582 374 q 626 172 614 229 q 645 78 638 114 q 653 39 653 42 q 641 8 653 18 q 613 -8 629 -3 q 577 -15 596 -14 q 544 -15 558 -15 q 467 1 488 -15 q 436 56 446 18 q 428 97 432 75 q 418 147 425 119 l 388 147 l 325 149 l 294 149 q 259 149 276 149 q 224 147 242 149 q 213 85 218 115 q 201 22 208 54 q 188 -2 199 7 q 165 -15 178 -11 q 138 -21 151 -19 q 111 -22 124 -22 m 397 293 q 361 484 382 386 q 328 682 340 582 q 289 488 307 590 q 251 293 271 385 l 397 293 z "},"â":{"ha":667,"x_min":8,"x_max":653,"o":"m 136 1014 q 160 1050 136 1024 q 217 1105 185 1076 q 283 1155 250 1133 q 336 1176 317 1176 q 383 1160 356 1176 q 438 1121 411 1143 q 488 1078 465 1099 q 518 1050 510 1058 q 528 1038 524 1044 q 532 1019 532 1031 q 524 998 532 1010 q 506 976 517 986 q 483 960 496 967 q 460 954 471 954 q 430 965 447 954 q 395 991 413 976 q 363 1022 378 1006 q 340 1049 347 1039 q 316 1022 333 1039 q 278 988 299 1004 q 240 958 258 971 q 210 946 221 946 q 188 953 200 946 q 163 970 175 960 q 144 992 151 981 q 136 1014 136 1004 m 111 -22 q 81 -20 99 -22 q 47 -12 63 -18 q 19 4 31 -7 q 8 33 8 15 q 15 80 8 43 q 35 171 22 117 q 63 292 47 225 q 95 429 78 360 q 129 567 113 499 q 160 692 146 636 q 185 790 175 749 q 201 846 196 831 q 251 896 213 881 q 342 911 289 911 q 427 899 394 911 q 475 854 460 886 q 485 817 476 853 q 506 724 493 781 q 534 596 518 668 q 566 449 550 524 q 598 301 582 374 q 626 172 614 229 q 645 78 638 114 q 653 39 653 42 q 641 8 653 18 q 613 -8 629 -3 q 577 -15 596 -14 q 544 -15 558 -15 q 467 1 488 -15 q 436 56 446 18 q 428 97 432 75 q 418 147 425 119 l 388 147 l 325 149 l 294 149 q 259 149 276 149 q 224 147 242 149 q 213 85 218 115 q 201 22 208 54 q 188 -2 199 7 q 165 -15 178 -11 q 138 -21 151 -19 q 111 -22 124 -22 m 397 293 q 361 484 382 386 q 328 682 340 582 q 289 488 307 590 q 251 293 271 385 l 397 293 z "},"ã":{"ha":667,"x_min":8,"x_max":653,"o":"m 490 1160 q 526 1139 513 1160 q 540 1082 540 1118 q 532 1029 540 1054 q 509 985 524 1004 q 474 956 494 967 q 429 944 454 944 q 376 955 399 944 q 336 978 354 965 q 302 1001 318 990 q 268 1011 286 1011 q 238 997 244 1011 q 231 972 231 983 q 218 953 231 961 q 186 944 206 944 q 144 967 163 944 q 126 1033 126 989 q 135 1081 126 1058 q 161 1122 144 1104 q 199 1150 178 1139 q 246 1161 221 1161 q 299 1149 275 1161 q 343 1124 322 1138 q 381 1099 364 1111 q 414 1088 399 1088 q 428 1094 424 1088 q 437 1108 433 1100 q 443 1126 440 1117 q 451 1143 446 1136 q 490 1160 464 1160 m 111 -22 q 81 -20 99 -22 q 47 -12 63 -18 q 19 4 31 -7 q 8 33 8 15 q 15 80 8 43 q 35 171 22 117 q 63 292 47 225 q 95 429 78 360 q 129 567 113 499 q 160 692 146 636 q 185 790 175 749 q 201 846 196 831 q 251 896 213 881 q 342 911 289 911 q 427 899 394 911 q 475 854 460 886 q 485 817 476 853 q 506 724 493 781 q 534 596 518 668 q 566 449 550 524 q 598 301 582 374 q 626 172 614 229 q 645 78 638 114 q 653 39 653 42 q 641 8 653 18 q 613 -8 629 -3 q 577 -15 596 -14 q 544 -15 558 -15 q 467 1 488 -15 q 436 56 446 18 q 428 97 432 75 q 418 147 425 119 l 388 147 l 325 149 l 294 149 q 259 149 276 149 q 224 147 242 149 q 213 85 218 115 q 201 22 208 54 q 188 -2 199 7 q 165 -15 178 -11 q 138 -21 151 -19 q 111 -22 124 -22 m 397 293 q 361 484 382 386 q 328 682 340 582 q 289 488 307 590 q 251 293 271 385 l 397 293 z "},"ä":{"ha":667,"x_min":8,"x_max":653,"o":"m 315 1072 q 310 1042 315 1058 q 295 1010 306 1025 q 269 986 285 996 q 229 976 253 976 q 171 999 197 976 q 144 1061 144 1021 q 165 1120 144 1094 q 229 1146 185 1146 q 290 1126 265 1146 q 315 1072 315 1106 m 524 1072 q 519 1042 524 1058 q 503 1010 514 1025 q 477 986 493 996 q 438 976 461 976 q 379 999 406 976 q 353 1061 353 1021 q 373 1120 353 1094 q 438 1146 393 1146 q 499 1126 474 1146 q 524 1072 524 1106 m 111 -22 q 81 -20 99 -22 q 47 -12 63 -18 q 19 4 31 -7 q 8 33 8 15 q 15 80 8 43 q 35 171 22 117 q 63 292 47 225 q 95 429 78 360 q 129 567 113 499 q 160 692 146 636 q 185 790 175 749 q 201 846 196 831 q 251 896 213 881 q 342 911 289 911 q 427 899 394 911 q 475 854 460 886 q 485 817 476 853 q 506 724 493 781 q 534 596 518 668 q 566 449 550 524 q 598 301 582 374 q 626 172 614 229 q 645 78 638 114 q 653 39 653 42 q 641 8 653 18 q 613 -8 629 -3 q 577 -15 596 -14 q 544 -15 558 -15 q 467 1 488 -15 q 436 56 446 18 q 428 97 432 75 q 418 147 425 119 l 388 147 l 325 149 l 294 149 q 259 149 276 149 q 224 147 242 149 q 213 85 218 115 q 201 22 208 54 q 188 -2 199 7 q 165 -15 178 -11 q 138 -21 151 -19 q 111 -22 124 -22 m 397 293 q 361 484 382 386 q 328 682 340 582 q 289 488 307 590 q 251 293 271 385 l 397 293 z "},"å":{"ha":667,"x_min":8,"x_max":653,"o":"m 192 1065 q 202 1117 192 1093 q 232 1161 213 1142 q 278 1192 251 1181 q 338 1203 304 1203 q 438 1166 400 1203 q 476 1078 476 1129 q 439 979 476 1019 q 339 939 401 939 q 283 949 310 939 q 237 976 257 958 q 204 1016 217 993 q 192 1065 192 1039 m 304 1072 q 313 1048 304 1056 q 338 1040 322 1040 q 371 1075 371 1040 q 362 1099 371 1092 q 339 1107 353 1107 q 311 1095 318 1107 q 304 1072 304 1083 m 111 -22 q 81 -20 99 -22 q 47 -12 63 -18 q 19 4 31 -7 q 8 33 8 15 q 15 80 8 43 q 35 171 22 117 q 63 292 47 225 q 95 429 78 360 q 129 567 113 499 q 160 692 146 636 q 185 790 175 749 q 201 846 196 831 q 251 896 213 881 q 342 911 289 911 q 427 899 394 911 q 475 854 460 886 q 485 817 476 853 q 506 724 493 781 q 534 596 518 668 q 566 449 550 524 q 598 301 582 374 q 626 172 614 229 q 645 78 638 114 q 653 39 653 42 q 641 8 653 18 q 613 -8 629 -3 q 577 -15 596 -14 q 544 -15 558 -15 q 467 1 488 -15 q 436 56 446 18 q 428 97 432 75 q 418 147 425 119 l 388 147 l 325 149 l 294 149 q 259 149 276 149 q 224 147 242 149 q 213 85 218 115 q 201 22 208 54 q 188 -2 199 7 q 165 -15 178 -11 q 138 -21 151 -19 q 111 -22 124 -22 m 397 293 q 361 484 382 386 q 328 682 340 582 q 289 488 307 590 q 251 293 271 385 l 397 293 z "},"æ":{"ha":964,"x_min":8,"x_max":933,"o":"m 111 -22 q 81 -20 99 -22 q 47 -12 63 -18 q 19 4 31 -7 q 8 33 8 15 q 15 80 8 43 q 35 171 22 117 q 63 292 47 225 q 95 429 78 360 q 129 567 113 499 q 160 692 146 636 q 185 790 175 749 q 201 846 196 831 q 251 896 213 881 q 342 911 289 911 q 417 903 386 911 q 465 872 449 894 q 543 903 485 901 q 638 905 586 904 q 736 906 689 906 q 822 906 783 906 q 878 907 860 907 q 913 883 897 907 q 928 825 928 860 q 917 773 928 799 q 869 747 906 747 q 789 747 846 747 q 654 740 732 746 q 652 632 653 694 q 651 517 651 569 q 710 517 685 517 q 756 518 735 518 q 797 519 778 518 q 839 519 817 519 q 881 498 867 519 q 894 450 894 476 q 883 396 896 421 q 844 372 869 371 q 801 372 822 372 q 758 372 781 372 q 709 370 735 371 q 650 369 683 369 q 652 253 651 314 q 654 143 653 192 l 890 143 q 922 117 910 143 q 932 58 933 90 q 917 1 931 26 q 874 -24 903 -24 q 762 -24 811 -24 q 673 -26 713 -25 q 600 -27 633 -26 q 535 -28 567 -28 q 491 -19 508 -28 q 463 4 474 -10 q 436 56 444 18 q 428 97 432 75 q 418 147 425 119 l 388 147 l 325 149 l 294 149 q 259 149 276 149 q 224 147 242 149 q 213 85 218 115 q 201 22 208 54 q 188 -2 199 7 q 165 -15 178 -11 q 138 -21 151 -19 q 111 -22 124 -22 m 397 293 q 361 484 382 386 q 328 682 340 582 q 289 488 307 590 q 251 293 271 385 l 397 293 z "},"ç":{"ha":651,"x_min":28,"x_max":625,"o":"m 211 -64 q 226 -17 211 -47 q 83 124 139 24 q 28 389 28 224 q 42 594 28 497 q 92 763 57 690 q 188 877 128 835 q 342 919 249 919 q 428 907 386 919 q 503 874 471 894 q 555 824 535 853 q 576 763 575 796 l 585 508 q 545 472 576 485 q 482 458 514 458 q 439 468 457 458 q 421 499 421 478 l 410 694 q 388 735 408 721 q 340 750 368 750 q 293 722 314 750 q 258 644 272 693 q 236 530 243 594 q 229 393 229 465 q 237 293 229 343 q 260 203 244 243 q 301 138 276 163 q 363 113 326 113 q 407 126 389 113 q 438 161 425 140 q 460 208 451 182 q 476 258 469 233 q 503 276 481 272 q 544 281 525 281 q 599 267 572 281 q 625 225 625 253 q 612 137 625 179 q 572 59 599 94 q 506 -2 546 24 q 415 -37 467 -28 q 450 -83 443 -56 q 457 -125 457 -110 q 442 -180 457 -154 q 402 -224 428 -206 q 343 -254 376 -243 q 272 -265 310 -265 q 211 -251 228 -265 q 194 -217 194 -236 q 203 -181 194 -192 q 224 -167 211 -169 q 251 -166 236 -164 q 278 -167 265 -168 q 299 -161 290 -167 q 307 -137 307 -156 q 292 -101 307 -112 q 259 -85 276 -90 q 226 -77 242 -81 q 211 -64 211 -74 z "},"đ":{"ha":657,"x_min":-14,"x_max":629,"o":"m 42 731 q 45 802 42 769 q 59 858 49 835 q 87 897 69 882 q 133 913 104 911 l 271 919 q 402 909 338 922 q 517 847 467 896 q 598 706 567 799 q 629 457 629 614 q 617 287 629 375 q 566 125 604 199 q 457 4 528 51 q 271 -43 386 -43 q 197 -39 229 -43 q 133 -29 164 -35 q 69 8 93 -22 q 43 88 46 39 q 43 140 43 103 q 44 219 43 176 q 45 301 44 261 q 46 363 46 342 q 46 396 46 378 q 44 435 46 414 q 1 440 17 435 q -14 478 -14 446 q -3 525 -14 517 q 44 533 7 533 q 42 635 43 583 q 42 731 42 686 m 246 151 q 246 144 246 149 q 250 135 246 139 q 266 127 254 131 q 300 124 278 124 q 359 151 336 124 q 396 223 382 178 q 415 328 410 268 q 421 454 421 388 q 412 612 421 553 q 383 701 403 671 q 333 741 364 732 q 257 750 301 750 l 249 750 q 247 644 247 697 q 244 535 246 590 q 291 536 267 536 q 335 536 315 536 q 357 531 350 536 q 367 517 364 525 q 369 500 369 508 q 369 488 369 492 q 359 451 369 467 q 332 435 349 436 q 301 436 318 436 q 244 436 285 436 q 243 292 243 364 q 246 151 243 221 z "},"è":{"ha":561,"x_min":42,"x_max":531,"o":"m 126 983 q 139 1013 125 996 q 175 1049 153 1029 q 225 1087 197 1068 q 278 1121 253 1106 q 324 1146 303 1136 q 353 1156 344 1156 q 378 1151 364 1156 q 404 1138 392 1146 q 426 1119 417 1131 q 436 1096 435 1108 q 414 1064 436 1082 q 370 1034 399 1051 q 301 989 342 1017 q 226 944 254 956 q 178 932 197 932 q 163 938 172 932 q 147 951 154 943 q 133 967 139 958 q 126 983 126 976 m 44 768 q 48 831 44 806 q 62 872 51 856 q 91 894 72 888 q 140 903 110 901 q 235 905 183 904 q 333 906 286 906 q 419 906 381 906 q 475 907 457 907 q 510 883 494 907 q 525 825 525 860 q 514 773 525 799 q 467 747 503 747 q 386 747 443 747 q 251 740 329 746 q 249 632 250 694 q 249 517 249 569 q 307 517 282 517 q 353 518 332 518 q 394 519 375 518 q 436 519 414 519 q 478 498 464 519 q 492 450 492 476 q 480 396 493 421 q 442 372 467 371 q 399 372 419 372 q 355 372 378 372 q 306 370 332 371 q 247 369 281 369 q 249 253 249 314 q 251 143 250 192 l 488 143 q 519 117 507 143 q 529 58 531 90 q 514 1 528 26 q 471 -24 500 -24 q 359 -24 408 -24 q 270 -26 310 -25 q 197 -27 231 -26 q 132 -28 164 -28 q 90 -19 107 -28 q 62 2 72 -11 q 47 29 51 15 q 42 53 42 43 l 42 226 l 44 594 l 44 768 z "},"é":{"ha":561,"x_min":42,"x_max":531,"o":"m 126 983 q 139 1013 125 996 q 175 1049 153 1029 q 225 1087 197 1068 q 278 1121 253 1106 q 324 1146 303 1136 q 353 1156 344 1156 q 378 1151 364 1156 q 404 1138 392 1146 q 426 1119 417 1131 q 436 1096 435 1108 q 414 1064 436 1082 q 370 1034 399 1051 q 301 989 342 1017 q 226 944 254 956 q 178 932 197 932 q 163 938 172 932 q 147 951 154 943 q 133 967 139 958 q 126 983 126 976 m 44 768 q 48 831 44 806 q 62 872 51 856 q 91 894 72 888 q 140 903 110 901 q 235 905 183 904 q 333 906 286 906 q 419 906 381 906 q 475 907 457 907 q 510 883 494 907 q 525 825 525 860 q 514 773 525 799 q 467 747 503 747 q 386 747 443 747 q 251 740 329 746 q 249 632 250 694 q 249 517 249 569 q 307 517 282 517 q 353 518 332 518 q 394 519 375 518 q 436 519 414 519 q 478 498 464 519 q 492 450 492 476 q 480 396 493 421 q 442 372 467 371 q 399 372 419 372 q 355 372 378 372 q 306 370 332 371 q 247 369 281 369 q 249 253 249 314 q 251 143 250 192 l 488 143 q 519 117 507 143 q 529 58 531 90 q 514 1 528 26 q 471 -24 500 -24 q 359 -24 408 -24 q 270 -26 310 -25 q 197 -27 231 -26 q 132 -28 164 -28 q 90 -19 107 -28 q 62 2 72 -11 q 47 29 51 15 q 42 53 42 43 l 42 226 l 44 594 l 44 768 z "},"ê":{"ha":561,"x_min":42,"x_max":531,"o":"m 83 1014 q 108 1050 83 1024 q 165 1105 132 1076 q 231 1155 197 1133 q 283 1176 264 1176 q 331 1160 303 1176 q 385 1121 358 1143 q 435 1078 413 1099 q 465 1050 457 1058 q 475 1038 471 1044 q 479 1019 479 1031 q 472 998 479 1010 q 453 976 464 986 q 431 960 443 967 q 407 954 418 954 q 377 965 394 954 q 342 991 360 976 q 310 1022 325 1006 q 288 1049 294 1039 q 263 1022 281 1039 q 226 988 246 1004 q 187 958 206 971 q 157 946 168 946 q 135 953 147 946 q 110 970 122 960 q 91 992 99 981 q 83 1014 83 1004 m 44 768 q 48 831 44 806 q 62 872 51 856 q 91 894 72 888 q 140 903 110 901 q 235 905 183 904 q 333 906 286 906 q 419 906 381 906 q 475 907 457 907 q 510 883 494 907 q 525 825 525 860 q 514 773 525 799 q 467 747 503 747 q 386 747 443 747 q 251 740 329 746 q 249 632 250 694 q 249 517 249 569 q 307 517 282 517 q 353 518 332 518 q 394 519 375 518 q 436 519 414 519 q 478 498 464 519 q 492 450 492 476 q 480 396 493 421 q 442 372 467 371 q 399 372 419 372 q 355 372 378 372 q 306 370 332 371 q 247 369 281 369 q 249 253 249 314 q 251 143 250 192 l 488 143 q 519 117 507 143 q 529 58 531 90 q 514 1 528 26 q 471 -24 500 -24 q 359 -24 408 -24 q 270 -26 310 -25 q 197 -27 231 -26 q 132 -28 164 -28 q 90 -19 107 -28 q 62 2 72 -11 q 47 29 51 15 q 42 53 42 43 l 42 226 l 44 594 l 44 768 z "},"ë":{"ha":561,"x_min":42,"x_max":531,"o":"m 263 1072 q 258 1042 263 1058 q 242 1010 253 1025 q 216 986 232 996 q 176 976 200 976 q 118 999 144 976 q 92 1061 92 1021 q 112 1120 92 1094 q 176 1146 132 1146 q 238 1126 213 1146 q 263 1072 263 1106 m 471 1072 q 466 1042 471 1058 q 451 1010 461 1025 q 424 986 440 996 q 385 976 408 976 q 326 999 353 976 q 300 1061 300 1021 q 320 1120 300 1094 q 385 1146 340 1146 q 446 1126 421 1146 q 471 1072 471 1106 m 44 768 q 48 831 44 806 q 62 872 51 856 q 91 894 72 888 q 140 903 110 901 q 235 905 183 904 q 333 906 286 906 q 419 906 381 906 q 475 907 457 907 q 510 883 494 907 q 525 825 525 860 q 514 773 525 799 q 467 747 503 747 q 386 747 443 747 q 251 740 329 746 q 249 632 250 694 q 249 517 249 569 q 307 517 282 517 q 353 518 332 518 q 394 519 375 518 q 436 519 414 519 q 478 498 464 519 q 492 450 492 476 q 480 396 493 421 q 442 372 467 371 q 399 372 419 372 q 355 372 378 372 q 306 370 332 371 q 247 369 281 369 q 249 253 249 314 q 251 143 250 192 l 488 143 q 519 117 507 143 q 529 58 531 90 q 514 1 528 26 q 471 -24 500 -24 q 359 -24 408 -24 q 270 -26 310 -25 q 197 -27 231 -26 q 132 -28 164 -28 q 90 -19 107 -28 q 62 2 72 -11 q 47 29 51 15 q 42 53 42 43 l 42 226 l 44 594 l 44 768 z "},"ì":{"ha":358,"x_min":1,"x_max":353,"o":"m 25 983 q 38 1013 24 996 q 74 1049 51 1029 q 124 1087 96 1068 q 176 1121 151 1106 q 222 1146 201 1136 q 251 1156 243 1156 q 276 1151 263 1156 q 303 1138 290 1146 q 324 1119 315 1131 q 335 1096 333 1108 q 313 1064 335 1082 q 269 1034 297 1051 q 200 989 240 1017 q 124 944 153 956 q 76 932 96 932 q 62 938 71 932 q 45 951 53 943 q 31 967 38 958 q 25 983 25 976 m 207 -22 l 183 -22 q 165 -22 176 -22 q 140 -19 153 -22 l 54 -17 q 22 3 35 -15 q 10 56 8 21 q 12 96 10 81 q 19 119 14 111 q 33 130 24 128 q 57 132 42 132 l 79 132 q 82 431 81 282 q 85 729 83 579 l 64 729 q 17 833 1 729 q 31 885 21 867 q 61 906 42 904 l 311 914 q 331 905 322 914 q 344 881 339 896 q 351 849 349 867 q 353 818 353 832 q 340 760 353 789 q 297 732 326 732 l 285 732 q 282 431 283 581 q 279 129 281 281 l 297 129 q 353 71 353 129 q 351 40 353 57 q 344 8 349 24 q 331 -16 339 -7 q 311 -25 322 -25 l 207 -22 z "},"í":{"ha":358,"x_min":1,"x_max":353,"o":"m 25 983 q 38 1013 24 996 q 74 1049 51 1029 q 124 1087 96 1068 q 176 1121 151 1106 q 222 1146 201 1136 q 251 1156 243 1156 q 276 1151 263 1156 q 303 1138 290 1146 q 324 1119 315 1131 q 335 1096 333 1108 q 313 1064 335 1082 q 269 1034 297 1051 q 200 989 240 1017 q 124 944 153 956 q 76 932 96 932 q 62 938 71 932 q 45 951 53 943 q 31 967 38 958 q 25 983 25 976 m 207 -22 l 183 -22 q 165 -22 176 -22 q 140 -19 153 -22 l 54 -17 q 22 3 35 -15 q 10 56 8 21 q 12 96 10 81 q 19 119 14 111 q 33 130 24 128 q 57 132 42 132 l 79 132 q 82 431 81 282 q 85 729 83 579 l 64 729 q 17 833 1 729 q 31 885 21 867 q 61 906 42 904 l 311 914 q 331 905 322 914 q 344 881 339 896 q 351 849 349 867 q 353 818 353 832 q 340 760 353 789 q 297 732 326 732 l 285 732 q 282 431 283 581 q 279 129 281 281 l 297 129 q 353 71 353 129 q 351 40 353 57 q 344 8 349 24 q 331 -16 339 -7 q 311 -25 322 -25 l 207 -22 z "},"î":{"ha":358,"x_min":-19,"x_max":376,"o":"m -19 1014 q 5 1050 -19 1024 q 62 1105 29 1076 q 128 1155 94 1133 q 181 1176 161 1176 q 228 1160 200 1176 q 283 1121 256 1143 q 332 1078 310 1099 q 363 1050 354 1058 q 372 1038 368 1044 q 376 1019 376 1031 q 369 998 376 1010 q 351 976 361 986 q 328 960 340 967 q 304 954 315 954 q 274 965 292 954 q 240 991 257 976 q 207 1022 222 1006 q 185 1049 192 1039 q 160 1022 178 1039 q 123 988 143 1004 q 84 958 103 971 q 54 946 65 946 q 32 953 44 946 q 8 970 19 960 q -12 992 -4 981 q -19 1014 -19 1004 m 207 -22 l 183 -22 q 165 -22 176 -22 q 140 -19 153 -22 l 54 -17 q 22 3 35 -15 q 10 56 8 21 q 12 96 10 81 q 19 119 14 111 q 33 130 24 128 q 57 132 42 132 l 79 132 q 82 431 81 282 q 85 729 83 579 l 64 729 q 17 833 1 729 q 31 885 21 867 q 61 906 42 904 l 311 914 q 331 905 322 914 q 344 881 339 896 q 351 849 349 867 q 353 818 353 832 q 340 760 353 789 q 297 732 326 732 l 285 732 q 282 431 283 581 q 279 129 281 281 l 297 129 q 353 71 353 129 q 351 40 353 57 q 344 8 349 24 q 331 -16 339 -7 q 311 -25 322 -25 l 207 -22 z "},"ï":{"ha":358,"x_min":-11,"x_max":368,"o":"m 160 1072 q 155 1042 160 1058 q 140 1010 150 1025 q 113 986 129 996 q 74 976 97 976 q 15 999 42 976 q -11 1061 -11 1021 q 9 1120 -11 1094 q 74 1146 29 1146 q 135 1126 110 1146 q 160 1072 160 1106 m 368 1072 q 363 1042 368 1058 q 348 1010 358 1025 q 322 986 338 996 q 282 976 306 976 q 224 999 250 976 q 197 1061 197 1021 q 217 1120 197 1094 q 282 1146 238 1146 q 343 1126 318 1146 q 368 1072 368 1106 m 207 -22 l 183 -22 q 165 -22 176 -22 q 140 -19 153 -22 l 54 -17 q 22 3 35 -15 q 10 56 8 21 q 12 96 10 81 q 19 119 14 111 q 33 130 24 128 q 57 132 42 132 l 79 132 q 82 431 81 282 q 85 729 83 579 l 64 729 q 17 833 1 729 q 31 885 21 867 q 61 906 42 904 l 311 914 q 331 905 322 914 q 344 881 339 896 q 351 849 349 867 q 353 818 353 832 q 340 760 353 789 q 297 732 326 732 l 285 732 q 282 431 283 581 q 279 129 281 281 l 297 129 q 353 71 353 129 q 351 40 353 57 q 344 8 349 24 q 331 -16 339 -7 q 311 -25 322 -25 l 207 -22 z "},"ł":{"ha":476,"x_min":-49,"x_max":469,"o":"m 125 -28 q 82 -15 99 -28 q 56 16 65 -3 q 44 58 47 35 q 42 101 42 81 l 42 288 q 30 284 35 285 q 22 282 25 283 q -20 288 -10 272 q -37 326 -31 303 q -48 380 -47 358 q -25 408 -49 401 q -1 416 -19 410 q 42 435 17 422 l 42 843 q 51 872 42 860 q 73 892 60 883 q 103 903 86 900 q 135 907 119 907 q 219 878 196 907 q 243 800 243 850 q 242 651 243 729 q 240 486 242 572 q 266 495 253 490 q 290 503 279 500 q 311 501 303 507 q 326 485 319 494 q 335 465 332 475 q 340 447 339 454 q 344 397 347 419 q 326 368 340 375 q 297 362 314 365 q 240 347 281 358 q 240 246 240 297 q 242 143 240 194 l 411 143 q 447 117 431 143 q 466 60 463 92 q 456 3 469 29 q 404 -24 443 -24 q 291 -24 332 -24 q 224 -24 250 -24 q 177 -26 197 -25 q 125 -28 157 -26 z "},"ñ":{"ha":726,"x_min":42,"x_max":689,"o":"m 521 1160 q 557 1139 543 1160 q 571 1082 571 1118 q 563 1029 571 1054 q 540 985 554 1004 q 505 956 525 967 q 460 944 485 944 q 407 955 429 944 q 367 978 385 965 q 333 1001 349 990 q 299 1011 317 1011 q 268 997 275 1011 q 261 972 261 983 q 249 953 261 961 q 217 944 236 944 q 175 967 193 944 q 157 1033 157 989 q 166 1081 157 1058 q 192 1122 175 1104 q 230 1150 208 1139 q 276 1161 251 1161 q 329 1149 306 1161 q 374 1124 353 1138 q 412 1099 394 1111 q 444 1088 429 1088 q 459 1094 454 1088 q 467 1108 464 1100 q 474 1126 471 1117 q 482 1143 476 1136 q 521 1160 494 1160 m 42 844 q 51 874 42 863 q 74 893 60 886 q 105 903 88 900 q 139 906 122 906 q 201 900 175 906 q 243 872 226 894 q 267 834 256 857 q 291 786 279 811 q 314 737 303 761 q 333 694 325 713 q 376 608 356 649 q 415 527 396 567 q 455 447 435 488 q 497 363 475 407 q 494 410 494 386 q 493 457 493 433 q 492 560 493 511 q 490 655 490 608 q 488 750 489 701 q 486 853 486 799 q 514 894 486 881 q 586 908 542 908 q 618 906 600 908 q 651 898 636 904 q 678 881 667 892 q 689 851 689 869 q 681 444 689 647 q 672 38 672 242 q 664 3 672 15 q 642 -15 656 -10 q 612 -22 629 -21 q 578 -22 594 -22 q 526 -8 550 -22 q 486 29 503 7 q 451 83 472 47 q 405 163 429 118 q 355 256 381 207 q 306 352 329 306 q 262 438 282 399 q 229 500 242 476 q 238 272 236 381 q 240 44 240 164 q 212 -10 240 4 q 150 -24 183 -24 q 119 -22 138 -24 q 84 -14 101 -19 q 54 2 67 -8 q 42 29 42 13 l 42 844 z "}}}
